{"glyphs":{"0":{"ha":749,"x_min":57,"x_max":692,"o":"m 692 183 q 667 92 692 133 q 600 25 642 50 q 508 0 558 0 l 242 0 q 157 21 197 0 l 156 22 q 83 90 110 46 q 57 183 57 133 l 57 754 q 82 847 57 806 q 149 914 107 889 q 242 939 192 939 l 508 939 q 542 935 521 939 q 588 919 564 932 l 589 919 q 664 852 636 896 q 692 754 692 808 l 692 183 m 433 757 q 433 769 436 764 q 424 774 431 774 l 242 774 q 228 768 235 774 q 222 754 222 763 l 222 393 q 228 386 222 388 q 236 390 233 385 l 433 757 m 526 183 l 526 554 q 522 563 526 561 q 513 558 517 564 l 311 181 q 313 169 310 175 q 321 164 315 164 l 508 164 q 521 170 515 164 q 526 183 526 176 z "},"1":{"ha":749,"x_min":222,"x_max":526,"o":"m 526 64 q 509 19 526 38 q 465 0 492 0 l 426 0 q 381 19 400 0 q 363 64 363 38 l 363 696 q 358 703 363 701 q 350 703 353 706 l 329 682 q 285 663 313 663 q 260 668 271 663 q 232 692 242 675 q 222 726 222 708 l 222 781 q 240 826 222 807 l 335 919 q 356 933 344 928 q 381 939 367 939 l 465 939 q 509 921 492 939 q 526 875 526 903 l 526 64 z "},"2":{"ha":749,"x_min":57,"x_max":692,"o":"m 692 64 q 673 19 692 38 q 628 0 654 0 l 242 0 q 149 25 192 0 q 82 92 107 50 q 57 183 57 133 l 57 310 q 90 415 57 367 q 179 483 124 464 l 513 608 q 526 629 526 613 l 526 754 q 508 774 526 774 l 242 774 q 228 768 235 774 q 222 754 222 763 l 222 717 q 203 672 222 690 q 158 654 185 654 l 121 654 q 76 672 94 654 q 57 717 57 690 l 57 754 q 82 847 57 806 q 149 914 107 889 q 242 939 192 939 l 508 939 q 600 914 558 939 q 667 847 642 889 q 692 754 692 806 l 692 629 q 658 522 692 571 q 571 454 625 474 l 236 329 q 222 310 222 325 l 222 183 q 228 170 222 176 q 242 164 235 164 l 628 164 q 673 146 654 164 q 692 100 692 128 l 692 64 z "},"3":{"ha":749,"x_min":57,"x_max":692,"o":"m 692 183 q 667 92 692 133 q 600 25 642 50 q 508 0 558 0 l 242 0 q 149 25 192 0 q 82 92 107 50 q 57 183 57 133 l 57 225 q 76 270 57 251 q 121 289 94 289 l 160 289 q 203 270 185 289 q 222 225 222 251 l 222 183 q 228 170 222 176 q 242 164 235 164 l 508 164 q 521 170 515 164 q 526 183 526 176 l 526 368 q 508 386 526 386 l 242 386 q 197 405 215 386 q 178 450 178 424 l 178 489 q 197 533 178 515 q 242 551 215 551 l 508 551 q 521 558 515 551 q 526 571 526 564 l 526 754 q 508 774 526 774 l 242 774 q 228 768 235 774 q 222 754 222 763 l 222 717 q 203 672 222 690 q 160 654 185 654 l 121 654 q 76 672 94 654 q 57 717 57 690 l 57 754 q 82 847 57 806 q 149 914 107 889 q 242 939 192 939 l 508 939 q 600 914 558 939 q 667 847 642 889 q 692 754 692 806 l 692 571 q 686 526 692 549 q 671 483 681 504 q 671 454 660 469 q 686 413 681 435 q 692 368 692 390 l 692 183 z "},"4":{"ha":749,"x_min":56,"x_max":693,"o":"m 693 244 q 674 201 693 219 q 629 182 656 182 l 597 182 q 578 164 578 182 l 578 64 q 560 19 578 38 q 515 0 542 0 l 478 0 q 433 19 451 0 q 414 64 414 38 l 414 164 q 396 182 414 182 l 119 182 q 74 201 93 182 q 56 244 56 219 l 56 419 q 85 542 56 483 l 199 758 q 256 794 217 794 l 297 794 q 351 764 333 794 q 354 701 371 735 l 232 465 q 221 419 221 440 l 221 364 q 240 347 221 347 l 396 347 q 414 364 414 347 l 414 875 q 433 921 414 903 q 478 939 451 939 l 515 939 q 560 921 542 939 q 578 875 578 903 l 578 364 q 597 347 578 347 l 629 347 q 674 328 656 347 q 693 283 693 310 l 693 244 z "},"5":{"ha":749,"x_min":57,"x_max":692,"o":"m 692 838 q 672 792 692 808 q 628 774 654 774 l 240 774 q 222 756 222 774 l 222 608 q 240 589 222 589 l 508 589 q 601 564 560 589 q 667 498 642 539 q 692 406 692 457 l 692 183 q 667 92 692 133 q 600 25 642 50 q 508 0 558 0 l 242 0 q 149 25 192 0 q 82 92 107 50 q 57 183 57 133 l 57 283 q 76 328 57 310 q 121 347 94 347 l 160 347 q 203 328 185 347 q 222 283 222 310 l 222 183 q 228 170 222 176 q 242 164 235 164 l 508 164 q 521 170 515 164 q 526 183 526 176 l 526 406 q 521 419 526 413 q 508 425 515 425 l 121 425 q 76 444 93 425 q 57 489 57 461 l 57 875 q 76 921 57 903 q 121 939 94 939 l 628 939 q 673 921 654 939 q 692 875 692 903 l 692 838 z "},"6":{"ha":749,"x_min":57,"x_max":692,"o":"m 692 183 q 667 92 692 133 q 600 25 642 50 q 508 0 558 0 l 242 0 q 149 25 192 0 q 82 92 107 50 q 57 183 57 133 l 57 754 q 82 847 57 806 q 149 914 107 889 q 242 939 192 939 l 508 939 q 600 914 558 939 q 667 847 642 889 q 692 754 692 806 l 692 719 q 673 674 692 693 q 628 654 654 654 l 590 654 q 545 674 564 654 q 526 719 526 693 l 526 754 q 508 774 526 774 l 242 774 q 228 768 235 774 q 222 754 222 763 l 222 607 q 240 589 222 589 l 508 589 q 600 565 558 589 q 667 499 642 540 q 692 406 692 457 l 692 183 m 526 183 l 526 406 q 508 425 526 425 l 240 425 q 222 407 222 425 l 222 183 q 228 170 222 176 q 242 164 235 164 l 508 164 q 521 170 515 164 q 526 183 526 176 z "},"7":{"ha":749,"x_min":57,"x_max":692,"o":"m 692 694 q 687 647 692 671 q 674 599 682 622 l 454 40 q 431 11 447 22 q 394 0 415 0 l 354 0 q 301 28 318 0 q 296 86 283 56 l 521 660 q 525 677 524 668 q 526 694 526 686 l 526 756 q 510 774 526 774 l 240 774 q 222 756 222 774 l 222 717 q 203 672 222 690 q 160 654 185 654 l 121 654 q 76 672 94 654 q 57 717 57 690 l 57 875 q 76 921 57 903 q 121 939 94 939 l 628 939 q 673 921 654 939 q 692 875 692 903 l 692 694 z "},"8":{"ha":749,"x_min":57,"x_max":692,"o":"m 692 183 q 667 92 692 133 q 600 25 642 50 q 508 0 558 0 l 242 0 q 149 25 192 0 q 82 92 107 50 q 57 183 57 133 l 57 386 q 63 432 57 410 q 78 472 68 454 q 78 503 89 488 q 63 545 68 524 q 57 589 57 567 l 57 754 q 82 847 57 806 q 149 914 107 889 q 242 939 192 939 l 508 939 q 600 914 558 939 q 667 847 642 889 q 692 754 692 806 l 692 589 q 686 546 692 568 q 671 504 681 524 q 671 472 660 488 q 686 432 681 454 q 692 386 692 410 l 692 183 m 526 589 l 526 754 q 508 774 526 774 l 242 774 q 228 768 235 774 q 222 754 222 763 l 222 589 q 228 576 222 582 q 242 571 235 571 l 508 571 q 526 589 526 571 m 526 183 l 526 386 q 508 406 526 406 l 242 406 q 228 400 235 406 q 222 386 222 394 l 222 183 q 228 170 222 176 q 242 164 235 164 l 508 164 q 521 170 515 164 q 526 183 526 176 z "},"9":{"ha":749,"x_min":57,"x_max":692,"o":"m 692 183 q 667 92 692 133 q 600 25 642 50 q 508 0 558 0 l 242 0 q 149 25 192 0 q 82 92 107 50 q 57 183 57 133 l 57 225 q 76 270 57 251 q 121 289 94 289 l 160 289 q 203 270 185 289 q 222 225 222 251 l 222 183 q 228 170 222 176 q 242 164 235 164 l 508 164 q 521 170 515 164 q 526 183 526 176 l 526 331 q 510 349 526 349 l 242 349 q 149 374 192 349 q 82 441 107 399 q 57 533 57 483 l 57 754 q 82 847 57 806 q 149 914 107 889 q 242 939 192 939 l 508 939 q 600 914 558 939 q 667 847 642 889 q 692 754 692 806 l 692 183 m 526 532 l 526 754 q 508 774 526 774 l 242 774 q 228 768 235 774 q 222 754 222 763 l 222 533 q 228 519 222 525 q 242 514 235 514 l 510 514 q 526 532 526 514 z "},"A":{"ha":832,"x_min":49,"x_max":782,"o":"m 774 83 q 764 25 782 51 q 713 0 746 0 l 672 0 q 635 13 653 0 q 611 43 618 25 l 558 203 q 535 221 553 221 l 297 221 q 274 203 279 221 l 221 43 q 197 13 214 25 q 160 0 181 0 l 119 0 q 68 25 86 0 q 60 83 49 53 l 329 896 q 352 927 336 915 q 388 939 368 939 l 444 939 q 481 927 464 939 q 503 896 497 915 l 774 83 m 493 403 l 424 615 q 408 615 417 625 l 339 403 q 340 390 336 396 q 351 385 344 385 l 481 385 q 492 390 488 385 q 493 403 496 396 z "},"Á":{"ha":832,"x_min":49,"x_max":782,"o":"m 540 1133 l 508 1036 q 485 1004 501 1017 q 447 992 468 992 l 407 992 q 356 1019 375 992 q 347 1076 336 1043 l 379 1174 q 403 1205 386 1193 q 439 1217 419 1217 l 479 1217 q 531 1190 513 1217 q 540 1133 550 1165 m 774 83 q 764 25 782 51 q 713 0 746 0 l 672 0 q 635 13 653 0 q 611 43 618 25 l 558 203 q 535 221 553 221 l 297 221 q 274 203 279 221 l 221 43 q 197 13 214 25 q 160 0 181 0 l 119 0 q 68 25 86 0 q 60 83 49 53 l 329 894 q 352 927 336 915 q 388 939 368 939 l 444 939 q 481 927 464 939 q 503 894 497 915 l 774 83 m 493 401 l 424 615 q 408 615 417 625 l 339 401 q 340 390 336 396 q 351 385 344 385 l 481 385 q 492 390 488 385 q 493 401 496 396 z "},"Â":{"ha":831,"x_min":49,"x_max":782,"o":"m 615 1024 q 558 992 597 992 l 515 992 q 461 1024 479 992 l 454 1036 q 426 1053 442 1053 l 404 1053 q 376 1036 389 1053 l 369 1024 q 315 992 351 992 l 271 992 q 215 1024 233 992 q 215 1088 197 1056 l 274 1185 q 328 1217 292 1217 l 503 1217 q 558 1185 538 1217 l 615 1088 q 615 1024 633 1056 m 771 83 q 764 25 782 54 q 713 0 743 0 l 671 0 q 634 13 650 0 q 611 43 618 25 l 558 203 q 535 221 553 221 l 296 221 q 271 203 279 221 l 219 43 q 197 13 214 25 q 160 0 181 0 l 118 0 q 67 25 88 0 q 60 83 49 54 l 328 894 q 388 939 343 939 l 443 939 q 503 894 488 939 l 771 83 m 492 401 l 422 615 q 416 619 421 619 q 408 615 411 619 l 339 401 q 340 390 336 396 q 350 385 344 385 l 481 385 q 491 390 488 385 q 492 401 494 396 z "},"Ä":{"ha":831,"x_min":49,"x_max":782,"o":"m 640 1096 q 610 1022 640 1053 q 535 990 579 990 q 462 1022 492 990 q 432 1096 432 1053 q 462 1169 432 1138 q 535 1200 492 1200 q 610 1169 579 1200 q 640 1096 640 1138 m 399 1096 q 369 1022 399 1053 q 296 990 339 990 q 222 1022 253 990 q 190 1096 190 1053 q 222 1169 190 1138 q 296 1200 253 1200 q 369 1169 339 1200 q 399 1096 399 1138 m 771 83 q 764 25 782 54 q 713 0 743 0 l 671 0 q 634 13 650 0 q 611 43 618 25 l 558 203 q 535 221 553 221 l 296 221 q 271 203 279 221 l 219 43 q 197 13 214 25 q 160 0 181 0 l 118 0 q 67 25 88 0 q 60 83 49 54 l 328 896 q 388 939 343 939 l 443 939 q 503 896 488 939 l 771 83 m 492 403 l 422 615 q 416 619 421 619 q 408 615 411 619 l 339 403 q 340 390 336 396 q 350 385 344 385 l 481 385 q 491 390 488 385 q 492 403 494 396 z "},"À":{"ha":832,"x_min":49,"x_max":782,"o":"m 486 1076 q 476 1019 496 1043 q 425 992 460 992 l 385 992 q 348 1004 365 992 q 324 1036 331 1017 l 292 1133 q 300 1190 283 1164 q 353 1217 319 1217 l 393 1217 q 429 1205 413 1217 q 451 1174 446 1193 l 486 1076 m 774 83 q 764 25 782 51 q 713 0 746 0 l 672 0 q 635 13 653 0 q 611 43 618 25 l 558 203 q 535 221 553 221 l 297 221 q 274 203 279 221 l 221 43 q 197 13 214 25 q 160 0 181 0 l 119 0 q 68 25 86 0 q 60 83 49 53 l 329 894 q 352 927 336 915 q 388 939 368 939 l 444 939 q 481 927 464 939 q 503 894 497 915 l 774 83 m 493 403 l 424 615 q 408 615 417 625 l 339 403 q 340 390 336 396 q 351 385 344 385 l 481 385 q 492 390 488 385 q 493 403 496 396 z "},"Å":{"ha":832,"x_min":49,"x_max":782,"o":"m 561 1094 q 526 1008 561 1043 q 440 972 490 972 l 392 972 q 307 1008 343 972 q 271 1094 271 1043 l 271 1096 q 307 1181 271 1146 q 392 1217 343 1217 l 440 1217 q 526 1181 490 1217 q 561 1096 561 1146 l 561 1094 m 467 1094 l 467 1096 q 459 1114 467 1107 q 440 1121 451 1121 l 392 1121 q 374 1114 382 1121 q 365 1096 365 1107 l 365 1094 q 374 1076 365 1083 q 392 1068 382 1068 l 440 1068 q 459 1076 451 1068 q 467 1094 467 1083 m 774 83 q 764 25 782 51 q 713 0 746 0 l 672 0 q 635 13 653 0 q 611 43 618 25 l 558 203 q 535 221 553 221 l 297 221 q 274 203 279 221 l 221 43 q 197 13 214 25 q 160 0 181 0 l 119 0 q 68 25 86 0 q 60 83 49 53 l 329 894 q 352 927 336 915 q 388 939 368 939 l 444 939 q 481 927 464 939 q 503 894 497 915 l 774 83 m 493 401 l 424 615 q 408 615 417 625 l 339 401 q 340 390 336 396 q 351 385 344 385 l 481 385 q 492 390 488 385 q 493 401 496 396 z "},"Ã":{"ha":832,"x_min":49,"x_max":782,"o":"m 642 1185 q 642 1121 661 1154 l 585 1024 q 529 992 567 992 l 482 992 q 460 997 469 992 l 371 1032 q 343 1024 356 1039 q 289 992 325 992 l 246 992 q 190 1024 208 992 q 190 1088 172 1056 l 247 1185 q 301 1217 265 1217 l 349 1217 q 371 1213 361 1217 l 461 1175 q 488 1185 479 1169 q 543 1217 506 1217 l 586 1217 q 642 1185 624 1217 m 774 83 q 764 25 782 51 q 713 0 746 0 l 672 0 q 635 13 653 0 q 611 43 618 25 l 560 203 q 535 221 551 221 l 297 221 q 274 203 279 221 l 221 43 q 197 13 214 25 q 160 0 181 0 l 119 0 q 68 25 89 0 q 60 83 49 53 l 329 894 q 352 927 336 915 q 388 939 368 939 l 444 939 q 481 927 464 939 q 503 894 497 915 l 774 83 m 493 401 l 424 615 q 408 615 417 625 l 339 401 q 341 390 338 396 q 351 385 344 385 l 481 385 q 492 390 488 385 q 493 401 496 396 z "},"Æ":{"ha":1238,"x_min":53,"x_max":1181,"o":"m 1181 64 q 1163 19 1181 38 q 1118 0 1144 0 l 642 0 q 597 19 615 0 q 578 64 578 38 l 578 201 q 561 221 578 221 l 360 221 q 332 204 344 221 l 219 29 q 164 0 197 0 l 121 0 q 86 10 101 0 l 86 11 q 58 51 64 26 q 67 99 53 76 l 593 911 q 646 939 611 939 l 1118 939 q 1163 919 1140 939 q 1181 875 1181 901 l 1181 838 q 1163 792 1181 811 q 1118 774 1144 774 l 763 774 q 743 756 743 774 l 743 571 q 763 551 743 551 l 1068 551 q 1114 533 1096 551 q 1132 489 1132 515 l 1132 450 q 1114 405 1132 424 q 1068 386 1096 386 l 763 386 q 743 369 743 386 l 743 182 q 763 164 743 164 l 1118 164 q 1163 146 1144 164 q 1181 100 1181 128 l 1181 64 m 578 403 l 578 561 q 573 567 578 565 q 565 564 568 569 l 458 399 q 458 390 456 394 q 467 385 461 385 l 561 385 q 578 403 578 385 z "},"B":{"ha":731,"x_min":56,"x_max":674,"o":"m 674 183 q 649 92 674 133 q 582 25 624 50 q 490 0 540 0 l 119 0 q 74 19 93 0 q 56 64 56 38 l 56 875 q 74 921 56 903 q 119 939 93 939 l 471 939 q 563 914 522 939 q 629 847 604 889 q 654 754 654 806 l 654 589 q 640 519 654 551 q 643 489 633 504 q 674 386 674 443 l 674 183 m 490 589 l 490 754 q 484 768 490 763 q 471 774 478 774 l 240 774 q 222 756 222 774 l 222 589 q 240 571 222 571 l 471 571 q 484 576 478 571 q 490 589 490 582 m 508 183 l 508 386 q 490 406 508 406 l 240 406 q 222 388 222 406 l 222 182 q 240 164 222 164 l 490 164 q 503 170 497 164 q 508 183 508 176 z "},"C":{"ha":731,"x_min":56,"x_max":674,"o":"m 674 183 q 649 92 674 133 q 582 25 624 50 q 490 0 540 0 l 240 0 q 148 25 190 0 q 81 92 106 50 q 56 183 56 133 l 56 754 q 81 847 56 806 q 148 914 106 889 q 240 939 190 939 l 490 939 q 582 914 540 939 q 649 847 624 889 q 674 754 674 806 l 674 717 q 656 672 674 690 q 610 654 638 654 l 572 654 q 527 672 546 654 q 508 717 508 690 l 508 754 q 490 774 508 774 l 240 774 q 222 754 222 774 l 222 183 q 228 170 222 176 q 240 164 233 164 l 490 164 q 503 170 497 164 q 508 183 508 176 l 508 225 q 527 270 508 251 q 572 289 546 289 l 610 289 q 656 270 638 289 q 674 225 674 251 l 674 183 z "},"Ç":{"ha":731,"x_min":56,"x_max":674,"o":"m 674 156 q 628 45 674 90 q 519 0 583 0 l 456 0 q 443 -12 443 0 q 456 -25 443 -25 l 479 -25 q 573 -64 535 -25 q 611 -158 611 -103 l 611 -247 q 573 -342 611 -303 q 479 -381 535 -381 l 340 -381 q 295 -362 314 -381 q 276 -317 276 -343 l 276 -279 q 295 -234 276 -253 q 340 -215 314 -215 l 433 -215 q 446 -203 446 -215 q 433 -190 446 -190 l 342 -190 q 297 -172 315 -190 q 278 -126 278 -153 l 278 -18 q 260 0 278 0 l 211 0 q 101 45 147 0 q 56 156 56 90 l 56 785 q 77 863 56 828 q 133 918 99 897 q 211 939 168 939 l 519 939 q 597 918 563 939 q 653 863 632 897 q 674 785 674 828 l 674 656 q 656 611 674 629 q 610 593 638 593 l 572 593 q 527 611 546 593 q 508 656 508 629 l 508 756 q 490 775 508 775 l 240 775 q 222 756 222 775 l 222 183 q 240 164 222 164 l 490 164 q 508 183 508 164 l 508 283 q 527 328 508 310 q 572 347 546 347 l 610 347 q 656 328 638 347 q 674 283 674 310 l 674 156 z "},"D":{"ha":731,"x_min":56,"x_max":674,"o":"m 674 183 q 649 92 674 133 q 582 25 624 50 q 490 0 540 0 l 119 0 q 74 19 93 0 q 56 64 56 38 l 56 875 q 74 921 56 903 q 119 939 93 939 l 490 939 q 582 914 540 939 q 649 847 624 889 q 674 754 674 806 l 674 183 m 508 183 l 508 754 q 490 774 508 774 l 240 774 q 222 756 222 774 l 222 182 q 240 164 222 164 l 490 164 q 503 170 497 164 q 508 183 508 176 z "},"Ð":{"ha":807,"x_min":54,"x_max":753,"o":"m 753 183 q 728 92 753 133 q 661 25 703 50 q 568 0 619 0 l 199 0 q 153 19 172 0 q 135 64 135 38 l 135 369 q 117 386 135 386 q 73 406 92 388 q 54 450 54 424 l 54 489 q 73 533 54 514 q 117 551 92 551 q 135 571 135 551 l 135 875 q 153 921 135 903 q 199 939 172 939 l 568 939 q 661 914 619 939 q 728 847 703 889 q 753 754 753 806 l 753 183 m 586 183 l 586 754 q 568 774 586 774 l 318 774 q 300 756 300 774 l 300 571 q 318 551 300 551 q 362 533 343 551 q 381 489 381 514 l 381 450 q 362 406 381 424 q 318 386 343 388 q 300 369 300 386 l 300 182 q 318 164 300 164 l 568 164 q 581 170 575 164 q 586 183 586 176 z "},"E":{"ha":714,"x_min":56,"x_max":658,"o":"m 658 64 q 640 19 658 38 q 596 0 621 0 l 118 0 q 74 19 93 0 q 56 64 56 38 l 56 875 q 74 921 56 903 q 118 939 93 939 l 596 939 q 640 921 621 939 q 658 875 658 903 l 658 838 q 640 792 658 811 q 596 774 621 774 l 238 774 q 221 756 221 774 l 221 571 q 238 551 221 551 l 546 551 q 592 533 574 551 q 610 489 610 515 l 610 450 q 592 405 610 424 q 546 386 574 386 l 238 386 q 221 369 221 386 l 221 182 q 238 164 221 164 l 596 164 q 640 146 621 164 q 658 100 658 128 l 658 64 z "},"É":{"ha":714,"x_min":56,"x_max":658,"o":"m 454 1133 l 422 1036 q 398 1004 415 1017 q 361 992 381 992 l 321 992 q 269 1019 286 992 q 260 1075 250 1043 l 292 1174 q 316 1205 299 1193 q 353 1217 333 1217 l 393 1217 q 444 1190 426 1217 q 454 1133 464 1165 m 658 64 q 640 19 658 38 q 596 0 621 0 l 119 0 q 74 19 93 0 q 56 64 56 38 l 56 875 q 74 920 56 903 q 119 938 93 938 l 596 938 q 640 920 621 938 q 658 875 658 903 l 658 838 q 640 792 658 811 q 596 774 621 774 l 238 774 q 221 756 221 774 l 221 571 q 238 551 221 551 l 546 551 q 592 533 574 551 q 610 489 610 515 l 610 450 q 592 405 610 424 q 546 386 574 386 l 238 386 q 221 369 221 386 l 221 182 q 238 164 221 164 l 596 164 q 640 146 621 164 q 658 100 658 128 l 658 64 z "},"Ê":{"ha":714,"x_min":56,"x_max":658,"o":"m 556 1024 q 501 992 538 992 l 457 992 q 403 1024 421 992 l 394 1036 q 369 1053 388 1053 l 344 1053 q 319 1036 326 1053 l 311 1024 q 257 992 293 992 l 213 992 q 158 1024 176 992 q 158 1088 140 1056 l 214 1185 q 268 1217 232 1217 l 446 1217 q 500 1185 482 1217 l 556 1088 q 556 1024 574 1056 m 658 64 q 640 19 658 38 q 594 0 621 0 l 119 0 q 74 19 93 0 q 56 64 56 38 l 56 875 q 74 920 56 903 q 119 938 93 938 l 594 938 q 640 920 621 938 q 658 875 658 903 l 658 838 q 640 792 658 811 q 594 774 621 774 l 238 774 q 221 756 221 774 l 221 571 q 238 551 221 551 l 546 551 q 592 533 574 551 q 610 489 610 515 l 610 450 q 592 405 610 424 q 546 386 574 386 l 238 386 q 221 369 221 386 l 221 182 q 238 164 221 164 l 594 164 q 640 146 621 164 q 658 100 658 128 l 658 64 z "},"Ë":{"ha":714,"x_min":56,"x_max":658,"o":"m 582 1096 q 551 1022 582 1053 q 478 990 521 990 q 404 1022 435 990 q 374 1096 374 1053 q 404 1169 374 1139 q 478 1200 435 1200 q 551 1169 521 1200 q 582 1096 582 1139 m 340 1096 q 310 1022 340 1053 q 236 990 281 990 q 163 1022 193 990 q 132 1096 132 1053 q 163 1169 132 1139 q 236 1200 193 1200 q 310 1169 281 1200 q 340 1096 340 1139 m 658 64 q 640 19 658 38 q 596 0 621 0 l 118 0 q 74 19 93 0 q 56 64 56 38 l 56 875 q 74 921 56 903 q 118 939 93 939 l 596 939 q 640 921 621 939 q 658 875 658 903 l 658 838 q 640 792 658 811 q 596 774 621 774 l 238 774 q 221 756 221 774 l 221 571 q 238 551 221 551 l 546 551 q 592 533 574 551 q 610 489 610 515 l 610 450 q 592 405 610 424 q 546 386 574 386 l 238 386 q 221 369 221 386 l 221 182 q 238 164 221 164 l 596 164 q 640 146 621 164 q 658 100 658 128 l 658 64 z "},"È":{"ha":714,"x_min":56,"x_max":658,"o":"m 440 1076 q 433 1019 451 1044 q 382 992 413 992 l 342 992 q 303 1004 319 992 q 281 1036 288 1017 l 249 1133 q 257 1190 240 1164 q 308 1217 276 1217 l 349 1217 q 386 1205 369 1217 q 408 1174 403 1193 l 440 1076 m 658 64 q 640 19 658 38 q 596 0 621 0 l 119 0 q 74 19 93 0 q 56 64 56 38 l 56 875 q 74 921 56 903 q 119 939 93 939 l 596 939 q 640 921 621 939 q 658 875 658 903 l 658 838 q 640 792 658 811 q 596 774 621 774 l 238 774 q 221 756 221 774 l 221 571 q 238 551 221 551 l 546 551 q 592 533 574 551 q 610 489 610 515 l 610 450 q 592 405 610 424 q 546 386 574 386 l 238 386 q 221 369 221 386 l 221 182 q 238 164 221 164 l 596 164 q 640 146 621 164 q 658 100 658 128 l 658 64 z "},"F":{"ha":714,"x_min":56,"x_max":658,"o":"m 658 838 q 640 792 658 811 q 596 774 621 774 l 238 774 q 221 756 221 774 l 221 571 q 238 551 221 551 l 546 551 q 592 533 574 551 q 610 489 610 515 l 610 450 q 592 405 610 424 q 546 386 574 386 l 238 386 q 221 369 221 386 l 221 64 q 202 19 221 38 q 157 0 183 0 l 118 0 q 74 19 93 0 q 56 64 56 38 l 56 875 q 74 921 56 903 q 118 939 93 939 l 596 939 q 640 921 621 939 q 658 875 658 903 l 658 838 z "},"G":{"ha":749,"x_min":57,"x_max":692,"o":"m 692 183 q 667 92 692 133 q 600 25 642 50 q 508 0 558 0 l 242 0 q 149 25 192 0 q 82 92 107 50 q 57 183 57 133 l 57 754 q 82 847 57 806 q 149 914 107 889 q 242 939 192 939 l 508 939 q 600 914 558 939 q 667 847 642 889 q 692 754 692 806 l 692 717 q 673 672 692 690 q 628 654 654 654 l 590 654 q 545 672 564 654 q 526 717 526 690 l 526 754 q 508 774 526 774 l 242 774 q 228 768 235 774 q 222 754 222 763 l 222 183 q 228 170 222 176 q 242 164 235 164 l 508 164 q 521 170 515 164 q 526 183 526 176 l 526 369 q 510 386 526 386 l 411 386 q 366 405 385 386 q 347 450 347 424 l 347 489 q 366 533 347 515 q 411 551 385 551 l 628 551 q 673 533 654 551 q 692 489 692 515 l 692 183 z "},"H":{"ha":731,"x_min":56,"x_max":674,"o":"m 674 64 q 656 19 674 38 q 610 0 638 0 l 572 0 q 527 19 546 0 q 508 64 508 38 l 508 369 q 490 386 508 386 l 240 386 q 222 369 222 386 l 222 64 q 203 19 222 38 q 158 0 185 0 l 119 0 q 74 19 93 0 q 56 64 56 38 l 56 875 q 74 921 56 903 q 119 939 93 939 l 158 939 q 203 921 185 939 q 222 875 222 903 l 222 571 q 240 551 222 551 l 490 551 q 508 571 508 551 l 508 875 q 527 921 508 903 q 572 939 546 939 l 610 939 q 656 921 638 939 q 674 875 674 903 l 674 64 z "},"I":{"ha":279,"x_min":57,"x_max":222,"o":"m 222 64 q 203 19 222 38 q 158 0 185 0 l 121 0 q 76 19 94 0 q 57 64 57 38 l 57 875 q 76 921 57 903 q 121 939 94 939 l 158 939 q 203 921 185 939 q 222 875 222 903 l 222 64 z "},"Í":{"ha":322,"x_min":50,"x_max":261,"o":"m 253 1133 l 221 1036 q 199 1004 215 1017 q 160 992 182 992 l 119 992 q 68 1019 89 992 q 61 1075 50 1044 l 93 1174 q 115 1205 99 1193 q 153 1217 132 1217 l 193 1217 q 244 1190 225 1217 q 253 1133 261 1164 m 222 64 q 203 19 222 38 q 158 0 185 0 l 119 0 q 75 19 93 0 q 57 64 57 38 l 57 875 q 75 920 57 903 q 119 938 93 938 l 158 938 q 203 920 185 938 q 222 875 222 903 l 222 64 z "},"Î":{"ha":529,"x_min":47,"x_max":482,"o":"m 464 1024 q 408 992 443 992 l 364 992 q 310 1024 328 992 l 301 1036 q 276 1053 294 1053 l 253 1053 q 226 1036 236 1053 l 219 1024 q 164 992 201 992 l 119 992 q 65 1024 83 992 q 65 1088 47 1054 l 121 1185 q 176 1217 139 1217 l 353 1217 q 407 1185 389 1217 l 464 1088 q 464 1024 482 1056 m 347 64 q 328 19 347 38 q 283 0 310 0 l 246 0 q 201 19 219 0 q 182 64 182 38 l 182 875 q 201 920 182 903 q 246 938 219 938 l 283 938 q 328 920 310 938 q 347 875 347 903 l 347 64 z "},"Ï":{"ha":561,"x_min":56,"x_max":504,"o":"m 504 1096 q 474 1022 504 1053 q 401 990 444 990 q 328 1022 358 990 q 297 1096 297 1053 q 328 1169 297 1138 q 401 1200 358 1200 q 474 1169 444 1200 q 504 1096 504 1138 m 264 1096 q 233 1022 264 1053 q 160 990 203 990 q 86 1022 117 990 q 56 1096 56 1053 q 86 1169 56 1138 q 160 1200 117 1200 q 233 1169 203 1200 q 264 1096 264 1138 m 363 64 q 344 19 363 38 q 299 0 325 0 l 263 0 q 217 19 236 0 q 199 64 199 38 l 199 875 q 217 921 199 903 q 263 939 236 939 l 299 939 q 344 921 325 939 q 363 875 363 903 l 363 64 z "},"Ì":{"ha":322,"x_min":50,"x_max":264,"o":"m 254 1076 q 244 1019 264 1043 q 193 992 228 992 l 153 992 q 117 1004 133 992 q 93 1036 100 1017 l 61 1133 q 71 1190 50 1165 q 121 1217 89 1217 l 161 1217 q 222 1174 207 1217 l 254 1076 m 257 64 q 238 19 257 38 q 193 0 219 0 l 156 0 q 111 19 129 0 q 93 64 93 38 l 93 875 q 111 921 93 903 q 156 939 129 939 l 193 939 q 238 921 219 939 q 257 875 257 903 l 257 64 z "},"J":{"ha":731,"x_min":56,"x_max":674,"o":"m 674 183 q 649 92 674 133 q 582 25 624 50 q 490 0 540 0 l 240 0 q 148 25 190 0 q 81 92 106 50 q 56 183 56 133 l 56 283 q 74 328 56 310 q 119 347 93 347 l 158 347 q 203 328 185 347 q 222 283 222 310 l 222 183 q 228 170 222 176 q 240 164 233 164 l 490 164 q 503 170 497 164 q 508 183 508 176 l 508 875 q 527 921 508 903 q 572 939 546 939 l 610 939 q 656 921 638 939 q 674 875 674 903 l 674 183 z "},"K":{"ha":715,"x_min":57,"x_max":660,"o":"m 653 901 q 658 866 660 885 q 642 832 656 847 l 324 482 q 324 456 311 469 l 642 107 q 658 74 656 93 q 653 39 660 56 q 630 10 646 21 q 596 0 614 0 l 543 0 q 497 21 518 0 l 235 310 q 227 312 232 314 q 222 306 222 310 l 222 64 q 203 19 222 38 q 158 0 185 0 l 119 0 q 75 19 93 0 q 57 64 57 38 l 57 875 q 75 921 57 903 q 119 939 93 939 l 158 939 q 203 921 185 939 q 222 875 222 903 l 222 635 q 227 628 222 629 q 235 629 232 626 l 497 918 q 544 939 518 939 l 596 939 q 653 901 636 939 z "},"L":{"ha":714,"x_min":56,"x_max":658,"o":"m 658 64 q 640 19 658 38 q 596 0 621 0 l 118 0 q 74 19 93 0 q 56 64 56 38 l 56 875 q 74 921 56 903 q 118 939 93 939 l 157 939 q 202 921 183 939 q 221 875 221 903 l 221 182 q 238 164 221 164 l 596 164 q 640 146 621 164 q 658 100 658 128 l 658 64 z "},"Ł":{"ha":792,"x_min":57,"x_max":735,"o":"m 735 64 q 717 19 735 38 q 672 0 699 0 l 196 0 q 151 19 169 0 q 132 64 132 38 l 132 335 q 115 353 132 350 q 85 364 99 353 q 57 415 57 381 l 57 457 q 99 515 57 501 l 115 522 q 132 546 132 526 l 132 875 q 151 921 132 903 q 196 939 169 939 l 233 939 q 278 921 260 939 q 297 875 297 903 l 297 606 q 314 588 297 590 q 344 576 332 585 q 372 525 372 558 l 372 483 q 360 448 372 464 q 329 425 349 432 l 314 418 q 297 394 297 414 l 297 183 q 315 165 297 165 l 672 165 q 717 147 699 165 q 735 101 735 128 l 735 64 z "},"M":{"ha":849,"x_min":56,"x_max":792,"o":"m 792 64 q 774 19 792 38 q 728 0 756 0 l 690 0 q 645 19 664 0 q 626 64 626 38 l 626 482 q 622 489 626 488 q 614 486 617 490 l 481 211 q 463 192 476 200 q 437 178 449 183 q 425 174 425 174 q 368 211 382 174 l 235 486 q 228 489 233 490 q 222 482 222 488 l 222 64 q 203 19 222 38 q 158 0 185 0 l 119 0 q 74 19 93 0 q 56 64 56 38 l 56 875 q 74 921 56 903 q 119 939 93 939 l 160 939 q 217 903 199 939 q 245 844 224 888 q 296 740 267 800 q 356 615 325 681 q 417 489 388 549 q 424 483 419 483 q 432 489 429 483 l 631 903 q 689 939 649 939 l 728 939 q 774 921 756 939 q 792 875 792 903 l 792 64 z "},"N":{"ha":749,"x_min":57,"x_max":692,"o":"m 692 64 q 673 19 692 38 q 628 0 654 0 l 588 0 q 532 32 550 0 l 236 544 q 228 548 233 550 q 222 542 222 546 l 222 64 q 203 19 222 38 q 160 0 185 0 l 121 0 q 76 19 94 0 q 57 64 57 38 l 57 875 q 76 921 57 903 q 121 939 94 939 l 161 939 q 217 907 199 939 l 513 394 q 522 390 517 389 q 526 397 526 392 l 526 875 q 545 921 526 903 q 590 939 564 939 l 628 939 q 673 921 654 939 q 692 875 692 903 l 692 64 z "},"Ñ":{"ha":749,"x_min":57,"x_max":692,"o":"m 600 1185 q 600 1121 618 1153 l 543 1024 q 488 992 525 992 l 440 992 q 418 997 428 992 l 329 1032 q 301 1024 314 1039 q 247 992 283 992 l 204 992 q 149 1024 167 992 q 149 1088 131 1056 l 206 1185 q 260 1217 224 1217 l 307 1217 q 329 1213 319 1217 l 419 1175 q 446 1185 438 1169 q 501 1217 464 1217 l 544 1217 q 600 1185 582 1217 m 692 64 q 673 19 692 38 q 628 0 654 0 l 588 0 q 532 32 549 0 l 236 544 q 228 548 233 550 q 222 542 222 546 l 222 64 q 203 19 222 38 q 160 0 185 0 l 121 0 q 76 19 94 0 q 57 64 57 38 l 57 875 q 76 920 57 903 q 121 938 94 938 l 161 938 q 217 907 199 938 l 513 394 q 522 390 517 389 q 526 397 526 392 l 526 875 q 545 920 526 903 q 589 938 564 938 l 628 938 q 673 920 654 938 q 692 875 692 903 l 692 64 z "},"O":{"ha":749,"x_min":57,"x_max":692,"o":"m 692 183 q 667 92 692 133 q 600 25 642 50 q 508 0 558 0 l 242 0 q 149 25 192 0 q 82 92 107 50 q 57 183 57 133 l 57 754 q 82 847 57 806 q 149 914 107 889 q 242 939 192 939 l 508 939 q 600 914 558 939 q 667 847 642 889 q 692 754 692 806 l 692 183 m 526 183 l 526 754 q 508 774 526 774 l 242 774 q 228 768 235 774 q 222 754 222 763 l 222 183 q 228 170 222 176 q 242 164 235 164 l 508 164 q 521 170 515 164 q 526 183 526 176 z "},"Ó":{"ha":749,"x_min":57,"x_max":692,"o":"m 471 1133 l 439 1036 q 415 1004 432 1017 q 379 992 399 992 l 339 992 q 288 1019 304 992 q 278 1075 267 1044 l 310 1174 q 371 1217 325 1217 l 411 1217 q 461 1190 443 1217 q 471 1133 482 1165 m 692 183 q 667 92 692 133 q 600 25 642 50 q 508 0 558 0 l 242 0 q 149 25 192 0 q 82 92 107 50 q 57 183 57 133 l 57 754 q 82 847 57 806 q 149 914 107 889 q 242 939 192 939 l 508 939 q 600 914 558 939 q 667 847 642 889 q 692 754 692 806 l 692 183 m 526 183 l 526 754 q 508 774 526 774 l 242 774 q 228 768 235 774 q 222 754 222 763 l 222 183 q 228 169 222 175 q 242 164 235 164 l 508 164 q 526 183 526 164 z "},"Ô":{"ha":749,"x_min":57,"x_max":692,"o":"m 574 1024 q 519 992 556 992 l 475 992 q 419 1024 440 992 l 413 1036 q 386 1053 403 1053 l 363 1053 q 338 1036 344 1053 l 329 1024 q 275 992 311 992 l 231 992 q 176 1024 194 992 q 176 1088 157 1054 l 232 1185 q 286 1217 250 1217 l 464 1217 q 518 1185 500 1217 l 574 1088 q 574 1024 592 1054 m 692 183 q 667 92 692 133 q 600 25 642 50 q 508 0 558 0 l 242 0 q 149 25 192 0 q 82 92 107 50 q 57 183 57 133 l 57 754 q 82 847 57 806 q 149 913 107 888 q 242 938 192 938 l 508 938 q 600 913 558 938 q 667 847 642 888 q 692 754 692 806 l 692 183 m 526 183 l 526 754 q 508 774 526 774 l 242 774 q 228 768 235 774 q 222 754 222 763 l 222 183 q 228 169 222 175 q 242 164 235 164 l 508 164 q 526 183 526 164 z "},"Ö":{"ha":749,"x_min":57,"x_max":692,"o":"m 599 1096 q 569 1022 599 1053 q 496 990 539 990 q 422 1022 453 990 q 392 1096 392 1053 q 422 1169 392 1139 q 496 1200 453 1200 q 569 1169 539 1200 q 599 1096 599 1139 m 358 1096 q 328 1022 358 1053 q 254 990 297 990 q 181 1022 211 990 q 150 1096 150 1053 q 181 1169 150 1139 q 254 1200 211 1200 q 328 1169 297 1200 q 358 1096 358 1139 m 692 183 q 667 92 692 133 q 600 25 642 50 q 508 0 558 0 l 242 0 q 149 25 192 0 q 82 92 107 50 q 57 183 57 133 l 57 754 q 82 847 57 806 q 149 914 107 889 q 242 939 192 939 l 508 939 q 600 914 558 939 q 667 847 642 889 q 692 754 692 806 l 692 183 m 526 183 l 526 754 q 508 774 526 774 l 242 774 q 228 768 235 774 q 222 754 222 763 l 222 183 q 228 170 222 176 q 242 164 235 164 l 508 164 q 521 170 515 164 q 526 183 526 176 z "},"Ò":{"ha":749,"x_min":57,"x_max":692,"o":"m 471 1076 q 461 1019 482 1043 q 411 992 444 992 l 371 992 q 333 1004 350 992 q 310 1036 317 1017 l 278 1133 q 288 1190 267 1163 q 339 1217 306 1217 l 379 1217 q 439 1174 424 1217 l 471 1076 m 692 183 q 667 92 692 133 q 600 25 642 50 q 508 0 558 0 l 242 0 q 149 25 192 0 q 82 92 107 50 q 57 183 57 133 l 57 754 q 82 847 57 806 q 149 914 107 889 q 242 939 192 939 l 508 939 q 600 914 558 939 q 667 847 642 889 q 692 754 692 806 l 692 183 m 526 183 l 526 754 q 508 774 526 774 l 242 774 q 228 768 235 774 q 222 754 222 763 l 222 183 q 228 170 222 176 q 242 164 235 164 l 508 164 q 521 170 515 164 q 526 183 526 176 z "},"Ø":{"ha":801,"x_min":46,"x_max":756,"o":"m 739 926 l 706 863 q 704 831 697 849 q 722 754 722 794 l 722 183 q 697 92 722 133 q 630 25 672 50 q 536 0 588 0 l 264 0 q 236 -14 246 0 l 217 -51 q 195 -76 211 -67 q 161 -85 179 -85 l 118 -85 q 64 -53 85 -85 q 63 10 46 -22 l 100 79 q 103 113 108 94 q 88 183 88 147 l 88 754 q 113 847 88 806 q 179 914 138 889 q 271 939 221 939 l 542 939 q 567 954 560 936 l 585 986 q 640 1019 600 1019 l 683 1019 q 738 989 719 1019 q 739 926 756 958 m 461 757 q 463 769 465 764 q 454 774 460 774 l 271 774 q 253 754 253 774 l 253 393 q 258 386 253 388 q 265 390 264 385 l 461 757 m 556 183 l 556 554 q 551 563 556 561 q 543 558 546 564 l 342 181 q 342 169 339 175 q 351 164 346 164 l 536 164 q 550 170 544 164 q 556 183 556 176 z "},"Õ":{"ha":749,"x_min":57,"x_max":692,"o":"m 600 1185 q 600 1121 618 1153 l 543 1024 q 489 992 525 992 l 440 992 q 418 997 428 992 l 329 1032 q 301 1024 314 1039 q 247 992 283 992 l 204 992 q 149 1024 167 992 q 149 1088 131 1054 l 206 1185 q 260 1217 224 1217 l 307 1217 q 329 1213 319 1217 l 419 1175 q 446 1185 438 1169 q 501 1217 464 1217 l 544 1217 q 600 1185 582 1217 m 692 183 q 667 92 692 133 q 600 25 642 50 q 508 0 558 0 l 242 0 q 149 25 192 0 q 82 92 107 50 q 57 183 57 133 l 57 754 q 82 847 57 806 q 149 914 107 889 q 242 939 192 939 l 508 939 q 600 914 558 939 q 667 847 642 889 q 692 754 692 806 l 692 183 m 526 183 l 526 754 q 508 774 526 774 l 242 774 q 228 768 235 774 q 222 754 222 763 l 222 183 q 228 170 222 176 q 242 164 235 164 l 508 164 q 521 170 515 164 q 526 183 526 176 z "},"Œ":{"ha":1186,"x_min":57,"x_max":1129,"o":"m 1129 64 q 1110 19 1129 38 q 1065 0 1092 0 l 242 0 q 149 25 192 0 q 82 92 107 50 q 57 183 57 133 l 57 754 q 82 847 57 806 q 149 914 107 889 q 242 939 192 939 l 1065 939 q 1110 921 1092 939 q 1129 875 1129 903 l 1129 838 q 1110 792 1129 811 q 1065 774 1092 774 l 710 774 q 692 756 692 774 l 692 571 q 710 551 692 551 l 1018 551 q 1062 533 1044 551 q 1079 489 1079 515 l 1079 450 q 1062 405 1079 424 q 1018 386 1044 386 l 710 386 q 692 369 692 386 l 692 182 q 710 164 692 164 l 1065 164 q 1110 146 1092 164 q 1129 100 1129 128 l 1129 64 m 526 183 l 526 756 q 508 774 526 774 l 242 774 q 222 754 222 774 l 222 183 q 228 170 222 176 q 242 164 233 164 l 508 164 q 526 183 526 164 z "},"P":{"ha":731,"x_min":54,"x_max":675,"o":"m 675 551 q 651 460 675 501 q 585 393 626 418 q 492 368 543 368 l 236 368 q 219 350 219 368 l 219 64 q 201 19 219 38 q 156 0 182 0 l 118 0 q 73 19 92 0 q 54 64 54 38 l 54 875 q 73 921 54 903 q 118 939 92 939 l 492 939 q 585 914 543 939 q 651 847 626 889 q 675 754 675 806 l 675 551 m 511 551 l 511 754 q 492 774 511 774 l 236 774 q 219 756 219 774 l 219 551 q 236 533 219 533 l 492 533 q 511 551 511 533 z "},"Þ":{"ha":731,"x_min":54,"x_max":675,"o":"m 499 756 q 588 731 549 756 q 651 664 628 706 q 675 572 675 622 l 675 368 q 651 276 675 318 q 588 209 628 235 q 499 183 549 183 l 236 183 q 219 167 219 183 l 219 64 q 201 19 219 38 q 156 0 182 0 l 118 0 q 73 19 92 0 q 54 64 54 38 l 54 875 q 73 921 54 903 q 118 939 92 939 l 156 939 q 201 921 182 939 q 219 875 219 903 l 219 774 q 236 756 219 756 l 499 756 m 511 369 l 511 571 q 492 589 511 589 l 236 589 q 219 572 219 589 l 219 368 q 236 350 219 350 l 492 350 q 511 369 511 350 z "},"Q":{"ha":749,"x_min":57,"x_max":692,"o":"m 692 64 q 673 19 692 38 q 628 0 654 0 l 242 0 q 149 25 192 0 q 82 92 107 50 q 57 183 57 133 l 57 754 q 82 847 57 806 q 149 914 107 889 q 242 939 192 939 l 508 939 q 600 914 558 939 q 667 847 642 889 q 692 754 692 806 l 692 64 m 526 296 l 526 754 q 508 774 526 774 l 242 774 q 228 768 235 774 q 222 754 222 763 l 222 183 q 228 170 222 176 q 242 164 235 164 l 393 164 q 399 169 397 164 q 397 178 401 174 l 329 246 q 311 290 311 264 l 311 343 q 322 380 311 364 q 351 403 333 396 q 388 406 369 410 q 419 388 407 403 l 514 290 q 522 289 518 288 q 526 296 526 290 z "},"R":{"ha":749,"x_min":60,"x_max":699,"o":"m 685 88 q 681 29 699 56 q 628 0 660 0 l 586 0 q 551 11 568 0 q 526 39 533 22 l 396 351 q 371 368 389 368 l 242 368 q 224 350 224 368 l 224 64 q 205 19 224 38 q 160 0 186 0 l 121 0 q 77 19 94 0 q 60 64 60 38 l 60 875 q 77 921 60 903 q 121 939 94 939 l 497 939 q 589 914 547 939 q 656 847 631 889 q 681 754 681 806 l 681 551 q 652 453 681 497 q 578 386 624 410 q 569 377 572 385 q 571 363 567 369 l 685 88 m 515 551 l 515 754 q 497 774 515 774 l 242 774 q 224 756 224 774 l 224 551 q 242 533 224 533 l 497 533 q 515 551 515 533 z "},"S":{"ha":749,"x_min":57,"x_max":692,"o":"m 692 183 q 667 92 692 133 q 600 25 642 50 q 508 0 558 0 l 242 0 q 149 25 192 0 q 82 92 107 50 q 57 183 57 133 l 57 225 q 76 270 57 251 q 121 289 94 289 l 160 289 q 203 270 185 289 q 222 225 222 251 l 222 183 q 228 170 222 176 q 242 164 235 164 l 508 164 q 521 170 515 164 q 526 183 526 176 l 526 310 q 513 329 526 325 l 179 454 q 90 522 124 474 q 57 629 57 571 l 57 754 q 82 847 57 806 q 149 914 107 889 q 242 939 192 939 l 508 939 q 600 914 558 939 q 667 847 642 889 q 692 754 692 806 l 692 717 q 673 672 692 690 q 628 654 654 654 l 590 654 q 545 672 564 654 q 526 717 526 690 l 526 754 q 508 774 526 774 l 242 774 q 228 768 235 774 q 222 754 222 763 l 222 629 q 236 608 222 613 l 571 483 q 658 415 625 464 q 692 310 692 367 l 692 183 z "},"Š":{"ha":749,"x_min":57,"x_max":692,"o":"m 574 1121 l 518 1024 q 464 992 500 992 l 286 992 q 232 1024 250 992 l 176 1121 q 176 1185 157 1154 q 231 1217 194 1217 l 275 1217 q 329 1185 311 1217 l 338 1172 q 363 1157 344 1157 l 386 1157 q 413 1172 404 1157 l 419 1185 q 475 1217 440 1217 l 519 1217 q 574 1185 556 1217 q 574 1121 592 1154 m 692 183 q 667 92 692 133 q 600 25 642 50 q 508 0 558 0 l 242 0 q 149 25 192 0 q 82 92 107 50 q 57 183 57 133 l 57 283 q 76 328 57 310 q 121 347 94 347 l 160 347 q 203 328 185 347 q 222 283 222 310 l 222 183 q 228 170 222 176 q 242 164 235 164 l 508 164 q 521 170 515 164 q 526 183 526 176 l 526 310 q 513 329 526 325 l 179 454 q 90 522 124 474 q 57 629 57 571 l 57 754 q 82 847 57 806 q 149 914 107 889 q 242 939 192 939 l 508 939 q 600 914 558 939 q 667 847 642 889 q 692 754 692 806 l 692 654 q 673 610 692 628 q 628 593 654 593 l 590 593 q 545 610 564 593 q 526 654 526 628 l 526 754 q 508 774 526 774 l 242 774 q 228 768 235 774 q 222 754 222 763 l 222 629 q 236 608 222 613 l 571 483 q 658 415 625 464 q 692 310 692 367 l 692 183 z "},"T":{"ha":731,"x_min":54,"x_max":675,"o":"m 675 838 q 657 792 675 811 q 611 774 639 774 l 465 774 q 447 756 447 774 l 447 64 q 428 19 447 38 q 383 0 410 0 l 347 0 q 302 19 321 0 q 283 64 283 38 l 283 756 q 265 774 283 774 l 118 774 q 73 792 92 774 q 54 838 54 811 l 54 875 q 73 921 54 903 q 118 939 92 939 l 611 939 q 657 921 639 939 q 675 875 675 903 l 675 838 z "},"U":{"ha":731,"x_min":56,"x_max":674,"o":"m 674 183 q 649 92 674 133 q 582 25 624 50 q 490 0 540 0 l 240 0 q 148 25 190 0 q 81 92 106 50 q 56 183 56 133 l 56 875 q 74 921 56 903 q 119 939 93 939 l 158 939 q 203 921 185 939 q 222 875 222 903 l 222 183 q 228 170 222 176 q 240 164 233 164 l 490 164 q 503 170 497 164 q 508 183 508 176 l 508 875 q 527 921 508 903 q 572 939 546 939 l 610 939 q 656 921 638 939 q 674 875 674 903 l 674 183 z "},"Ú":{"ha":731,"x_min":56,"x_max":674,"o":"m 461 1133 l 429 1036 q 406 1004 422 1017 q 369 992 389 992 l 329 992 q 278 1019 294 992 q 268 1075 258 1043 l 300 1174 q 361 1217 315 1217 l 401 1217 q 451 1190 433 1217 q 461 1133 472 1165 m 674 183 q 649 92 674 133 q 582 25 624 50 q 490 0 540 0 l 240 0 q 148 25 190 0 q 81 92 106 50 q 56 183 56 133 l 56 875 q 74 920 56 903 q 119 938 93 938 l 158 938 q 203 920 185 938 q 222 875 222 903 l 222 183 q 240 164 222 164 l 490 164 q 508 183 508 164 l 508 875 q 527 920 508 903 q 572 938 546 938 l 610 938 q 656 920 638 938 q 674 875 674 903 l 674 183 z "},"Û":{"ha":731,"x_min":56,"x_max":674,"o":"m 564 1024 q 510 992 546 992 l 465 992 q 411 1024 429 992 l 403 1036 q 376 1053 393 1053 l 353 1053 q 328 1036 335 1053 l 319 1024 q 265 992 301 992 l 221 992 q 167 1024 185 992 q 167 1088 149 1054 l 222 1185 q 276 1217 240 1217 l 454 1217 q 508 1185 490 1217 l 564 1088 q 564 1024 582 1054 m 674 183 q 649 92 674 133 q 582 25 624 50 q 490 0 540 0 l 240 0 q 148 25 190 0 q 81 92 106 50 q 56 183 56 133 l 56 875 q 74 920 56 903 q 119 938 93 938 l 158 938 q 203 920 185 938 q 222 875 222 903 l 222 183 q 240 164 222 164 l 490 164 q 508 183 508 164 l 508 875 q 527 920 508 903 q 572 938 546 938 l 610 938 q 656 920 638 938 q 674 875 674 903 l 674 183 z "},"Ü":{"ha":731,"x_min":56,"x_max":674,"o":"m 589 1096 q 559 1022 589 1053 q 486 990 529 990 q 413 1022 443 990 q 382 1096 382 1053 q 413 1169 382 1139 q 486 1200 443 1200 q 559 1169 529 1200 q 589 1096 589 1139 m 349 1096 q 318 1022 349 1053 q 244 990 288 990 q 171 1022 201 990 q 140 1096 140 1053 q 171 1169 140 1139 q 244 1200 201 1200 q 318 1169 288 1200 q 349 1096 349 1139 m 674 183 q 649 92 674 133 q 582 25 624 50 q 490 0 540 0 l 240 0 q 148 25 190 0 q 81 92 106 50 q 56 183 56 133 l 56 875 q 74 921 56 903 q 119 939 93 939 l 158 939 q 203 921 185 939 q 222 875 222 903 l 222 183 q 228 170 222 176 q 240 164 233 164 l 490 164 q 503 170 497 164 q 508 183 508 176 l 508 875 q 527 921 508 903 q 572 939 546 939 l 610 939 q 656 921 638 939 q 674 875 674 903 l 674 183 z "},"Ù":{"ha":731,"x_min":56,"x_max":674,"o":"m 461 1075 q 451 1019 472 1043 q 401 992 435 992 l 361 992 q 324 1004 340 992 q 300 1036 307 1017 l 268 1133 q 278 1190 258 1165 q 329 1217 296 1217 l 369 1217 q 429 1174 414 1217 l 461 1075 m 674 183 q 649 92 674 133 q 582 25 624 50 q 490 0 540 0 l 240 0 q 148 25 190 0 q 81 92 106 50 q 56 183 56 133 l 56 875 q 74 921 56 903 q 119 939 93 939 l 158 939 q 203 921 185 939 q 222 875 222 903 l 222 183 q 228 170 222 176 q 240 164 233 164 l 490 164 q 503 170 497 164 q 508 183 508 176 l 508 875 q 527 921 508 903 q 572 939 546 939 l 610 939 q 656 921 638 939 q 674 875 674 903 l 674 183 z "},"V":{"ha":832,"x_min":49,"x_max":783,"o":"m 774 856 l 504 43 q 481 13 499 25 q 444 0 464 0 l 388 0 q 352 13 368 0 q 329 43 336 25 l 60 856 q 68 913 49 886 q 119 939 86 939 l 160 939 q 221 896 206 939 l 408 324 q 424 324 417 314 q 484 509 453 414 q 543 688 515 604 q 589 828 571 772 l 611 896 q 635 927 618 915 q 672 939 653 939 l 713 939 q 764 913 746 939 q 774 856 783 888 z "},"W":{"ha":1032,"x_min":51,"x_max":982,"o":"m 975 861 l 790 50 q 767 14 785 28 q 728 0 750 0 l 678 0 q 640 13 657 0 q 617 44 624 25 l 611 63 q 570 194 593 119 q 522 351 547 269 q 516 357 521 357 q 510 351 511 357 q 472 230 490 290 q 440 121 454 169 q 415 44 425 72 q 392 13 410 26 q 354 0 375 0 l 303 0 q 263 14 281 0 q 242 50 246 28 l 57 861 q 68 915 51 889 q 92 933 79 926 q 119 939 104 939 l 158 939 q 198 925 181 939 q 221 890 215 911 l 333 388 q 340 383 335 383 q 349 388 346 383 q 358 418 349 388 q 382 499 367 449 q 417 613 397 550 q 456 739 436 675 q 478 772 463 758 q 515 785 493 785 q 555 772 539 785 q 576 738 571 758 l 683 388 q 692 383 686 383 q 699 388 697 383 q 735 550 717 469 q 769 700 753 631 q 796 819 785 769 q 811 890 807 869 q 834 925 817 911 q 874 939 851 939 l 913 939 q 940 933 928 939 q 963 915 953 926 q 975 861 982 890 z "},"X":{"ha":714,"x_min":46,"x_max":668,"o":"m 651 844 l 458 486 q 458 454 451 469 l 651 93 q 650 31 668 61 q 594 0 631 0 l 553 0 q 497 33 513 0 l 365 278 q 358 283 364 283 q 349 278 351 283 l 217 33 q 195 9 211 18 q 161 0 179 0 l 118 0 q 64 31 83 0 q 63 93 46 61 l 256 454 q 256 486 263 469 l 63 844 q 64 908 46 879 q 118 939 83 939 l 161 939 q 217 906 199 939 l 349 660 q 357 654 351 654 q 365 660 363 654 l 497 906 q 553 939 515 939 l 596 939 q 650 908 631 939 q 651 844 668 879 z "},"Y":{"ha":828,"x_min":47,"x_max":781,"o":"m 764 907 q 763 842 781 875 l 503 419 q 497 396 497 413 l 497 64 q 478 19 497 38 q 433 0 460 0 l 394 0 q 349 19 368 0 q 331 64 331 38 l 331 397 q 324 419 331 413 l 65 842 q 64 906 47 876 q 119 939 82 939 l 164 939 q 219 908 201 939 q 265 833 235 885 q 333 722 296 782 q 404 607 371 661 q 413 601 407 601 q 424 607 419 601 q 497 727 461 668 q 563 834 533 786 q 608 908 593 882 q 663 939 626 939 l 707 939 q 764 907 746 939 z "},"Ý":{"ha":828,"x_min":47,"x_max":781,"o":"m 510 1133 l 478 1036 q 456 1004 472 1017 q 417 992 439 992 l 376 992 q 326 1019 346 992 q 318 1075 307 1046 l 350 1174 q 411 1217 364 1217 l 450 1217 q 501 1190 482 1217 q 510 1133 518 1164 m 764 906 q 763 842 781 876 l 503 419 q 497 396 497 410 l 497 64 q 478 19 497 38 q 433 0 460 0 l 394 0 q 349 19 368 0 q 331 64 331 38 l 331 397 q 324 419 331 413 l 65 842 q 64 906 47 876 q 119 939 82 939 l 164 939 q 219 908 201 939 l 404 606 q 413 600 407 600 q 424 606 419 600 l 608 908 q 663 939 626 939 l 707 939 q 764 906 746 939 z "},"Ÿ":{"ha":829,"x_min":47,"x_max":782,"o":"m 639 1096 q 609 1022 639 1053 q 535 990 579 990 q 462 1022 492 990 q 432 1096 432 1053 q 462 1169 432 1138 q 535 1200 492 1200 q 609 1169 579 1200 q 639 1096 639 1138 m 397 1096 q 367 1022 397 1053 q 294 990 338 990 q 221 1022 251 990 q 190 1096 190 1053 q 221 1169 190 1138 q 294 1200 251 1200 q 367 1169 338 1200 q 397 1096 397 1138 m 764 906 q 763 842 782 874 l 503 419 q 497 397 497 408 l 497 64 q 478 19 497 38 q 433 0 460 0 l 396 0 q 351 19 369 0 q 332 64 332 38 l 332 397 q 326 419 332 408 l 67 842 q 65 906 47 874 q 121 939 83 939 l 167 939 q 219 908 201 939 l 406 606 q 415 601 408 600 q 424 607 421 601 q 499 729 463 669 q 565 836 535 789 q 610 908 594 883 q 664 939 628 939 l 707 939 q 764 906 746 939 z "},"Z":{"ha":731,"x_min":46,"x_max":685,"o":"m 668 844 l 299 181 q 300 169 297 175 q 308 164 303 164 l 599 164 q 644 146 626 164 q 661 100 661 128 l 661 64 q 644 19 661 38 q 599 0 626 0 l 118 0 q 64 32 81 0 q 63 94 46 63 l 432 758 q 431 769 435 764 q 422 774 428 774 l 129 774 q 84 792 103 774 q 65 838 65 811 l 65 875 q 84 921 65 903 q 129 939 103 939 l 611 939 q 667 907 646 939 q 668 844 685 876 z "},"Ž":{"ha":731,"x_min":44,"x_max":685,"o":"m 564 1122 l 508 1024 q 453 992 490 992 l 276 992 q 222 1024 240 992 l 165 1122 q 165 1185 147 1154 q 221 1217 183 1217 l 264 1217 q 319 1185 301 1217 l 326 1172 q 354 1157 335 1157 l 376 1157 q 403 1172 394 1157 l 411 1185 q 465 1217 429 1217 l 510 1217 q 564 1185 546 1217 q 564 1122 582 1154 m 667 844 l 299 181 q 300 170 297 175 q 308 165 303 165 l 599 165 q 644 147 625 165 q 663 101 663 128 l 663 64 q 644 19 663 38 q 599 0 625 0 l 118 0 q 64 31 82 0 q 63 94 44 64 l 431 758 q 431 769 433 764 q 421 774 428 774 l 129 774 q 84 792 103 774 q 65 838 65 811 l 65 875 q 84 920 65 901 q 129 939 103 939 l 611 939 q 667 907 649 939 q 667 844 685 876 z "},"a":{"ha":615,"x_min":56,"x_max":558,"o":"m 558 156 q 513 45 558 90 q 404 0 468 0 l 211 0 q 101 45 147 0 q 56 156 56 90 l 56 307 q 77 384 56 350 q 133 439 99 418 q 211 460 168 460 l 375 460 q 388 465 382 460 q 394 479 394 471 l 394 535 q 388 549 394 543 q 375 554 382 554 l 211 554 q 166 572 185 554 q 147 617 147 590 l 147 654 q 166 701 147 682 q 211 719 185 719 l 404 719 q 482 699 447 719 q 538 642 517 678 q 558 564 558 607 l 558 156 m 394 182 l 394 278 q 388 290 394 285 q 375 296 382 296 l 240 296 q 227 290 233 296 q 221 278 221 285 l 221 182 q 227 169 221 175 q 240 164 233 164 l 375 164 q 388 169 382 164 q 394 182 394 175 z "},"á":{"ha":615,"x_min":56,"x_max":558,"o":"m 436 914 l 404 817 q 343 774 389 774 l 303 774 q 253 799 271 774 q 243 856 232 828 l 275 954 q 299 985 282 974 q 335 997 315 997 l 375 997 q 426 971 408 997 q 436 914 447 946 m 558 156 q 513 45 558 90 q 404 0 468 0 l 211 0 q 101 45 147 0 q 56 156 56 90 l 56 307 q 77 384 56 350 q 133 439 99 418 q 211 460 168 460 l 375 460 q 388 465 382 460 q 394 479 394 471 l 394 535 q 388 549 394 543 q 375 554 382 554 l 211 554 q 166 572 185 554 q 147 617 147 590 l 147 654 q 166 701 147 682 q 211 719 185 719 l 404 719 q 482 699 447 719 q 538 642 517 678 q 558 564 558 607 l 558 156 m 394 182 l 394 278 q 388 290 394 285 q 375 296 382 296 l 240 296 q 221 278 221 296 l 221 182 q 240 164 221 164 l 375 164 q 388 169 382 164 q 394 182 394 175 z "},"â":{"ha":615,"x_min":56,"x_max":558,"o":"m 522 806 q 468 774 506 774 l 424 774 q 369 806 386 774 l 361 818 q 335 832 353 832 l 311 832 q 286 818 292 832 l 278 806 q 224 774 261 774 l 179 774 q 125 806 142 774 q 125 867 106 836 l 181 967 q 235 997 199 997 l 413 997 q 467 967 449 997 l 522 867 q 522 806 542 836 m 558 156 q 513 45 558 90 q 404 0 468 0 l 211 0 q 101 45 147 0 q 56 156 56 90 l 56 307 q 77 384 56 350 q 133 439 99 418 q 211 460 168 460 l 375 460 q 388 465 382 460 q 394 479 394 471 l 394 535 q 388 549 394 543 q 375 554 382 554 l 211 554 q 166 572 185 554 q 147 617 147 590 l 147 654 q 166 701 147 682 q 211 719 185 719 l 404 719 q 482 699 447 719 q 538 642 517 678 q 558 564 558 607 l 558 156 m 394 182 l 394 278 q 388 290 394 285 q 375 296 382 296 l 240 296 q 227 290 233 296 q 221 278 221 285 l 221 182 q 227 169 221 175 q 240 164 233 164 l 375 164 q 388 169 382 164 q 394 182 394 175 z "},"ä":{"ha":615,"x_min":56,"x_max":558,"o":"m 547 875 q 517 801 547 832 q 444 771 488 771 q 371 801 401 771 q 340 875 340 832 q 371 949 340 919 q 444 979 401 979 q 517 949 488 979 q 547 875 547 919 m 307 875 q 276 801 307 832 q 203 771 246 771 q 129 801 160 771 q 99 875 99 832 q 129 949 99 919 q 203 979 160 979 q 276 949 246 979 q 307 875 307 919 m 558 156 q 513 45 558 90 q 404 0 468 0 l 211 0 q 101 45 147 0 q 56 156 56 90 l 56 307 q 77 384 56 350 q 133 439 99 418 q 211 460 168 460 l 375 460 q 388 465 382 460 q 394 479 394 471 l 394 535 q 388 549 394 543 q 375 554 382 554 l 211 554 q 166 572 185 554 q 147 617 147 590 l 147 654 q 166 701 147 682 q 211 719 185 719 l 404 719 q 482 699 447 719 q 538 642 517 678 q 558 564 558 607 l 558 156 m 394 182 l 394 278 q 388 290 394 285 q 375 296 382 296 l 240 296 q 221 278 221 296 l 221 182 q 240 164 221 164 l 375 164 q 388 169 382 164 q 394 182 394 175 z "},"à":{"ha":615,"x_min":56,"x_max":558,"o":"m 404 856 q 394 799 415 828 q 343 774 376 774 l 303 774 q 243 817 258 774 l 211 914 q 221 971 200 946 q 271 997 239 997 l 311 997 q 349 985 332 997 q 372 954 365 974 l 404 856 m 558 156 q 513 45 558 90 q 404 0 468 0 l 211 0 q 101 45 147 0 q 56 156 56 90 l 56 307 q 77 384 56 350 q 133 439 99 418 q 211 460 168 460 l 375 460 q 394 479 394 460 l 394 535 q 375 554 394 554 l 211 554 q 166 572 185 554 q 147 617 147 590 l 147 654 q 166 701 147 682 q 211 719 185 719 l 404 719 q 482 699 447 719 q 538 642 517 678 q 558 564 558 607 l 558 156 m 394 182 l 394 278 q 375 296 394 296 l 240 296 q 227 290 233 296 q 221 278 221 285 l 221 182 q 227 169 221 175 q 240 164 233 164 l 375 164 q 394 182 394 164 z "},"å":{"ha":615,"x_min":56,"x_max":558,"o":"m 468 874 q 433 790 468 825 q 349 754 397 754 l 299 754 q 215 790 250 754 q 179 874 179 825 l 179 876 q 215 963 179 928 q 299 997 250 997 l 349 997 q 433 963 397 997 q 468 876 468 928 l 468 874 m 372 874 l 372 876 q 365 895 372 888 q 349 903 358 903 l 299 903 q 281 895 289 903 q 274 876 274 888 l 274 874 q 281 856 274 864 q 299 849 289 849 l 349 849 q 365 856 358 849 q 372 874 372 864 m 558 156 q 513 45 558 90 q 404 0 468 0 l 211 0 q 101 45 147 0 q 56 156 56 90 l 56 307 q 77 384 56 350 q 133 439 99 418 q 211 460 168 460 l 375 460 q 388 465 382 460 q 394 479 394 471 l 394 535 q 388 549 394 543 q 375 554 382 554 l 211 554 q 166 572 185 554 q 147 617 147 590 l 147 654 q 166 701 147 682 q 211 719 185 719 l 404 719 q 482 699 447 719 q 538 642 517 678 q 558 564 558 607 l 558 156 m 394 182 l 394 278 q 388 290 394 285 q 375 296 382 296 l 240 296 q 227 290 233 296 q 221 278 221 285 l 221 182 q 227 169 221 175 q 240 164 233 164 l 375 164 q 388 169 382 164 q 394 182 394 175 z "},"ã":{"ha":615,"x_min":56,"x_max":568,"o":"m 550 967 q 550 903 568 933 l 492 806 q 438 774 475 774 l 390 774 q 368 778 376 774 l 278 813 q 251 803 261 819 q 196 774 233 774 l 153 774 q 121 782 136 774 q 97 806 106 790 q 97 867 78 836 l 156 967 q 210 997 174 997 l 256 997 q 267 997 263 997 q 278 993 272 996 l 369 957 q 394 967 388 951 q 450 997 413 997 l 493 997 q 526 990 510 997 q 550 967 542 982 m 558 156 q 513 45 558 90 q 404 0 468 0 l 211 0 q 101 45 147 0 q 56 156 56 90 l 56 307 q 77 384 56 350 q 133 439 99 418 q 211 460 168 460 l 375 460 q 388 465 382 460 q 394 479 394 471 l 394 535 q 388 549 394 543 q 375 554 382 554 l 211 554 q 166 572 185 554 q 147 617 147 590 l 147 654 q 166 701 147 682 q 211 719 185 719 l 404 719 q 482 699 447 719 q 538 642 517 678 q 558 564 558 607 l 558 156 m 394 182 l 394 278 q 388 290 394 285 q 375 296 382 296 l 240 296 q 227 290 233 296 q 221 278 221 285 l 221 182 q 227 169 221 175 q 240 164 233 164 l 375 164 q 388 169 382 164 q 394 182 394 175 z "},"æ":{"ha":950,"x_min":56,"x_max":894,"o":"m 894 413 q 874 335 894 371 q 819 278 853 300 q 742 257 785 257 l 575 257 q 557 240 557 257 l 557 182 q 575 164 557 164 l 742 164 q 787 146 768 164 q 806 100 806 128 l 806 64 q 787 19 806 38 q 742 0 768 0 l 547 0 q 492 10 517 0 q 458 10 475 17 q 403 0 433 0 l 210 0 q 101 45 146 0 q 56 156 56 90 l 56 307 q 101 415 56 371 q 210 460 146 460 l 375 460 q 393 479 393 460 l 393 535 q 375 554 393 554 l 210 554 q 165 572 183 554 q 147 617 147 590 l 147 654 q 165 701 147 682 q 210 719 183 719 l 403 719 q 458 707 432 719 q 492 707 475 703 q 547 719 519 719 l 742 719 q 819 698 785 719 q 874 642 853 676 q 894 564 894 607 l 894 413 m 731 440 l 731 535 q 713 554 731 554 l 575 554 q 557 535 557 554 l 557 440 q 575 424 557 424 l 713 424 q 731 440 731 424 m 393 182 l 393 278 q 375 296 393 296 l 238 296 q 221 278 221 296 l 221 182 q 238 164 221 164 l 375 164 q 393 182 393 164 z "},"b":{"ha":615,"x_min":56,"x_max":558,"o":"m 558 156 q 513 45 558 90 q 404 0 468 0 l 211 0 q 101 45 147 0 q 56 156 56 90 l 56 875 q 74 921 56 903 q 119 939 93 939 l 158 939 q 203 921 185 939 q 221 875 221 903 l 221 736 q 227 724 221 729 q 240 719 233 719 l 404 719 q 482 699 447 719 q 538 642 517 678 q 558 564 558 607 l 558 156 m 394 182 l 394 535 q 375 554 394 554 l 240 554 q 227 549 233 554 q 221 535 221 543 l 221 182 q 227 169 221 175 q 240 164 233 164 l 375 164 q 394 182 394 164 z "},"c":{"ha":615,"x_min":56,"x_max":558,"o":"m 558 156 q 513 45 558 90 q 404 0 468 0 l 211 0 q 101 45 147 0 q 56 156 56 90 l 56 564 q 77 642 56 607 q 133 699 99 678 q 211 719 168 719 l 404 719 q 482 699 447 719 q 538 642 517 678 q 558 564 558 607 l 558 492 q 540 447 558 465 q 496 428 522 428 l 457 428 q 413 447 431 428 q 394 492 394 465 l 394 535 q 388 549 394 543 q 375 554 382 554 l 240 554 q 227 549 233 554 q 221 535 221 543 l 221 182 q 227 169 221 175 q 240 164 233 164 l 375 164 q 388 169 382 164 q 394 182 394 175 l 394 225 q 413 270 394 251 q 457 289 431 289 l 496 289 q 540 270 522 289 q 558 225 558 251 l 558 156 z "},"ç":{"ha":615,"x_min":56,"x_max":558,"o":"m 558 -247 q 520 -342 558 -303 q 426 -381 482 -381 l 288 -381 q 242 -362 261 -381 q 224 -317 224 -343 l 224 -279 q 242 -234 224 -253 q 288 -215 261 -215 l 382 -215 q 394 -203 394 -215 q 382 -190 394 -190 l 289 -190 q 244 -172 263 -190 q 225 -126 225 -153 l 225 -18 q 208 0 225 0 q 100 47 144 1 q 56 156 56 92 l 56 564 q 77 642 56 607 q 133 699 99 678 q 211 719 168 719 l 404 719 q 482 699 447 719 q 538 642 517 678 q 558 564 558 607 l 558 489 q 540 444 558 463 q 496 425 522 425 l 457 425 q 413 444 431 425 q 394 489 394 463 l 394 535 q 388 549 394 543 q 375 554 382 554 l 240 554 q 227 549 233 554 q 221 535 221 543 l 221 183 q 227 169 221 175 q 240 164 233 164 l 375 164 q 388 169 382 164 q 394 183 394 175 l 394 249 q 413 294 394 276 q 457 313 431 313 l 496 313 q 540 294 522 313 q 558 249 558 276 l 558 156 q 513 45 558 90 q 404 0 468 0 l 403 0 q 390 -12 390 0 q 403 -25 390 -25 l 426 -25 q 520 -64 482 -25 q 558 -158 558 -103 l 558 -247 z "},"d":{"ha":615,"x_min":56,"x_max":558,"o":"m 558 156 q 513 45 558 90 q 404 0 468 0 l 211 0 q 101 45 147 0 q 56 156 56 90 l 56 564 q 77 642 56 607 q 133 699 99 678 q 211 719 168 719 l 375 719 q 394 736 394 719 l 394 875 q 413 921 394 903 q 457 939 431 939 l 496 939 q 540 921 522 939 q 558 875 558 903 l 558 156 m 394 182 l 394 535 q 375 554 394 554 l 240 554 q 227 549 233 554 q 221 535 221 543 l 221 182 q 227 169 221 175 q 240 164 233 164 l 375 164 q 394 182 394 164 z "},"ð":{"ha":568,"x_min":56,"x_max":513,"o":"m 513 733 q 510 715 513 724 q 501 699 508 706 q 497 668 492 682 q 509 617 506 643 q 513 565 513 592 l 513 228 q 482 114 513 165 q 400 31 451 63 q 285 0 349 0 q 170 31 222 0 q 87 114 118 63 q 56 228 56 165 l 56 396 q 87 511 56 460 q 170 594 118 563 q 285 625 222 625 q 303 624 294 625 q 322 621 313 624 q 333 626 329 621 q 333 636 336 631 q 329 645 332 640 q 324 654 326 650 q 297 671 314 671 l 136 671 q 91 690 110 671 q 72 733 72 708 l 72 771 q 90 816 72 799 q 135 835 108 833 q 142 840 139 835 q 143 850 146 844 q 138 874 139 861 q 143 899 138 888 q 167 928 150 918 q 201 939 183 939 l 256 939 q 300 919 281 939 l 372 849 q 403 835 386 835 l 450 835 q 495 817 478 835 q 513 771 513 799 l 513 733 m 349 228 l 349 396 q 330 442 349 424 q 285 460 311 460 q 240 442 258 460 q 221 396 221 424 l 221 228 q 240 183 221 201 q 285 164 258 164 q 330 183 311 164 q 349 228 349 201 z "},"e":{"ha":615,"x_min":56,"x_max":558,"o":"m 558 413 q 538 335 558 371 q 482 278 517 300 q 404 257 447 257 l 240 257 q 227 252 233 257 q 221 240 221 247 l 221 182 q 227 169 221 175 q 240 164 233 164 l 404 164 q 449 146 431 164 q 468 100 468 128 l 468 64 q 449 19 468 38 q 404 0 431 0 l 211 0 q 101 45 147 0 q 56 156 56 90 l 56 564 q 77 642 56 607 q 133 698 99 676 q 211 719 168 719 l 404 719 q 482 698 447 719 q 538 642 517 676 q 558 564 558 607 l 558 413 m 394 440 l 394 535 q 388 549 394 543 q 375 554 382 554 l 240 554 q 227 549 233 554 q 221 535 221 543 l 221 440 q 227 429 221 435 q 240 424 233 424 l 375 424 q 388 429 382 424 q 394 440 394 435 z "},"é":{"ha":615,"x_min":56,"x_max":558,"o":"m 404 914 l 372 817 q 311 774 357 774 l 271 774 q 221 799 239 774 q 211 856 200 828 l 243 954 q 267 985 250 974 q 303 997 283 997 l 343 997 q 394 971 376 997 q 404 914 415 946 m 558 413 q 538 335 558 371 q 482 278 517 300 q 404 257 447 257 l 240 257 q 227 252 233 257 q 221 240 221 247 l 221 182 q 227 169 221 175 q 240 164 233 164 l 404 164 q 449 146 431 164 q 468 100 468 128 l 468 64 q 449 19 468 38 q 404 0 431 0 l 211 0 q 101 45 147 0 q 56 156 56 90 l 56 564 q 77 642 56 607 q 133 698 99 676 q 211 719 168 719 l 404 719 q 482 698 447 719 q 538 642 517 676 q 558 564 558 607 l 558 413 m 394 440 l 394 535 q 375 554 394 554 l 240 554 q 227 549 233 554 q 221 535 221 543 l 221 440 q 227 429 221 435 q 240 424 233 424 l 375 424 q 394 440 394 424 z "},"ê":{"ha":615,"x_min":56,"x_max":558,"o":"m 507 806 q 451 774 490 774 l 407 774 q 353 806 369 774 l 344 818 q 319 832 339 832 l 296 832 q 269 818 278 832 l 263 806 q 208 774 246 774 l 163 774 q 108 806 125 774 q 108 867 89 836 l 164 967 q 219 997 183 997 l 396 997 q 450 967 432 997 l 507 867 q 507 806 526 836 m 558 413 q 538 335 558 371 q 482 278 517 300 q 404 257 447 257 l 240 257 q 227 252 233 257 q 221 240 221 247 l 221 182 q 227 169 221 175 q 240 164 233 164 l 404 164 q 449 146 431 164 q 468 100 468 128 l 468 64 q 449 19 468 38 q 404 0 431 0 l 211 0 q 101 45 147 0 q 56 156 56 90 l 56 564 q 77 642 56 607 q 133 698 99 676 q 211 719 168 719 l 404 719 q 482 698 447 719 q 538 642 517 676 q 558 564 558 607 l 558 413 m 394 440 l 394 535 q 388 549 394 543 q 375 554 382 554 l 240 554 q 227 549 233 554 q 221 535 221 543 l 221 440 q 227 429 221 435 q 240 424 233 424 l 375 424 q 388 429 382 424 q 394 440 394 435 z "},"ë":{"ha":615,"x_min":56,"x_max":558,"o":"m 532 875 q 502 801 532 832 q 428 771 472 771 q 354 801 385 771 q 324 875 324 832 q 354 949 324 919 q 428 979 385 979 q 502 949 472 979 q 532 875 532 919 m 290 875 q 260 801 290 832 q 188 771 231 771 q 114 801 144 771 q 83 875 83 832 q 114 949 83 919 q 188 979 144 979 q 260 949 231 979 q 290 875 290 919 m 558 413 q 538 335 558 371 q 482 278 517 300 q 404 257 447 257 l 240 257 q 227 252 233 257 q 221 240 221 247 l 221 182 q 227 169 221 175 q 240 164 233 164 l 404 164 q 449 146 431 164 q 468 100 468 128 l 468 64 q 449 19 468 38 q 404 0 431 0 l 211 0 q 101 45 147 0 q 56 156 56 90 l 56 564 q 77 642 56 607 q 133 698 99 676 q 211 719 168 719 l 404 719 q 482 698 447 719 q 538 642 517 676 q 558 564 558 607 l 558 413 m 394 440 l 394 535 q 375 554 394 554 l 240 554 q 227 549 233 554 q 221 535 221 543 l 221 440 q 227 429 221 435 q 240 424 233 424 l 375 424 q 394 440 394 424 z "},"è":{"ha":615,"x_min":56,"x_max":558,"o":"m 404 856 q 394 799 415 828 q 343 774 376 774 l 303 774 q 243 817 258 774 l 211 914 q 221 971 200 946 q 271 997 239 997 l 311 997 q 349 985 332 997 q 372 954 365 974 l 404 856 m 558 413 q 538 335 558 371 q 482 278 517 300 q 404 257 447 257 l 240 257 q 227 252 233 257 q 221 240 221 247 l 221 182 q 227 169 221 175 q 240 164 233 164 l 404 164 q 449 146 431 164 q 468 100 468 128 l 468 64 q 449 19 468 38 q 404 0 431 0 l 211 0 q 101 45 147 0 q 56 156 56 90 l 56 564 q 77 642 56 607 q 133 698 99 676 q 211 719 168 719 l 404 719 q 482 698 447 719 q 538 642 517 676 q 558 564 558 607 l 558 413 m 394 440 l 394 535 q 388 549 394 543 q 375 554 382 554 l 240 554 q 227 549 233 554 q 221 535 221 543 l 221 440 q 227 429 221 435 q 240 424 233 424 l 375 424 q 388 429 382 424 q 394 440 394 435 z "},"f":{"ha":507,"x_min":56,"x_max":450,"o":"m 450 617 q 432 572 450 590 q 386 554 414 554 l 240 554 q 222 535 222 554 l 222 64 q 203 19 222 38 q 158 0 185 0 l 119 0 q 74 19 93 0 q 56 64 56 38 l 56 785 q 77 863 56 828 q 133 918 99 897 q 211 939 168 939 l 386 939 q 432 921 414 939 q 450 875 450 903 l 450 838 q 432 792 450 811 q 386 774 414 774 l 240 774 q 222 756 222 774 l 222 736 q 240 719 222 719 l 386 719 q 432 701 414 719 q 450 654 450 682 l 450 617 z "},"g":{"ha":615,"x_min":56,"x_max":558,"o":"m 558 -67 q 538 -144 558 -108 q 482 -201 517 -179 q 404 -222 447 -222 l 211 -222 q 166 -203 185 -222 q 147 -158 147 -185 l 147 -119 q 166 -75 147 -93 q 211 -57 185 -57 l 375 -57 q 388 -51 382 -57 q 394 -39 394 -46 l 394 -18 q 388 -6 394 -11 q 375 0 382 0 l 211 0 q 101 45 147 0 q 56 156 56 90 l 56 564 q 77 642 56 607 q 133 699 99 678 q 211 719 168 719 l 404 719 q 482 699 447 719 q 538 642 517 678 q 558 564 558 607 l 558 -67 m 394 182 l 394 535 q 388 549 394 543 q 375 554 382 554 l 240 554 q 227 549 233 554 q 221 535 221 543 l 221 182 q 227 169 221 175 q 240 164 233 164 l 375 164 q 388 169 382 164 q 394 182 394 175 z "},"h":{"ha":615,"x_min":56,"x_max":558,"o":"m 558 64 q 540 19 558 38 q 496 0 522 0 l 457 0 q 413 19 431 0 q 394 64 394 38 l 394 535 q 388 549 394 543 q 375 554 382 554 l 240 554 q 227 549 233 554 q 221 535 221 543 l 221 64 q 203 19 221 38 q 158 0 185 0 l 119 0 q 74 19 93 0 q 56 64 56 38 l 56 875 q 74 921 56 903 q 119 939 93 939 l 158 939 q 203 921 185 939 q 221 875 221 903 l 221 736 q 227 724 221 729 q 240 719 233 719 l 404 719 q 482 699 447 719 q 538 642 517 678 q 558 564 558 607 l 558 64 z "},"i":{"ha":321,"x_min":56,"x_max":265,"o":"m 265 850 q 234 776 265 807 q 161 744 203 744 q 87 776 118 744 q 56 850 56 807 q 87 923 56 892 q 161 954 118 954 q 234 923 203 954 q 265 850 265 892 m 243 64 q 224 19 243 38 q 179 0 206 0 l 142 0 q 97 19 115 0 q 78 64 78 38 l 78 640 q 97 685 78 667 q 142 704 115 704 l 179 704 q 224 685 206 704 q 243 640 243 667 l 243 64 z "},"ı":{"ha":275,"x_min":56,"x_max":219,"o":"m 219 64 q 201 19 219 38 q 157 0 183 0 l 118 0 q 74 19 92 0 q 56 64 56 38 l 56 656 q 74 700 56 682 q 118 718 92 718 l 157 718 q 201 700 183 718 q 219 656 219 682 l 219 64 z "},"í":{"ha":322,"x_min":53,"x_max":264,"o":"m 254 914 l 222 817 q 161 774 208 774 l 121 774 q 71 799 92 774 q 63 856 53 829 l 94 954 q 117 985 101 974 q 156 997 133 997 l 194 997 q 246 971 226 997 q 254 914 264 947 m 224 64 q 205 19 224 38 q 160 0 186 0 l 121 0 q 77 19 94 0 q 60 64 60 38 l 60 654 q 77 701 60 682 q 121 719 94 719 l 160 719 q 205 701 186 719 q 224 654 224 682 l 224 64 z "},"î":{"ha":528,"x_min":44,"x_max":483,"o":"m 464 806 q 407 774 444 774 l 364 774 q 310 806 326 774 l 301 818 q 275 832 293 832 l 253 832 q 225 818 235 832 l 217 806 q 163 774 200 774 l 119 774 q 64 806 81 774 q 64 867 44 836 l 121 967 q 176 997 139 997 l 351 997 q 407 967 388 997 l 464 867 q 464 806 483 836 m 347 64 q 328 19 347 38 q 283 0 310 0 l 244 0 q 199 19 218 0 q 181 64 181 38 l 181 654 q 199 701 181 682 q 244 719 218 719 l 283 719 q 328 701 310 719 q 347 654 347 682 l 347 64 z "},"ï":{"ha":557,"x_min":54,"x_max":503,"o":"m 503 875 q 473 801 503 832 q 399 771 443 771 q 326 801 356 771 q 296 875 296 832 q 326 949 296 919 q 399 979 356 979 q 473 949 443 979 q 503 875 503 919 m 263 875 q 232 801 263 832 q 158 771 201 771 q 85 801 115 771 q 54 875 54 832 q 85 949 54 919 q 158 979 115 979 q 232 949 201 979 q 263 875 263 919 m 361 64 q 342 19 361 38 q 297 0 324 0 l 260 0 q 215 19 233 0 q 196 64 196 38 l 196 654 q 215 701 196 682 q 260 719 233 719 l 297 719 q 342 701 324 719 q 361 654 361 682 l 361 64 z "},"ì":{"ha":322,"x_min":50,"x_max":261,"o":"m 253 856 q 244 799 261 826 q 193 774 224 774 l 153 774 q 115 785 132 774 q 93 817 99 797 l 61 914 q 68 971 50 946 q 119 997 90 997 l 160 997 q 199 985 182 997 q 221 954 215 974 l 253 856 m 256 64 q 238 19 256 38 q 193 0 219 0 l 156 0 q 110 19 129 0 q 92 64 92 38 l 92 654 q 110 701 92 682 q 156 719 129 719 l 193 719 q 238 701 219 719 q 256 654 256 682 l 256 64 z "},"j":{"ha":413,"x_min":56,"x_max":356,"o":"m 356 850 q 325 776 356 807 q 251 744 294 744 q 178 776 208 744 q 147 850 147 807 q 178 923 147 892 q 251 954 208 954 q 325 923 294 954 q 356 850 356 892 m 333 -67 q 313 -144 333 -108 q 257 -201 292 -179 q 179 -222 222 -222 l 119 -222 q 74 -203 93 -222 q 56 -158 56 -185 l 56 -119 q 74 -75 56 -93 q 119 -57 93 -57 l 151 -57 q 169 -39 169 -57 l 169 640 q 188 685 169 667 q 232 704 207 704 l 269 704 q 315 685 297 704 q 333 640 333 667 l 333 -67 z "},"k":{"ha":615,"x_min":56,"x_max":561,"o":"m 553 39 q 496 0 538 0 l 444 0 q 396 21 417 0 l 233 200 q 227 201 232 203 q 222 194 222 200 l 222 64 q 203 19 222 38 q 158 0 185 0 l 119 0 q 74 19 93 0 q 56 64 56 38 l 56 875 q 74 921 56 903 q 119 939 93 939 l 158 939 q 203 921 185 939 q 222 875 222 903 l 222 524 q 227 517 222 519 q 233 519 232 515 l 381 679 q 426 700 399 700 l 478 700 q 536 661 518 700 q 540 626 543 644 q 525 594 538 607 l 324 372 q 318 359 318 367 q 324 347 318 351 l 542 107 q 558 74 554 93 q 553 39 561 56 z "},"l":{"ha":363,"x_min":54,"x_max":308,"o":"m 308 64 q 290 19 308 38 q 244 0 271 0 l 210 0 q 100 45 146 0 q 54 156 54 90 l 54 875 q 73 921 54 903 q 118 939 92 939 l 157 939 q 202 921 183 939 q 221 875 221 903 l 221 182 q 238 164 221 164 l 244 164 q 290 146 271 164 q 308 100 308 128 l 308 64 z "},"ł":{"ha":438,"x_min":56,"x_max":382,"o":"m 382 64 q 363 19 382 38 q 318 0 344 0 l 283 0 q 206 21 242 0 q 150 77 171 42 q 129 154 129 113 l 129 333 q 113 353 129 350 q 83 364 97 354 q 56 415 56 382 l 56 457 q 97 515 56 501 l 113 521 q 129 546 129 528 l 129 875 q 147 921 129 903 q 192 939 165 939 l 231 939 q 276 921 257 939 q 294 875 294 903 l 294 606 q 311 588 294 590 q 343 576 328 588 q 371 525 371 558 l 371 483 q 329 425 371 439 l 311 418 q 294 394 294 413 l 294 183 q 313 165 294 165 l 318 165 q 363 147 344 165 q 382 101 382 128 l 382 64 z "},"m":{"ha":788,"x_min":56,"x_max":732,"o":"m 732 64 q 713 19 732 38 q 668 0 694 0 l 629 0 q 584 19 603 0 q 565 64 565 38 l 565 535 q 547 554 565 554 l 493 554 q 476 535 476 554 l 476 64 q 458 19 476 38 q 413 0 439 0 l 375 0 q 330 19 349 0 q 311 64 311 38 l 311 535 q 294 554 311 554 l 240 554 q 222 535 222 554 l 222 64 q 203 19 222 38 q 158 0 185 0 l 119 0 q 74 19 93 0 q 56 64 56 38 l 56 564 q 77 642 56 607 q 133 699 99 678 q 211 719 168 719 l 321 719 q 376 707 351 719 q 411 707 393 703 q 467 719 436 719 l 576 719 q 654 699 619 719 q 710 642 689 678 q 732 564 732 607 l 732 64 z "},"n":{"ha":615,"x_min":56,"x_max":558,"o":"m 558 64 q 540 19 558 38 q 496 0 522 0 l 457 0 q 413 19 431 0 q 394 64 394 38 l 394 535 q 388 549 394 543 q 375 554 382 554 l 240 554 q 227 549 233 554 q 221 535 221 543 l 221 64 q 203 19 221 38 q 158 0 185 0 l 119 0 q 74 19 93 0 q 56 64 56 38 l 56 564 q 77 642 56 607 q 133 699 99 678 q 211 719 168 719 l 404 719 q 482 699 447 719 q 538 642 517 678 q 558 564 558 607 l 558 64 z "},"ñ":{"ha":615,"x_min":56,"x_max":568,"o":"m 550 967 q 550 903 568 933 l 492 806 q 438 774 475 774 l 392 774 q 368 778 379 774 l 278 813 q 253 803 260 819 q 196 774 232 774 l 153 774 q 99 806 115 774 q 99 867 78 836 l 156 967 q 210 997 174 997 l 256 997 q 267 997 263 997 q 278 993 272 996 l 369 957 q 394 967 388 951 q 450 997 414 997 l 493 997 q 550 967 532 997 m 558 64 q 540 19 558 38 q 496 0 522 0 l 457 0 q 413 19 431 0 q 394 64 394 38 l 394 535 q 388 549 394 543 q 375 554 382 554 l 240 554 q 227 549 233 554 q 221 535 221 543 l 221 64 q 203 19 221 38 q 158 0 185 0 l 119 0 q 74 19 93 0 q 56 64 56 38 l 56 564 q 77 642 56 607 q 133 699 99 678 q 211 719 168 719 l 404 719 q 482 699 447 719 q 538 642 517 678 q 558 564 558 607 l 558 64 z "},"o":{"ha":615,"x_min":56,"x_max":558,"o":"m 558 156 q 513 45 558 90 q 404 0 468 0 l 211 0 q 101 45 147 0 q 56 156 56 90 l 56 564 q 77 642 56 607 q 133 699 99 678 q 211 719 168 719 l 404 719 q 482 699 447 719 q 538 642 517 678 q 558 564 558 607 l 558 156 m 394 182 l 394 535 q 388 549 394 543 q 375 554 382 554 l 240 554 q 227 549 233 554 q 221 535 221 543 l 221 182 q 227 169 221 175 q 240 164 233 164 l 375 164 q 388 169 382 164 q 394 182 394 175 z "},"ó":{"ha":615,"x_min":56,"x_max":558,"o":"m 397 914 l 365 817 q 306 774 350 774 l 265 774 q 214 799 232 774 q 204 856 194 826 l 236 954 q 260 985 243 974 q 297 997 276 997 l 338 997 q 388 971 369 997 q 397 914 410 947 m 558 156 q 513 45 558 90 q 404 0 468 0 l 211 0 q 101 45 147 0 q 56 156 56 90 l 56 564 q 77 642 56 607 q 133 699 99 678 q 211 719 168 719 l 404 719 q 482 699 447 719 q 538 642 517 678 q 558 564 558 607 l 558 156 m 394 182 l 394 535 q 388 549 394 543 q 375 554 382 554 l 240 554 q 227 549 233 554 q 221 535 221 543 l 221 182 q 227 169 221 175 q 240 164 233 164 l 375 164 q 388 169 382 164 q 394 182 394 175 z "},"ô":{"ha":615,"x_min":56,"x_max":558,"o":"m 507 806 q 451 774 490 774 l 407 774 q 353 806 369 774 l 344 818 q 319 832 339 832 l 296 832 q 269 818 278 832 l 263 806 q 208 774 246 774 l 163 774 q 108 806 125 774 q 108 867 89 836 l 164 967 q 219 997 183 997 l 396 997 q 450 967 432 997 l 507 867 q 507 806 526 836 m 558 156 q 513 45 558 90 q 404 0 468 0 l 211 0 q 101 45 147 0 q 56 156 56 90 l 56 564 q 77 642 56 607 q 133 699 99 678 q 211 719 168 719 l 404 719 q 482 699 447 719 q 538 642 517 678 q 558 564 558 607 l 558 156 m 394 182 l 394 535 q 375 554 394 554 l 240 554 q 227 549 233 554 q 221 535 221 543 l 221 182 q 227 169 221 175 q 240 164 233 164 l 375 164 q 394 182 394 164 z "},"ö":{"ha":615,"x_min":56,"x_max":558,"o":"m 532 875 q 502 801 532 832 q 428 771 472 771 q 354 801 385 771 q 324 875 324 832 q 354 949 324 919 q 428 979 385 979 q 502 949 472 979 q 532 875 532 919 m 290 875 q 260 801 290 832 q 188 771 231 771 q 114 801 144 771 q 83 875 83 832 q 114 949 83 919 q 188 979 144 979 q 260 949 231 979 q 290 875 290 919 m 558 156 q 513 45 558 90 q 404 0 468 0 l 211 0 q 101 45 147 0 q 56 156 56 90 l 56 564 q 77 642 56 607 q 133 699 99 678 q 211 719 168 719 l 404 719 q 482 699 447 719 q 538 642 517 678 q 558 564 558 607 l 558 156 m 394 182 l 394 535 q 375 554 394 554 l 240 554 q 227 549 233 554 q 221 535 221 543 l 221 182 q 227 169 221 175 q 240 164 233 164 l 375 164 q 394 182 394 164 z "},"ò":{"ha":615,"x_min":56,"x_max":558,"o":"m 388 856 q 379 799 399 826 q 328 774 361 774 l 288 774 q 226 817 242 774 l 194 914 q 204 971 185 947 q 256 997 222 997 l 296 997 q 333 985 315 997 q 356 954 350 974 l 388 856 m 558 156 q 513 45 558 90 q 404 0 468 0 l 211 0 q 101 45 147 0 q 56 156 56 90 l 56 564 q 77 642 56 607 q 133 699 99 678 q 211 719 168 719 l 404 719 q 482 699 447 719 q 538 642 517 678 q 558 564 558 607 l 558 156 m 394 182 l 394 535 q 388 549 394 543 q 375 554 382 554 l 240 554 q 227 549 233 554 q 221 535 221 543 l 221 182 q 227 169 221 175 q 240 164 233 164 l 375 164 q 388 169 382 164 q 394 182 394 175 z "},"ø":{"ha":683,"x_min":47,"x_max":636,"o":"m 619 703 l 593 650 q 589 618 585 635 q 599 564 599 593 l 599 156 q 554 45 599 90 q 446 0 510 0 l 264 0 q 236 -17 249 0 l 219 -51 q 195 -76 211 -67 q 163 -85 179 -85 l 119 -85 q 65 -53 83 -85 q 64 10 47 -21 l 100 78 q 104 110 108 93 q 99 132 100 121 q 97 156 97 143 l 97 564 q 118 642 97 607 q 174 698 139 676 q 253 719 210 719 l 424 719 q 450 735 443 719 l 465 763 q 521 796 483 796 l 564 796 q 618 765 600 796 q 619 703 636 733 m 344 539 q 345 549 349 543 q 335 554 342 554 l 279 554 q 263 535 263 554 l 263 411 q 267 404 263 406 q 276 407 272 403 l 344 539 m 435 182 l 435 326 q 430 333 435 332 q 422 329 425 333 l 342 181 q 343 169 340 175 q 351 164 346 164 l 417 164 q 435 182 435 164 z "},"õ":{"ha":615,"x_min":56,"x_max":558,"o":"m 533 967 q 533 903 551 933 l 476 806 q 419 774 460 774 l 374 774 q 351 778 363 774 l 263 813 q 235 803 247 819 q 181 774 217 774 l 138 774 q 106 782 121 774 q 82 806 90 790 q 82 867 63 836 l 139 967 q 193 997 157 997 l 240 997 q 251 997 246 997 q 263 993 257 996 l 353 957 q 379 967 371 951 q 435 997 397 997 l 478 997 q 533 967 515 997 m 558 156 q 513 45 558 90 q 404 0 468 0 l 211 0 q 101 45 147 0 q 56 156 56 90 l 56 564 q 77 642 56 607 q 133 699 99 678 q 211 719 168 719 l 404 719 q 482 699 447 719 q 538 642 517 678 q 558 564 558 607 l 558 156 m 394 182 l 394 535 q 375 554 394 554 l 240 554 q 227 549 233 554 q 221 535 221 543 l 221 182 q 227 169 221 175 q 240 164 233 164 l 375 164 q 394 182 394 164 z "},"œ":{"ha":951,"x_min":56,"x_max":896,"o":"m 896 413 q 875 335 896 371 q 819 278 854 300 q 742 257 785 257 l 576 257 q 558 240 558 257 l 558 182 q 576 164 558 164 l 742 164 q 787 146 768 164 q 806 100 806 128 l 806 64 q 787 19 806 38 q 742 0 768 0 l 547 0 q 492 10 517 0 q 460 10 476 17 q 404 0 436 0 l 211 0 q 101 45 147 0 q 56 156 56 90 l 56 564 q 101 674 56 629 q 211 719 147 719 l 404 719 q 460 707 435 719 q 492 707 476 703 q 547 719 519 719 l 742 719 q 819 698 785 719 q 875 642 854 676 q 896 564 896 607 l 896 413 m 732 440 l 732 535 q 713 554 732 554 l 576 554 q 558 535 558 554 l 558 440 q 576 424 558 424 l 713 424 q 732 440 732 424 m 393 182 l 393 535 q 375 554 393 554 l 240 554 q 221 535 221 554 l 221 182 q 240 164 221 164 l 375 164 q 393 182 393 164 z "},"p":{"ha":615,"x_min":56,"x_max":558,"o":"m 558 156 q 513 45 558 90 q 404 0 468 0 l 240 0 q 227 -6 233 0 q 221 -18 221 -11 l 221 -158 q 203 -203 221 -185 q 158 -222 185 -222 l 119 -222 q 74 -203 93 -222 q 56 -158 56 -185 l 56 564 q 77 642 56 607 q 133 699 99 678 q 211 719 168 719 l 404 719 q 482 699 447 719 q 538 642 517 678 q 558 564 558 607 l 558 156 m 394 182 l 394 535 q 388 549 394 543 q 375 554 382 554 l 240 554 q 227 549 233 554 q 221 535 221 543 l 221 182 q 227 169 221 175 q 240 164 233 164 l 375 164 q 388 169 382 164 q 394 182 394 175 z "},"þ":{"ha":615,"x_min":56,"x_max":558,"o":"m 119 -222 q 74 -203 93 -222 q 56 -158 56 -185 l 56 879 q 74 924 56 906 q 119 943 93 943 l 158 943 q 203 924 185 943 q 221 879 221 906 l 221 738 q 227 726 221 731 q 240 721 233 721 l 404 721 q 482 700 447 721 q 538 644 517 679 q 558 565 558 608 l 558 156 q 513 45 558 90 q 404 0 468 0 l 240 0 q 227 -6 233 0 q 221 -18 221 -11 l 221 -158 q 203 -203 221 -185 q 158 -222 185 -222 l 119 -222 m 240 167 l 375 167 q 388 172 382 167 q 394 185 394 176 l 394 535 q 388 549 394 543 q 375 554 382 554 l 240 554 q 227 549 233 554 q 221 535 221 543 l 221 185 q 227 172 221 176 q 240 167 233 167 z "},"q":{"ha":615,"x_min":56,"x_max":558,"o":"m 558 -158 q 540 -203 558 -185 q 496 -222 522 -222 l 457 -222 q 413 -203 431 -222 q 394 -158 394 -185 l 394 -18 q 375 0 394 0 l 211 0 q 101 45 147 0 q 56 156 56 90 l 56 564 q 77 642 56 607 q 133 699 99 678 q 211 719 168 719 l 404 719 q 482 699 447 719 q 538 642 517 678 q 558 564 558 607 l 558 -158 m 394 182 l 394 535 q 375 554 394 554 l 240 554 q 221 535 221 554 l 221 182 q 240 164 221 164 l 375 164 q 394 182 394 164 z "},"r":{"ha":525,"x_min":57,"x_max":468,"o":"m 468 617 q 450 572 468 590 q 406 554 432 554 l 240 554 q 222 535 222 554 l 222 64 q 203 19 222 38 q 158 0 185 0 l 119 0 q 75 19 93 0 q 57 64 57 38 l 57 564 q 78 642 57 607 q 133 699 99 678 q 211 719 168 719 l 406 719 q 450 701 432 719 q 468 654 468 682 l 468 617 z "},"s":{"ha":615,"x_min":56,"x_max":558,"o":"m 558 156 q 513 45 558 90 q 404 0 468 0 l 211 0 q 101 45 147 0 q 56 156 56 90 l 56 213 q 74 258 56 239 q 119 276 93 276 l 158 276 q 203 258 185 276 q 221 213 221 239 l 221 182 q 240 164 221 164 l 375 164 q 388 169 382 164 q 394 182 394 175 l 394 233 q 383 249 394 244 l 182 313 q 91 379 126 332 q 56 486 56 426 l 56 564 q 77 642 56 607 q 133 698 99 676 q 211 719 168 719 l 404 719 q 482 698 447 719 q 538 642 517 676 q 558 564 558 607 l 558 508 q 540 463 558 482 q 496 444 522 444 l 457 444 q 413 463 431 444 q 394 508 394 482 l 394 535 q 388 549 394 543 q 375 554 382 554 l 240 554 q 221 535 221 554 l 221 486 q 232 469 221 472 l 433 406 q 524 340 490 388 q 558 233 558 293 l 558 156 z "},"š":{"ha":615,"x_min":56,"x_max":558,"o":"m 507 903 l 450 806 q 396 774 433 774 l 219 774 q 164 806 183 774 l 108 903 q 108 967 90 933 q 163 997 126 997 l 208 997 q 263 967 244 997 l 269 954 q 296 938 279 938 l 319 938 q 344 954 338 938 l 353 967 q 407 997 371 997 l 451 997 q 507 967 489 997 q 507 903 525 933 m 558 156 q 513 45 558 90 q 404 0 468 0 l 211 0 q 101 45 147 0 q 56 156 56 90 l 56 213 q 74 258 56 239 q 119 276 93 276 l 158 276 q 203 258 185 276 q 221 213 221 239 l 221 182 q 227 169 221 175 q 240 164 233 164 l 375 164 q 388 169 382 164 q 394 182 394 175 l 394 233 q 383 249 394 244 l 182 313 q 91 379 126 332 q 56 486 56 426 l 56 564 q 77 642 56 607 q 133 698 99 676 q 211 719 168 719 l 404 719 q 482 698 447 719 q 538 642 517 676 q 558 564 558 607 l 558 508 q 540 463 558 482 q 496 444 522 444 l 457 444 q 413 463 431 444 q 394 508 394 482 l 394 535 q 388 549 394 543 q 375 554 382 554 l 240 554 q 227 549 233 554 q 221 535 221 543 l 221 486 q 232 469 221 472 l 433 406 q 524 340 490 388 q 558 233 558 293 l 558 156 z "},"ß":{"ha":615,"x_min":56,"x_max":558,"o":"m 558 183 q 533 92 558 133 q 467 25 508 50 q 374 0 425 0 l 331 0 q 285 19 304 0 q 267 64 267 38 l 267 100 q 285 146 267 128 q 331 164 304 164 l 374 164 q 393 183 393 164 l 393 467 q 374 483 393 483 l 331 483 q 285 502 304 483 q 267 547 267 521 l 267 586 q 285 631 267 613 q 331 650 304 650 l 353 650 q 367 656 361 650 q 374 671 374 663 l 374 754 q 356 774 374 774 l 240 774 q 222 756 222 774 l 222 64 q 203 19 222 38 q 158 0 185 0 l 119 0 q 74 19 93 0 q 56 64 56 38 l 56 875 q 74 921 56 903 q 119 939 93 939 l 356 939 q 449 914 407 939 q 515 847 490 889 q 540 754 540 806 l 540 669 q 525 597 540 632 q 526 567 519 583 q 558 467 558 524 l 558 183 z "},"t":{"ha":525,"x_min":57,"x_max":468,"o":"m 468 64 q 450 19 468 38 q 406 0 432 0 l 211 0 q 102 45 147 0 q 57 156 57 90 l 57 875 q 75 921 57 903 q 119 939 93 939 l 158 939 q 203 921 185 939 q 222 875 222 903 l 222 736 q 240 719 222 719 l 406 719 q 450 701 432 719 q 468 654 468 682 l 468 617 q 450 572 468 593 q 406 554 429 554 l 240 554 q 222 535 222 554 l 222 182 q 240 164 222 164 l 406 164 q 450 146 432 164 q 468 100 468 128 l 468 64 z "},"u":{"ha":615,"x_min":56,"x_max":558,"o":"m 558 156 q 513 45 558 90 q 404 0 468 0 l 211 0 q 101 45 147 0 q 56 156 56 90 l 56 654 q 74 701 56 682 q 119 719 93 719 l 158 719 q 203 701 185 719 q 221 654 221 682 l 221 182 q 227 169 221 175 q 240 164 233 164 l 375 164 q 388 169 382 164 q 394 182 394 175 l 394 654 q 413 701 394 682 q 457 719 431 719 l 496 719 q 540 701 522 719 q 558 654 558 682 l 558 156 z "},"ú":{"ha":615,"x_min":56,"x_max":558,"o":"m 404 914 l 372 817 q 311 774 357 774 l 271 774 q 221 799 239 774 q 211 856 200 828 l 243 954 q 267 985 250 974 q 303 997 283 997 l 343 997 q 394 971 376 997 q 404 914 415 946 m 558 156 q 513 45 558 90 q 404 0 468 0 l 211 0 q 101 45 147 0 q 56 156 56 90 l 56 654 q 74 701 56 682 q 119 719 93 719 l 158 719 q 203 701 185 719 q 221 654 221 682 l 221 182 q 227 169 221 175 q 240 164 233 164 l 375 164 q 394 182 394 164 l 394 654 q 413 701 394 682 q 457 719 431 719 l 496 719 q 540 701 522 719 q 558 654 558 682 l 558 156 z "},"û":{"ha":615,"x_min":56,"x_max":558,"o":"m 507 806 q 451 774 490 774 l 407 774 q 353 806 369 774 l 344 818 q 319 832 339 832 l 296 832 q 269 818 278 832 l 263 806 q 208 774 246 774 l 163 774 q 108 806 125 774 q 108 867 89 836 l 164 967 q 219 997 183 997 l 396 997 q 450 967 432 997 l 507 867 q 507 806 526 836 m 558 156 q 513 45 558 90 q 404 0 468 0 l 211 0 q 101 45 147 0 q 56 156 56 90 l 56 654 q 74 701 56 682 q 119 719 93 719 l 158 719 q 203 701 185 719 q 221 654 221 682 l 221 182 q 227 169 221 175 q 240 164 233 164 l 375 164 q 388 169 382 164 q 394 182 394 175 l 394 654 q 413 701 394 682 q 457 719 431 719 l 496 719 q 540 701 522 719 q 558 654 558 682 l 558 156 z "},"ü":{"ha":615,"x_min":56,"x_max":558,"o":"m 532 875 q 502 801 532 832 q 428 771 472 771 q 354 801 385 771 q 324 875 324 832 q 354 949 324 919 q 428 979 385 979 q 502 949 472 979 q 532 875 532 919 m 290 875 q 260 801 290 832 q 188 771 231 771 q 114 801 144 771 q 83 875 83 832 q 114 949 83 919 q 188 979 144 979 q 260 949 231 979 q 290 875 290 919 m 558 156 q 513 45 558 90 q 404 0 468 0 l 211 0 q 101 45 147 0 q 56 156 56 90 l 56 654 q 74 701 56 682 q 119 719 93 719 l 158 719 q 203 701 185 719 q 221 654 221 682 l 221 182 q 227 169 221 175 q 240 164 233 164 l 375 164 q 394 182 394 164 l 394 654 q 413 701 394 682 q 457 719 431 719 l 496 719 q 540 701 522 719 q 558 654 558 682 l 558 156 z "},"ù":{"ha":615,"x_min":56,"x_max":558,"o":"m 404 856 q 394 799 415 828 q 343 774 376 774 l 303 774 q 243 817 258 774 l 211 914 q 221 971 200 946 q 271 997 239 997 l 311 997 q 349 985 332 997 q 372 954 365 974 l 404 856 m 558 156 q 513 45 558 90 q 404 0 468 0 l 211 0 q 101 45 147 0 q 56 156 56 90 l 56 654 q 74 701 56 682 q 119 719 93 719 l 158 719 q 203 701 185 719 q 221 654 221 682 l 221 182 q 227 169 221 175 q 240 164 233 164 l 375 164 q 388 169 382 164 q 394 182 394 175 l 394 654 q 413 701 394 682 q 457 719 431 719 l 496 719 q 540 701 522 719 q 558 654 558 682 l 558 156 z "},"v":{"ha":626,"x_min":50,"x_max":575,"o":"m 567 638 l 394 46 q 372 13 389 26 q 332 0 354 0 l 294 0 q 256 13 272 0 q 232 46 239 26 l 60 638 q 68 693 50 669 q 119 719 90 719 l 160 719 q 199 706 182 719 q 221 672 215 693 l 307 381 q 313 375 308 375 q 319 381 318 375 l 406 672 q 428 706 413 693 q 467 719 444 719 l 507 719 q 557 693 538 719 q 567 638 575 668 z "},"w":{"ha":785,"x_min":50,"x_max":735,"o":"m 726 642 l 600 50 q 578 14 596 28 q 539 0 561 0 l 500 0 q 460 14 478 0 q 438 50 443 28 l 399 228 q 392 235 397 235 q 385 228 386 235 l 347 50 q 325 14 342 28 q 285 0 308 0 l 246 0 q 206 14 224 0 q 183 50 189 28 l 57 642 q 68 694 50 672 q 118 719 90 719 l 158 719 q 198 706 181 719 q 221 668 215 692 l 258 490 q 265 485 260 485 q 271 490 269 485 l 311 668 q 333 706 315 692 q 372 719 350 719 l 413 719 q 451 706 433 719 q 472 668 469 692 l 513 489 q 519 483 514 483 q 525 489 524 483 l 564 668 q 587 706 569 692 q 626 719 604 719 l 667 719 q 715 694 694 719 q 726 642 735 669 z "},"x":{"ha":578,"x_min":47,"x_max":531,"o":"m 515 626 l 390 374 q 390 342 381 358 l 514 92 q 511 31 531 60 q 458 0 493 0 l 415 0 q 358 35 376 0 l 297 158 q 290 163 296 163 q 281 158 283 163 l 221 35 q 163 0 203 0 l 119 0 q 67 31 85 0 q 64 92 49 60 l 189 342 q 189 375 196 358 l 63 626 q 65 689 47 658 q 119 719 85 719 l 163 719 q 197 709 182 719 q 219 683 211 699 l 281 558 q 290 554 283 554 q 297 558 296 554 l 360 683 q 383 709 368 699 q 415 719 397 719 l 458 719 q 513 689 492 719 q 515 626 531 658 z "},"y":{"ha":579,"x_min":49,"x_max":531,"o":"m 521 639 l 331 -92 q 268 -185 315 -149 q 160 -222 221 -222 l 121 -222 q 76 -203 94 -222 q 57 -158 57 -185 l 57 -119 q 76 -75 57 -93 q 121 -57 94 -57 l 160 -57 q 171 -49 168 -57 l 201 71 q 201 94 206 82 l 60 639 q 71 693 49 671 q 119 719 89 719 l 160 719 q 199 706 182 719 q 221 671 215 693 l 283 433 q 290 428 285 428 q 297 433 296 428 l 360 671 q 383 706 367 693 q 419 719 399 719 l 460 719 q 510 693 492 719 q 521 639 531 671 z "},"ý":{"ha":579,"x_min":49,"x_max":531,"o":"m 368 914 l 333 817 q 311 785 328 797 q 275 774 294 774 l 235 774 q 182 799 203 774 q 174 856 165 826 l 206 954 q 230 985 213 974 q 267 997 247 997 l 307 997 q 358 971 340 997 q 368 914 378 947 m 521 639 l 331 -92 q 268 -185 315 -149 q 160 -222 221 -222 l 121 -222 q 76 -203 94 -222 q 57 -158 57 -185 l 57 -119 q 76 -75 57 -93 q 121 -57 94 -57 l 160 -57 q 171 -49 168 -57 l 201 71 q 201 93 206 82 l 60 639 q 71 693 49 671 q 119 719 89 719 l 160 719 q 199 706 182 719 q 221 671 215 693 l 283 433 q 290 428 285 428 q 297 433 296 428 l 360 671 q 383 706 367 693 q 419 719 399 719 l 460 719 q 510 693 492 719 q 521 639 531 671 z "},"ÿ":{"ha":578,"x_min":50,"x_max":528,"o":"m 514 875 q 484 801 514 832 q 411 771 454 771 q 338 801 368 771 q 307 875 307 832 q 338 949 307 919 q 411 979 368 979 q 484 949 454 979 q 514 875 514 919 m 274 875 q 243 801 274 832 q 169 771 213 771 q 96 801 126 771 q 65 875 65 832 q 96 949 65 919 q 169 979 126 979 q 243 949 213 979 q 274 875 274 919 m 521 639 l 329 -92 q 267 -185 314 -149 q 160 -222 221 -222 l 119 -222 q 75 -203 93 -222 q 57 -158 57 -185 l 57 -119 q 75 -75 57 -93 q 119 -57 93 -57 l 160 -57 q 169 -50 169 -57 l 201 72 q 201 94 204 81 l 57 639 q 68 693 50 671 q 119 719 90 719 l 158 719 q 198 706 181 719 q 221 671 215 693 l 283 435 q 290 429 285 429 q 297 435 296 429 l 360 671 q 381 706 364 693 q 419 719 399 719 l 458 719 q 510 693 490 719 q 521 639 528 671 z "},"z":{"ha":579,"x_min":49,"x_max":531,"o":"m 515 626 l 294 181 q 294 169 290 175 q 303 164 297 164 l 450 164 q 494 146 475 164 q 513 100 513 128 l 513 64 q 494 19 513 38 q 450 0 475 0 l 121 0 q 67 31 85 0 q 64 92 49 61 l 286 539 q 286 549 289 543 q 276 554 283 554 l 135 554 q 90 572 108 554 q 71 617 71 590 l 71 654 q 90 701 71 682 q 135 719 108 719 l 458 719 q 513 689 493 719 q 515 626 531 658 z "},"ž":{"ha":575,"x_min":46,"x_max":529,"o":"m 488 903 l 431 804 q 375 772 413 772 l 200 772 q 144 804 163 772 l 88 903 q 88 965 69 935 q 143 997 108 997 l 188 997 q 242 965 224 997 l 249 953 q 276 938 257 938 l 299 938 q 326 953 318 938 l 333 965 q 388 997 351 997 l 432 997 q 488 965 467 997 q 488 903 506 935 m 513 626 l 290 181 q 292 170 289 175 q 301 165 296 165 l 447 165 q 492 147 474 165 q 511 101 511 128 l 511 64 q 492 19 511 38 q 447 0 474 0 l 119 0 q 65 31 83 0 q 63 92 46 58 l 285 538 q 284 549 288 543 q 274 554 281 554 l 132 554 q 87 572 106 554 q 68 617 68 590 l 68 656 q 87 700 68 682 q 132 718 106 718 l 456 718 q 510 689 492 718 q 513 626 529 660 z "},"ﬁ":{"ha":703,"x_min":57,"x_max":646,"o":"m 646 856 q 616 782 646 813 q 542 751 586 751 q 468 782 499 751 q 438 856 438 813 q 468 929 438 899 q 542 960 499 960 q 616 929 586 960 q 646 856 646 899 m 625 64 q 606 19 625 38 q 561 0 588 0 l 524 0 q 478 19 497 0 q 460 64 460 38 l 460 536 q 442 554 460 554 l 240 554 q 222 536 222 554 l 222 64 q 203 19 222 38 q 158 0 185 0 l 121 0 q 76 19 94 0 q 57 64 57 38 l 57 785 q 78 863 57 828 q 133 918 99 897 q 211 939 168 939 l 326 939 q 371 920 353 939 q 389 875 389 901 l 389 838 q 371 792 389 811 q 326 774 353 774 l 240 774 q 222 756 222 774 l 222 736 q 240 718 222 718 l 561 718 q 606 700 588 718 q 625 656 625 682 l 625 64 z "},"ﬂ":{"ha":779,"x_min":56,"x_max":724,"o":"m 724 64 q 706 19 724 38 q 660 0 688 0 l 625 0 q 548 21 583 0 q 492 77 513 42 q 471 154 471 113 l 471 536 q 453 554 471 554 l 239 554 q 221 536 221 554 l 221 64 q 202 19 221 38 q 157 0 183 0 l 119 0 q 74 19 93 0 q 56 64 56 38 l 56 785 q 76 863 56 828 q 132 918 97 897 q 210 939 167 939 l 354 939 q 399 920 381 939 q 417 875 417 901 l 417 838 q 399 792 417 811 q 354 774 381 774 l 239 774 q 221 756 221 774 l 221 736 q 239 718 221 718 l 453 718 q 471 736 471 718 l 471 875 q 490 920 471 901 q 535 939 508 939 l 572 939 q 617 920 599 939 q 636 875 636 901 l 636 183 q 654 165 636 165 l 660 165 q 706 147 688 165 q 724 101 724 128 l 724 64 z "},"ª":{"ha":486,"x_min":56,"x_max":429,"o":"m 429 481 q 394 397 429 432 q 311 363 360 363 l 174 363 q 90 397 125 363 q 56 481 56 432 l 56 618 q 90 701 56 667 q 174 736 125 736 l 246 736 q 265 756 265 736 q 246 774 265 774 l 174 774 q 130 792 147 774 q 113 838 113 811 l 113 875 q 130 921 113 903 q 174 939 147 939 l 311 939 q 394 903 360 939 q 429 819 429 868 l 429 481 m 265 544 l 265 554 q 246 572 265 572 l 240 572 q 221 554 221 572 l 221 544 q 240 526 221 526 l 246 526 q 265 544 265 526 z "},"º":{"ha":510,"x_min":57,"x_max":451,"o":"m 451 481 q 417 397 451 432 q 333 363 382 363 l 176 363 q 92 397 126 363 q 57 481 57 432 l 57 819 q 92 903 57 868 q 176 939 126 939 l 333 939 q 417 903 382 939 q 451 819 451 868 l 451 481 m 288 544 l 288 756 q 269 774 288 774 l 240 774 q 222 756 222 774 l 222 544 q 240 526 222 526 l 269 526 q 288 544 288 526 z "},"ǀ":{"ha":807,"x_min":321,"x_max":486,"o":"m 486 174 q 467 128 486 147 q 422 110 449 110 l 385 110 q 340 128 358 110 q 321 174 321 147 l 321 760 q 340 804 321 786 q 385 822 358 822 l 422 822 q 467 804 449 822 q 486 760 486 786 l 486 174 z "},"あ":{"ha":890,"x_min":57,"x_max":832,"o":"m 832 64 q 814 19 832 38 q 769 0 796 0 l 731 0 q 686 19 704 0 q 668 64 668 38 l 668 460 q 650 478 668 478 l 647 478 q 629 460 629 478 l 629 154 q 608 77 629 113 q 553 21 588 42 q 475 0 518 0 l 211 0 q 133 21 168 0 q 78 77 99 42 q 57 154 57 113 l 57 488 q 78 566 57 531 q 133 622 99 601 q 211 643 168 643 l 243 643 q 261 661 261 643 l 261 672 q 243 690 261 690 l 157 690 q 112 709 131 690 q 93 754 93 728 l 93 792 q 112 837 93 818 q 157 856 131 856 l 243 856 q 261 875 261 856 q 280 919 261 901 q 325 938 299 938 l 363 938 q 408 919 389 938 q 426 875 426 901 q 444 856 426 856 l 704 856 q 749 837 731 856 q 767 792 767 818 l 767 754 q 749 709 767 728 q 704 690 731 690 l 647 690 q 629 672 629 690 l 629 661 q 647 643 629 643 l 678 643 q 756 622 721 643 q 811 566 790 601 q 832 488 832 531 l 832 64 m 464 661 l 464 672 q 446 690 464 690 l 444 690 q 426 672 426 690 l 426 661 q 444 643 426 643 l 446 643 q 464 661 464 643 m 464 183 l 464 460 q 446 478 464 478 l 444 478 q 426 460 426 478 l 426 183 q 444 165 426 165 l 446 165 q 464 183 464 165 m 261 183 l 261 460 q 243 478 261 478 l 240 478 q 222 460 222 478 l 222 183 q 240 165 222 165 l 243 165 q 261 183 261 165 z "},"ぁ":{"ha":914,"x_min":57,"x_max":857,"o":"m 857 65 q 838 19 857 39 q 792 0 819 0 l 753 0 q 706 19 726 0 q 686 65 686 39 l 686 221 q 668 239 686 239 l 665 239 q 647 221 647 239 l 647 160 q 626 79 647 115 q 568 22 604 43 q 488 0 532 0 l 215 0 q 136 22 172 0 q 78 79 100 43 q 57 160 57 115 l 57 250 q 78 331 57 294 q 136 388 100 367 q 215 410 172 410 l 249 410 q 267 428 267 410 l 267 440 q 249 458 267 458 l 160 458 q 114 478 133 458 q 94 524 94 497 l 94 564 q 114 610 94 592 q 160 629 133 629 l 249 629 q 267 649 267 629 q 286 695 267 676 q 332 714 306 714 l 372 714 q 419 695 400 714 q 438 649 438 676 q 456 629 438 629 l 725 629 q 772 610 753 629 q 790 564 790 592 l 790 524 q 772 478 790 497 q 725 458 753 458 l 665 458 q 647 440 647 458 l 647 428 q 665 410 647 410 l 697 410 q 778 388 742 410 q 835 331 814 367 q 857 250 857 294 l 857 65 m 476 428 l 476 440 q 458 458 476 458 l 456 458 q 438 440 438 458 l 438 428 q 456 410 438 410 l 458 410 q 476 428 476 410 m 476 189 l 476 221 q 458 239 476 239 l 456 239 q 438 221 438 239 l 438 189 q 456 169 438 169 l 458 169 q 476 189 476 169 m 267 189 l 267 221 q 249 239 267 239 l 246 239 q 226 221 226 239 l 226 189 q 246 169 226 169 l 249 169 q 267 189 267 169 z "},"い":{"ha":731,"x_min":57,"x_max":674,"o":"m 674 378 q 655 333 674 351 q 610 315 636 315 l 572 315 q 527 333 546 315 q 508 378 508 351 l 508 710 q 501 728 508 721 q 483 735 494 735 l 453 735 q 408 753 426 735 q 390 799 390 772 l 390 836 q 408 881 390 863 q 453 900 426 900 l 483 900 q 579 874 536 900 q 648 806 622 849 q 674 710 674 763 l 674 378 m 428 64 q 410 19 428 38 q 365 0 392 0 l 247 0 q 151 26 194 0 q 83 94 108 51 q 57 190 57 138 l 57 836 q 75 882 57 864 q 119 900 93 900 l 158 900 q 203 882 185 900 q 221 836 221 864 l 221 190 q 229 173 221 181 q 247 165 238 165 l 365 165 q 410 147 392 165 q 428 101 428 128 l 428 64 z "},"ぃ":{"ha":674,"x_min":56,"x_max":618,"o":"m 618 276 q 599 231 618 250 q 553 211 581 211 l 514 211 q 468 231 488 211 q 449 276 449 250 l 449 518 q 441 536 449 529 q 422 543 433 543 l 392 543 q 346 563 365 543 q 326 610 326 582 l 326 649 q 346 695 326 676 q 392 714 365 714 l 422 714 q 521 688 476 714 q 592 617 565 661 q 618 518 618 572 l 618 276 m 440 65 q 421 19 440 39 q 374 0 401 0 l 253 0 q 154 26 199 0 q 83 97 110 53 q 56 196 56 142 l 56 649 q 75 695 56 676 q 121 714 94 714 l 161 714 q 208 695 189 714 q 226 649 226 676 l 226 196 q 234 178 226 186 q 253 169 242 169 l 374 169 q 421 151 401 169 q 440 104 440 132 l 440 65 z "},"う":{"ha":731,"x_min":57,"x_max":674,"o":"m 554 814 q 533 767 554 786 q 492 750 514 750 q 489 751 490 750 q 486 751 488 751 l 244 772 q 203 793 219 775 q 186 836 186 811 l 186 875 q 207 921 186 903 q 256 938 228 940 l 497 915 q 538 896 521 914 q 554 853 554 878 l 554 814 m 674 528 l 674 449 q 653 334 674 390 q 594 233 632 278 l 425 24 q 375 0 406 0 l 326 0 q 269 36 285 0 q 278 103 251 74 l 467 336 q 508 451 508 386 l 508 528 q 501 546 508 539 q 483 553 494 553 l 247 553 q 229 546 238 553 q 221 528 221 539 l 221 489 q 203 444 221 463 q 158 426 185 426 l 119 426 q 75 444 93 426 q 57 489 57 463 l 57 528 q 83 624 57 581 q 151 692 108 667 q 247 718 194 718 l 483 718 q 579 692 536 718 q 648 624 622 667 q 674 528 674 581 z "},"ぅ":{"ha":683,"x_min":57,"x_max":628,"o":"m 532 585 q 510 538 532 557 q 467 519 492 519 l 211 543 q 169 564 186 546 q 151 608 151 582 l 151 649 q 174 696 151 676 q 224 713 194 717 l 472 690 q 515 670 497 689 q 532 625 532 651 l 532 585 m 626 303 l 626 289 q 546 65 624 161 l 511 24 q 461 0 492 0 l 410 0 q 375 10 392 0 q 351 38 358 19 q 360 107 332 75 l 414 172 q 457 290 454 224 l 457 303 q 449 321 457 314 q 431 328 442 328 l 253 328 q 235 321 243 328 q 226 303 226 314 l 226 276 q 208 231 226 250 q 161 211 189 211 l 122 211 q 76 231 96 211 q 57 276 57 250 l 57 303 q 83 401 57 357 q 154 472 110 446 q 253 499 199 499 l 431 499 q 530 472 485 499 q 601 401 575 446 q 626 303 628 357 z "},"え":{"ha":731,"x_min":44,"x_max":674,"o":"m 519 814 q 499 767 519 786 q 457 750 479 750 q 454 751 456 750 q 450 751 453 751 l 210 772 q 168 793 185 775 q 151 836 151 811 l 151 875 q 172 921 151 903 q 221 938 193 940 l 463 915 q 503 896 486 914 q 519 853 519 878 l 519 814 m 674 64 q 655 19 674 38 q 610 0 636 0 l 578 0 q 482 26 525 0 q 413 94 439 51 q 388 190 388 138 l 388 200 q 383 207 388 206 q 374 204 378 208 l 218 22 q 169 0 199 0 l 119 0 q 63 36 78 0 q 72 104 44 74 l 381 465 q 418 533 404 496 q 416 546 421 540 q 404 551 411 551 l 121 551 q 76 570 94 551 q 57 615 57 589 l 57 653 q 76 699 57 681 q 121 717 94 717 l 526 717 q 572 699 554 717 q 590 653 590 681 l 590 588 q 519 376 590 471 q 524 354 511 364 q 551 301 551 336 l 551 190 q 578 165 551 165 l 610 165 q 655 147 636 165 q 674 101 674 128 l 674 64 z "},"ぇ":{"ha":714,"x_min":57,"x_max":657,"o":"m 525 585 q 503 536 525 556 q 460 519 486 519 l 204 542 q 162 563 179 544 q 144 607 144 582 l 144 647 q 167 696 144 676 q 217 713 186 715 l 465 689 q 508 669 490 688 q 525 624 525 650 l 525 585 m 657 64 q 639 19 657 38 q 593 0 621 0 l 471 0 q 426 19 444 0 q 407 64 407 38 l 407 118 q 398 132 407 128 q 382 129 389 136 l 283 40 q 176 0 239 0 l 121 0 q 76 19 94 0 q 57 64 57 38 l 57 106 q 74 150 57 132 q 118 169 92 168 q 218 211 176 174 l 324 304 q 327 319 331 311 q 315 326 324 326 l 121 326 q 76 346 94 326 q 57 392 57 365 l 57 432 q 76 478 57 460 q 121 497 94 497 l 543 497 q 588 478 569 497 q 607 432 607 460 l 607 393 q 558 285 607 329 l 554 282 q 548 266 547 276 q 557 250 549 256 q 576 210 576 238 q 588 181 576 193 q 617 169 600 169 q 645 158 633 169 q 657 131 657 147 l 657 64 z "},"お":{"ha":786,"x_min":56,"x_max":731,"o":"m 731 190 q 705 94 731 138 q 636 26 679 51 q 540 0 593 0 l 522 0 q 477 19 496 0 q 458 64 458 38 l 458 101 q 477 147 458 128 q 522 165 496 165 l 540 165 q 558 173 551 165 q 565 190 565 181 l 565 342 q 558 360 565 353 q 540 368 551 368 l 439 368 q 421 350 421 368 l 421 64 q 402 19 421 38 q 357 0 383 0 l 246 0 q 151 26 194 0 q 81 94 107 51 q 56 190 56 138 l 56 342 q 81 435 56 393 q 147 504 106 478 q 238 532 188 531 q 256 550 256 532 l 256 672 q 238 690 256 690 l 169 690 q 125 709 143 690 q 107 754 107 728 l 107 792 q 125 837 107 818 q 169 856 143 856 l 238 856 q 256 875 256 856 q 274 919 256 901 q 319 938 293 938 l 357 938 q 402 919 383 938 q 421 875 421 901 q 439 856 421 856 l 475 856 q 521 837 503 856 q 539 792 539 818 l 539 754 q 521 709 539 728 q 475 690 503 690 l 439 690 q 421 672 421 690 l 421 550 q 439 532 421 532 l 540 532 q 636 506 593 532 q 705 438 679 481 q 731 342 731 394 l 731 190 m 731 654 q 712 610 731 628 q 667 592 693 592 l 629 592 q 584 610 603 592 q 565 654 565 628 l 565 793 q 584 838 565 819 q 629 856 603 856 l 667 856 q 712 838 693 856 q 731 793 731 819 l 731 654 m 256 181 l 256 353 q 249 364 256 360 q 236 365 243 368 q 221 342 221 358 l 221 190 q 236 167 221 174 q 249 168 243 164 q 256 181 256 172 z "},"ぉ":{"ha":807,"x_min":56,"x_max":751,"o":"m 751 196 q 725 97 751 142 q 654 26 699 53 q 556 0 610 0 l 536 0 q 490 19 510 0 q 471 65 471 39 l 471 104 q 490 151 471 132 q 536 169 510 169 l 556 169 q 574 178 567 169 q 582 196 582 186 l 582 213 q 574 231 582 224 q 556 239 567 239 l 450 239 q 432 221 432 239 l 432 65 q 413 19 432 39 q 367 0 394 0 l 251 0 q 153 26 197 0 q 82 97 108 53 q 56 196 56 142 l 56 213 q 81 309 56 265 q 149 380 106 353 q 243 408 192 407 q 261 428 261 411 l 261 439 q 243 458 261 458 l 174 458 q 127 478 147 458 q 107 524 107 497 l 107 563 q 127 609 107 590 q 174 628 147 628 l 243 628 q 261 649 261 628 q 281 695 261 676 q 328 714 301 714 l 367 714 q 413 695 394 714 q 432 649 432 676 q 450 628 432 628 l 489 628 q 535 609 517 628 q 554 563 554 590 l 554 524 q 535 478 554 497 q 489 458 517 458 l 450 458 q 432 439 432 458 l 432 428 q 450 410 432 410 l 556 410 q 654 383 610 410 q 725 312 699 357 q 751 213 751 267 l 751 196 m 751 526 q 733 480 751 500 q 686 460 714 460 l 647 460 q 601 480 621 460 q 582 526 582 500 l 582 564 q 601 610 582 592 q 647 629 621 629 l 686 629 q 733 610 714 629 q 751 564 751 592 l 751 526 m 261 186 l 261 224 q 254 235 261 231 q 240 236 247 240 q 225 213 225 229 l 225 196 q 240 172 225 181 q 254 174 247 169 q 261 186 261 178 z "},"か":{"ha":874,"x_min":56,"x_max":822,"o":"m 817 499 q 803 447 822 469 q 754 425 786 425 l 715 425 q 675 440 693 425 q 653 478 657 456 l 590 864 q 604 915 586 893 q 653 938 624 938 l 692 938 q 733 923 715 938 q 754 885 750 908 l 817 499 m 588 183 q 563 92 588 133 q 497 25 538 50 q 404 0 456 0 l 376 0 q 331 19 350 0 q 313 64 313 38 l 313 101 q 331 147 313 128 q 376 165 350 165 l 404 165 q 424 183 424 165 l 424 672 q 406 690 424 690 l 365 690 q 344 672 349 690 l 235 53 q 215 15 232 31 q 174 0 197 0 l 135 0 q 86 22 104 0 q 72 74 67 47 l 178 672 q 163 690 181 690 l 119 690 q 74 709 93 690 q 56 754 56 728 l 56 792 q 74 837 56 818 q 119 856 93 856 l 192 856 q 213 874 210 856 l 215 886 q 238 923 219 908 q 278 938 256 938 l 317 938 q 365 915 346 938 q 379 872 381 894 q 396 856 379 856 l 433 856 q 543 810 499 856 q 588 701 588 765 l 588 183 z "},"が":{"ha":874,"x_min":56,"x_max":822,"o":"m 818 786 q 809 763 818 772 q 786 754 800 754 l 749 754 q 726 763 735 754 q 717 786 717 772 l 717 907 q 726 928 717 919 q 749 938 735 938 l 786 938 q 809 928 800 938 q 818 907 818 919 l 818 786 m 692 786 q 682 763 692 772 q 660 754 672 754 l 621 754 q 599 763 608 754 q 589 786 589 772 l 589 907 q 599 928 589 919 q 621 938 608 938 l 660 938 q 682 928 672 938 q 692 907 692 919 l 692 786 m 588 183 q 563 92 588 133 q 497 25 538 50 q 404 0 456 0 l 376 0 q 331 19 350 0 q 313 64 313 38 l 313 101 q 331 147 313 128 q 376 165 350 165 l 404 165 q 424 183 424 165 l 424 672 q 406 690 424 690 l 365 690 q 344 672 349 690 l 235 53 q 214 15 232 31 q 172 0 196 0 l 135 0 q 86 22 104 0 q 72 74 67 47 l 178 672 q 163 690 181 690 l 119 690 q 74 709 93 690 q 56 754 56 728 l 56 792 q 74 837 56 818 q 119 856 93 856 l 192 856 q 213 874 210 856 l 215 886 q 238 923 219 908 q 278 938 256 938 l 317 938 q 364 915 346 938 q 379 872 382 896 q 396 856 379 856 l 433 856 q 511 835 476 856 q 567 779 546 814 q 588 701 588 744 l 588 183 m 817 499 q 803 447 822 469 q 754 425 786 425 l 715 425 q 675 440 693 425 q 653 478 657 456 l 622 665 q 636 717 618 694 q 685 739 656 739 l 724 739 q 765 724 747 739 q 786 686 782 710 l 817 499 z "},"き":{"ha":731,"x_min":57,"x_max":674,"o":"m 674 546 q 655 501 674 519 q 610 482 636 482 l 535 482 q 524 476 529 482 q 521 464 519 471 l 540 351 q 526 299 544 321 q 478 276 507 276 l 247 276 q 229 269 238 276 q 221 251 221 263 l 221 190 q 229 173 221 181 q 247 165 238 165 l 539 165 q 584 147 565 165 q 603 101 603 128 l 603 64 q 584 19 603 38 q 539 0 565 0 l 247 0 q 151 26 194 0 q 83 94 108 51 q 57 190 57 138 l 57 251 q 83 347 57 304 q 151 416 108 390 q 247 442 194 442 l 339 442 q 351 447 346 442 q 354 458 356 453 l 353 464 q 332 482 350 482 l 119 482 q 75 501 93 482 q 57 546 57 519 l 57 583 q 75 628 57 610 q 119 647 93 647 l 303 647 q 318 665 321 647 l 317 674 q 294 690 313 690 l 119 690 q 75 709 93 690 q 57 754 57 728 l 57 792 q 75 838 57 819 q 119 856 93 856 l 265 856 q 282 872 282 856 q 296 915 281 894 q 344 938 315 938 l 383 938 q 424 923 407 938 q 446 885 442 908 l 449 874 q 469 856 451 856 l 610 856 q 655 838 636 856 q 674 792 674 819 l 674 754 q 655 709 674 728 q 610 690 636 690 l 499 690 q 487 685 492 690 q 483 674 482 681 l 485 665 q 506 647 488 647 l 610 647 q 655 628 636 647 q 674 583 674 610 l 674 546 z "},"ぎ":{"ha":749,"x_min":56,"x_max":724,"o":"m 724 786 q 715 763 724 772 q 692 754 706 754 l 654 754 q 631 763 640 754 q 622 786 622 772 l 622 906 q 631 928 622 919 q 654 938 640 938 l 692 938 q 715 928 706 938 q 724 906 724 919 l 724 786 m 596 786 q 587 763 596 772 q 565 754 578 754 l 526 754 q 504 763 514 754 q 494 786 494 772 l 494 906 q 504 928 494 919 q 526 938 514 938 l 565 938 q 587 928 578 938 q 596 906 596 919 l 596 786 m 674 546 q 655 501 674 519 q 610 482 636 482 l 535 482 q 519 464 517 482 l 540 351 q 526 299 544 324 q 478 276 507 276 l 246 276 q 228 269 236 276 q 221 251 221 263 l 221 190 q 228 173 221 181 q 246 165 236 165 l 539 165 q 584 147 565 165 q 603 101 603 128 l 603 64 q 584 19 603 38 q 539 0 565 0 l 246 0 q 151 26 194 0 q 81 94 107 51 q 56 190 56 138 l 56 251 q 81 347 56 304 q 151 416 107 390 q 246 442 194 442 l 339 442 q 351 447 346 442 q 353 458 356 453 l 353 464 q 332 482 349 482 l 119 482 q 74 501 93 482 q 56 546 56 519 l 56 583 q 74 628 56 610 q 119 647 93 647 l 303 647 q 315 653 310 647 q 317 665 319 658 l 315 674 q 294 690 313 690 l 119 690 q 74 709 93 690 q 56 754 56 728 l 56 792 q 74 838 56 819 q 119 856 93 856 l 265 856 q 277 861 272 856 q 281 872 282 867 q 296 915 281 896 q 344 938 315 938 l 383 938 q 424 923 407 938 q 446 885 442 908 l 447 874 q 457 860 450 864 q 469 833 469 850 l 469 786 q 486 745 469 763 q 526 728 503 728 l 565 728 q 596 738 582 728 q 622 738 610 746 q 650 729 635 729 q 659 722 657 728 q 657 713 661 717 q 610 690 639 690 l 499 690 q 487 685 492 690 q 483 674 482 681 l 485 665 q 506 647 488 647 l 610 647 q 655 628 636 647 q 674 583 674 610 l 674 546 z "},"く":{"ha":615,"x_min":42,"x_max":583,"o":"m 568 38 q 510 0 550 0 l 458 0 q 411 21 431 0 l 58 408 q 42 451 42 425 l 42 488 q 58 532 42 514 l 410 917 q 457 938 429 938 l 508 938 q 567 900 549 938 q 556 832 583 863 q 497 768 536 811 q 410 673 458 725 q 317 570 363 621 q 238 483 271 519 q 238 456 226 469 l 557 106 q 568 38 583 76 z "},"ぐ":{"ha":690,"x_min":53,"x_max":661,"o":"m 579 38 q 521 0 561 0 l 469 0 q 422 21 442 0 l 69 408 q 53 451 53 425 l 53 488 q 69 532 53 514 l 421 917 q 468 938 440 938 l 519 938 q 578 900 560 938 q 567 832 593 861 q 508 768 547 811 q 422 673 469 725 q 328 570 374 621 q 249 483 282 519 q 249 456 238 469 l 568 106 q 579 38 594 76 m 661 518 q 652 495 661 504 q 629 486 643 486 l 592 486 q 569 495 578 486 q 560 518 560 504 l 560 639 q 569 660 560 651 q 592 669 578 669 l 629 669 q 652 660 643 669 q 661 639 661 651 l 661 518 m 533 518 q 524 495 533 504 q 501 486 515 486 l 464 486 q 441 495 450 486 q 432 518 432 504 l 432 639 q 441 660 432 651 q 464 669 450 669 l 501 669 q 524 660 515 669 q 533 639 533 651 l 533 518 z "},"け":{"ha":771,"x_min":56,"x_max":715,"o":"m 715 674 q 697 629 715 647 q 653 611 679 611 l 632 611 q 614 593 614 611 l 614 372 q 554 176 614 267 l 454 28 q 401 0 436 0 l 357 0 q 300 33 318 0 q 304 99 282 68 l 417 268 q 449 372 449 317 l 449 593 q 431 611 449 611 l 361 611 q 316 629 335 611 q 297 674 297 647 l 297 713 q 316 757 297 739 q 361 775 335 775 l 431 775 q 449 793 449 775 l 449 875 q 467 919 449 901 q 513 938 486 938 l 550 938 q 595 919 576 938 q 614 875 614 901 l 614 793 q 632 775 614 775 l 653 775 q 697 757 679 775 q 715 713 715 739 l 715 674 m 276 281 q 276 217 294 249 q 221 186 258 186 l 178 186 q 122 218 140 186 l 100 257 q 56 429 56 338 l 56 792 q 74 838 56 819 q 119 856 93 856 l 157 856 q 202 838 183 856 q 221 792 221 819 l 221 429 q 244 338 221 381 l 276 281 z "},"げ":{"ha":867,"x_min":56,"x_max":868,"o":"m 868 786 q 858 763 868 772 q 836 754 849 754 l 797 754 q 776 763 785 754 q 767 786 767 772 l 767 907 q 776 928 767 919 q 797 938 785 938 l 836 938 q 858 928 849 938 q 868 907 868 919 l 868 786 m 740 786 q 731 763 740 772 q 708 754 722 754 l 671 754 q 648 763 657 754 q 639 786 639 772 l 639 907 q 648 928 639 919 q 671 938 657 938 l 708 938 q 731 928 722 938 q 740 907 740 919 l 740 786 m 715 674 q 697 629 715 647 q 653 611 679 611 l 632 611 q 614 593 614 611 l 614 372 q 554 176 614 267 l 454 28 q 401 0 438 0 l 356 0 q 300 33 318 0 q 303 99 282 67 l 417 268 q 449 372 449 317 l 449 593 q 431 611 449 611 l 361 611 q 316 629 335 611 q 297 674 297 647 l 297 713 q 316 757 297 739 q 361 775 335 775 l 431 775 q 449 793 449 775 l 449 875 q 467 919 449 901 q 513 938 486 938 l 550 938 q 595 919 576 938 q 614 875 614 901 l 614 786 q 631 746 614 763 q 671 729 647 729 l 697 729 q 710 723 704 729 q 715 710 715 717 l 715 674 m 276 281 q 276 217 294 249 q 221 186 258 186 l 178 186 q 122 218 140 186 l 100 257 q 56 429 56 338 l 56 792 q 74 838 56 819 q 119 856 93 856 l 157 856 q 202 838 183 856 q 221 792 221 819 l 221 429 q 244 338 221 381 l 276 281 z "},"こ":{"ha":650,"x_min":56,"x_max":594,"o":"m 594 560 q 576 515 594 533 q 531 497 557 497 l 493 497 q 448 515 467 497 q 429 560 429 533 l 429 710 q 422 728 429 721 q 404 735 415 735 l 119 735 q 74 753 93 735 q 56 799 56 772 l 56 836 q 74 882 56 864 q 119 900 93 900 l 404 900 q 500 874 457 900 q 569 806 543 849 q 594 710 594 763 l 594 560 m 594 64 q 576 19 594 38 q 531 0 557 0 l 247 0 q 151 26 194 0 q 83 94 108 51 q 57 190 57 138 l 57 378 q 75 424 57 406 q 119 442 93 442 l 158 442 q 203 424 185 442 q 221 378 221 406 l 221 190 q 247 165 221 165 l 531 165 q 576 147 557 165 q 594 101 594 128 l 594 64 z "},"ご":{"ha":694,"x_min":56,"x_max":694,"o":"m 694 786 q 685 763 694 772 q 663 754 676 754 l 625 754 q 602 763 611 754 q 593 786 593 772 l 593 906 q 602 928 593 919 q 625 938 611 938 l 663 938 q 685 928 676 938 q 694 906 694 919 l 694 786 m 567 786 q 558 763 567 772 q 535 754 549 754 l 497 754 q 474 763 483 754 q 465 786 465 772 l 465 906 q 474 928 465 919 q 497 938 483 938 l 535 938 q 558 928 549 938 q 567 906 567 919 l 567 786 m 593 560 q 574 515 593 533 q 529 497 556 497 l 492 497 q 447 515 465 497 q 428 560 428 533 l 428 710 q 421 728 428 721 q 403 735 414 735 l 118 735 q 74 753 92 735 q 56 799 56 772 l 56 836 q 74 882 56 864 q 118 900 92 900 l 403 900 q 413 900 408 900 q 422 899 417 900 q 440 879 440 896 l 440 786 q 457 745 440 763 q 497 728 474 728 l 535 728 q 575 744 556 728 q 585 744 581 750 q 592 732 589 742 q 592 722 592 726 q 593 710 593 717 l 593 560 m 593 64 q 574 19 593 38 q 529 0 556 0 l 246 0 q 150 26 193 0 q 81 94 107 51 q 56 190 56 138 l 56 378 q 74 424 56 406 q 118 442 92 442 l 157 442 q 201 424 183 442 q 219 378 219 406 l 219 190 q 228 173 219 181 q 246 165 236 165 l 529 165 q 574 147 556 165 q 593 101 593 128 l 593 64 z "},"さ":{"ha":731,"x_min":57,"x_max":674,"o":"m 674 754 q 655 709 674 728 q 610 690 636 690 l 499 690 q 487 685 492 690 q 483 674 482 681 l 521 461 q 507 410 525 431 q 478 392 497 399 q 458 386 458 386 l 247 388 q 229 379 236 388 q 221 361 221 374 l 221 190 q 229 173 221 181 q 247 165 238 165 l 522 165 q 567 147 549 165 q 585 101 585 128 l 585 64 q 567 19 585 38 q 522 0 549 0 l 247 0 q 151 26 194 0 q 83 94 108 51 q 57 190 57 138 l 57 361 q 113 496 57 440 q 247 551 168 551 l 319 551 q 335 569 338 551 l 317 674 q 294 690 313 690 l 119 690 q 75 709 93 690 q 57 754 57 728 l 57 792 q 75 838 57 819 q 119 856 93 856 l 265 856 q 282 872 282 856 q 296 915 281 894 q 344 938 315 938 l 383 938 q 424 923 407 938 q 446 886 442 908 l 449 874 q 469 856 451 856 l 610 856 q 655 838 636 856 q 674 792 674 819 l 674 754 z "},"ざ":{"ha":749,"x_min":56,"x_max":743,"o":"m 743 786 q 733 763 743 772 q 711 754 724 754 l 672 754 q 651 763 660 754 q 642 786 642 772 l 642 906 q 651 928 642 919 q 672 938 660 938 l 711 938 q 733 928 724 938 q 743 906 743 919 l 743 786 m 615 786 q 606 763 615 772 q 583 754 597 754 l 546 754 q 523 763 532 754 q 514 786 514 772 l 514 906 q 523 928 514 919 q 546 938 532 938 l 583 938 q 606 928 597 938 q 615 906 615 919 l 615 786 m 657 713 q 610 690 639 690 l 497 690 q 487 685 492 690 q 483 674 482 681 l 521 461 q 507 410 525 432 q 478 392 497 399 q 458 386 458 386 l 246 388 q 228 379 236 388 q 221 361 221 372 l 221 190 q 228 173 221 181 q 246 165 236 165 l 521 165 q 567 147 549 165 q 585 101 585 128 l 585 64 q 567 19 585 38 q 521 0 549 0 l 246 0 q 151 26 194 0 q 81 94 107 51 q 56 190 56 138 l 56 361 q 113 496 56 439 q 246 551 165 551 l 319 551 q 331 557 326 551 q 333 569 336 563 l 315 674 q 294 690 313 690 l 119 690 q 74 709 93 690 q 56 754 56 728 l 56 792 q 74 838 56 819 q 119 856 93 856 l 265 856 q 277 861 272 856 q 281 872 282 867 q 296 915 281 896 q 344 938 315 938 l 383 938 q 424 923 407 938 q 446 886 442 908 l 447 874 q 469 856 451 856 l 471 856 q 489 838 489 856 l 489 786 q 506 745 489 763 q 546 728 522 728 l 583 728 q 601 731 593 728 q 615 738 608 733 q 642 738 629 746 q 647 735 644 736 q 651 732 650 733 q 660 724 658 731 q 657 713 661 717 z "},"し":{"ha":692,"x_min":57,"x_max":635,"o":"m 635 183 q 610 92 635 133 q 544 25 585 50 q 451 0 503 0 l 240 0 q 149 25 190 0 q 82 92 107 50 q 57 183 57 133 l 57 874 q 75 919 57 900 q 119 938 93 938 l 158 938 q 203 919 185 938 q 221 874 221 900 l 221 183 q 240 165 221 165 l 451 165 q 471 183 471 165 l 471 378 q 489 422 471 404 q 533 440 507 440 l 572 440 q 617 422 599 440 q 635 378 635 404 l 635 183 z "},"じ":{"ha":692,"x_min":57,"x_max":635,"o":"m 635 785 q 626 762 635 771 q 603 753 617 753 l 565 753 q 542 762 551 753 q 533 785 533 771 l 533 906 q 542 928 533 919 q 565 938 551 938 l 603 938 q 626 928 617 938 q 635 906 635 919 l 635 785 m 508 785 q 499 762 508 771 q 476 753 490 753 l 439 753 q 416 762 425 753 q 407 785 407 771 l 407 906 q 416 928 407 919 q 439 938 425 938 l 476 938 q 499 928 490 938 q 508 906 508 919 l 508 785 m 635 183 q 610 92 635 133 q 544 25 585 50 q 451 0 503 0 l 240 0 q 149 25 190 0 q 82 92 107 50 q 57 183 57 133 l 57 874 q 75 919 57 900 q 119 938 93 938 l 158 938 q 203 919 185 938 q 221 874 221 900 l 221 183 q 240 165 221 165 l 451 165 q 465 171 458 165 q 471 183 471 176 l 471 378 q 489 422 471 404 q 533 440 507 440 l 572 440 q 617 422 599 440 q 635 378 635 404 l 635 183 z "},"す":{"ha":731,"x_min":57,"x_max":674,"o":"m 674 754 q 655 709 674 728 q 610 690 636 690 l 586 690 q 568 672 568 690 l 568 372 q 510 176 568 264 l 410 28 q 357 0 392 0 l 311 0 q 256 33 274 0 q 258 99 238 67 q 292 149 274 121 q 329 203 311 176 q 358 247 347 231 q 358 256 361 251 q 349 261 356 261 q 257 286 299 261 q 190 353 215 311 q 165 446 165 396 l 165 465 q 190 558 165 517 q 257 624 215 599 q 349 649 299 649 l 386 649 q 404 665 404 649 l 404 672 q 386 690 404 690 l 119 690 q 75 709 93 690 q 57 754 57 728 l 57 792 q 75 838 57 819 q 119 856 93 856 l 386 856 q 404 875 404 856 q 422 919 404 901 q 467 938 440 938 l 506 938 q 550 919 532 938 q 568 875 568 901 q 586 856 568 856 l 610 856 q 655 838 636 856 q 674 792 674 819 l 674 754 m 404 444 l 404 465 q 398 478 404 472 q 385 483 392 483 l 349 483 q 331 465 331 483 l 331 446 q 349 426 331 426 l 386 426 q 404 444 404 426 z "},"ず":{"ha":822,"x_min":56,"x_max":821,"o":"m 821 786 q 812 763 821 772 q 790 754 803 754 l 751 754 q 729 763 739 754 q 719 786 719 772 l 719 906 q 729 928 719 919 q 751 938 739 938 l 790 938 q 812 928 803 938 q 821 906 821 919 l 821 786 m 694 786 q 685 763 694 772 q 663 754 676 754 l 625 754 q 602 763 611 754 q 593 786 593 772 l 593 906 q 602 928 593 919 q 625 938 611 938 l 663 938 q 685 928 676 938 q 694 906 694 919 l 694 786 m 657 713 q 636 697 649 703 q 608 690 624 690 l 585 690 q 568 672 568 690 l 568 372 q 508 176 568 267 l 408 28 q 357 0 390 0 l 311 0 q 254 33 272 0 q 258 99 236 68 l 357 247 q 357 256 360 251 q 349 261 354 261 q 256 286 299 261 q 189 353 214 311 q 164 446 164 396 l 164 465 q 189 558 164 517 q 256 624 214 599 q 349 649 299 649 l 385 649 q 403 665 403 649 l 403 672 q 385 690 403 690 l 119 690 q 74 709 93 690 q 56 754 56 728 l 56 792 q 74 838 56 819 q 119 856 93 856 l 385 856 q 403 875 403 856 q 422 919 403 901 q 467 938 440 938 l 504 938 q 549 919 531 938 q 568 875 568 901 l 568 786 q 585 745 568 763 q 625 728 601 728 l 650 728 q 659 723 657 728 q 657 713 661 718 m 403 444 l 403 465 q 383 483 403 483 l 349 483 q 329 465 329 483 l 329 446 q 349 426 329 426 l 385 426 q 403 444 403 426 z "},"せ":{"ha":731,"x_min":56,"x_max":674,"o":"m 674 754 q 656 709 674 728 q 611 690 638 690 l 607 690 q 589 672 589 690 l 589 378 q 571 333 589 351 q 526 315 553 315 l 488 315 q 443 333 461 315 q 425 378 425 351 l 425 672 q 407 690 425 690 l 325 690 q 307 672 307 690 l 307 183 q 326 165 307 165 l 572 165 q 617 147 599 165 q 635 101 635 128 l 635 64 q 617 19 635 38 q 572 0 599 0 l 326 0 q 234 25 276 0 q 167 92 192 50 q 142 183 142 133 l 142 672 q 124 690 142 690 l 119 690 q 74 709 93 690 q 56 754 56 728 l 56 792 q 74 838 56 819 q 119 856 93 856 l 124 856 q 142 874 142 856 l 142 875 q 160 920 142 901 q 206 939 179 939 l 243 939 q 288 920 269 939 q 307 875 307 901 l 307 874 q 325 856 307 856 l 407 856 q 425 874 425 856 l 425 875 q 443 920 425 901 q 488 939 461 939 l 526 939 q 571 920 553 939 q 589 875 589 901 l 589 874 q 607 856 589 856 l 611 856 q 656 838 638 856 q 674 792 674 819 l 674 754 z "},"ぜ":{"ha":731,"x_min":56,"x_max":674,"o":"m 663 719 q 611 690 644 690 l 607 690 q 589 672 589 690 l 589 378 q 571 333 589 351 q 526 315 553 315 l 488 315 q 443 333 461 315 q 425 378 425 351 l 425 672 q 407 690 425 690 l 325 690 q 307 672 307 690 l 307 183 q 326 165 307 165 l 572 165 q 617 147 599 165 q 635 101 635 128 l 635 64 q 617 19 635 38 q 572 0 599 0 l 326 0 q 234 25 276 0 q 167 92 192 50 q 142 183 142 133 l 142 672 q 124 690 142 690 l 119 690 q 74 709 93 690 q 56 754 56 728 l 56 792 q 74 838 56 819 q 119 856 93 856 l 124 856 q 142 874 142 856 l 142 875 q 160 920 142 901 q 206 939 179 939 l 243 939 q 288 920 269 939 q 307 875 307 901 l 307 874 q 325 856 307 856 l 401 856 q 419 838 419 856 l 419 786 q 437 745 419 763 q 476 728 454 728 l 515 728 q 546 738 532 728 q 572 738 560 747 q 604 728 589 728 l 642 728 q 656 731 647 728 q 663 728 660 732 q 663 719 665 724 m 674 786 q 665 763 674 772 q 642 754 656 754 l 604 754 q 581 763 590 754 q 572 786 572 772 l 572 906 q 581 928 572 919 q 604 938 590 938 l 642 938 q 665 928 656 938 q 674 906 674 919 l 674 786 m 547 786 q 538 763 547 772 q 515 754 528 754 l 476 754 q 455 763 464 754 q 446 786 446 772 l 446 906 q 455 928 446 919 q 476 938 464 938 l 515 938 q 538 928 528 938 q 547 906 547 919 l 547 786 z "},"そ":{"ha":731,"x_min":57,"x_max":674,"o":"m 674 617 q 655 572 674 590 q 610 553 636 553 l 408 553 q 383 536 390 553 l 313 378 q 296 301 296 343 l 296 190 q 303 173 296 181 q 321 165 311 165 l 503 165 q 547 147 529 165 q 565 101 565 128 l 565 64 q 547 19 565 38 q 503 0 529 0 l 321 0 q 225 26 268 0 q 156 94 182 51 q 131 190 131 138 l 131 301 q 139 375 131 339 q 161 446 147 411 l 203 536 q 202 548 206 543 q 192 553 199 553 l 119 553 q 75 572 93 553 q 57 617 57 590 l 57 654 q 75 699 57 681 q 119 718 93 718 l 332 718 q 357 735 351 718 l 367 757 q 367 768 369 763 q 357 774 364 774 l 210 774 q 165 792 183 774 q 147 836 147 810 l 147 875 q 165 919 147 901 q 210 938 183 938 l 531 938 q 585 910 564 938 q 589 849 603 881 l 538 735 q 540 724 536 729 q 549 718 543 718 l 610 718 q 655 699 636 718 q 674 654 674 681 l 674 617 z "},"ぞ":{"ha":731,"x_min":57,"x_max":674,"o":"m 674 617 q 655 572 674 590 q 610 553 636 553 l 408 553 q 383 536 390 553 l 313 378 q 296 301 296 343 l 296 190 q 303 173 296 181 q 321 165 311 165 l 503 165 q 547 147 529 165 q 565 101 565 128 l 565 64 q 547 19 565 38 q 503 0 529 0 l 321 0 q 225 26 268 0 q 156 94 182 51 q 131 190 131 138 l 131 301 q 139 375 131 339 q 161 446 147 411 l 203 536 q 202 548 206 543 q 192 553 199 553 l 119 553 q 75 572 93 553 q 57 617 57 590 l 57 654 q 75 699 57 681 q 119 718 93 718 l 332 718 q 357 735 351 718 l 367 757 q 367 768 369 763 q 357 774 364 774 l 210 774 q 165 792 183 774 q 147 836 147 810 l 147 875 q 165 919 147 901 q 210 938 183 938 l 531 938 q 585 910 564 938 q 589 849 603 881 l 538 735 q 540 724 536 729 q 549 718 543 718 l 610 718 q 655 699 636 718 q 674 654 674 681 l 674 617 m 674 375 q 665 352 674 361 q 642 343 656 343 l 604 343 q 581 352 590 343 q 572 375 572 361 l 572 496 q 581 517 572 508 q 604 526 590 526 l 642 526 q 665 517 656 526 q 674 496 674 508 l 674 375 m 546 375 q 537 352 546 361 q 515 343 528 343 l 476 343 q 454 352 464 343 q 444 375 444 361 l 444 496 q 454 517 444 508 q 476 526 464 526 l 515 526 q 537 517 528 526 q 546 496 546 508 l 546 375 z "},"た":{"ha":776,"x_min":57,"x_max":719,"o":"m 546 754 q 528 709 546 728 q 483 690 510 690 l 326 690 q 308 672 308 690 l 308 64 q 290 19 308 38 q 244 0 272 0 l 207 0 q 162 19 181 0 q 143 64 143 38 l 143 672 q 125 690 143 690 l 119 690 q 75 709 93 690 q 57 754 57 728 l 57 792 q 75 837 57 818 q 119 856 93 856 l 125 856 q 143 875 143 856 q 162 919 143 901 q 207 938 181 938 l 244 938 q 290 919 272 938 q 308 875 308 901 q 326 856 308 856 l 483 856 q 528 837 510 856 q 546 792 546 818 l 546 754 m 719 442 q 701 397 719 415 q 657 379 683 379 l 618 379 q 574 397 592 379 q 556 442 556 415 l 556 463 q 548 481 556 474 q 529 489 540 489 l 406 489 q 360 507 379 489 q 342 551 342 525 l 342 590 q 360 635 342 617 q 406 653 379 653 l 529 653 q 625 627 582 653 q 694 558 668 601 q 719 463 719 515 l 719 442 m 719 64 q 701 19 719 38 q 657 0 683 0 l 532 0 q 437 26 481 0 q 367 94 393 51 q 342 190 342 138 l 342 283 q 360 328 342 310 q 406 346 379 346 l 443 346 q 489 328 471 346 q 507 283 507 310 l 507 190 q 515 173 507 181 q 532 165 522 165 l 657 165 q 701 147 683 165 q 719 101 719 128 l 719 64 z "},"だ":{"ha":774,"x_min":54,"x_max":718,"o":"m 718 786 q 709 763 718 772 q 686 754 700 754 l 649 754 q 626 763 635 754 q 617 786 617 772 l 617 906 q 626 928 617 919 q 649 938 635 938 l 686 938 q 709 928 700 938 q 718 906 718 919 l 718 786 m 592 786 q 582 763 592 772 q 560 754 572 754 l 521 754 q 499 763 508 754 q 490 786 490 772 l 490 906 q 499 928 490 919 q 521 938 508 938 l 560 938 q 582 928 572 938 q 592 906 592 919 l 592 786 m 529 713 q 481 690 511 690 l 325 690 q 307 672 307 690 l 307 64 q 288 19 307 38 q 243 0 269 0 l 206 0 q 160 19 179 0 q 142 64 142 38 l 142 672 q 124 690 142 690 l 118 690 q 73 709 92 690 q 54 754 54 728 l 54 792 q 73 837 54 818 q 118 856 92 856 l 124 856 q 142 875 142 856 q 160 919 142 901 q 206 938 179 938 l 243 938 q 288 919 269 938 q 307 875 307 901 q 325 856 307 856 l 446 856 q 464 838 464 856 l 464 786 q 481 745 464 763 q 521 728 499 728 q 531 723 528 728 q 529 713 533 718 m 718 442 q 700 397 718 415 q 656 379 682 379 l 617 379 q 572 397 590 379 q 554 442 554 415 l 554 463 q 547 481 554 474 q 528 489 539 489 l 404 489 q 359 507 378 489 q 340 551 340 525 l 340 590 q 359 635 340 617 q 404 653 378 653 l 528 653 q 624 627 581 653 q 692 558 667 601 q 718 463 718 515 l 718 442 m 718 64 q 700 19 718 38 q 656 0 682 0 l 531 0 q 435 26 479 0 q 366 94 392 51 q 340 190 340 138 l 340 283 q 359 328 340 310 q 404 346 378 346 l 442 346 q 487 328 468 346 q 506 283 506 310 l 506 190 q 513 173 506 181 q 531 165 521 165 l 656 165 q 700 147 682 165 q 718 101 718 128 l 718 64 z "},"ち":{"ha":731,"x_min":57,"x_max":674,"o":"m 674 190 q 648 94 674 138 q 579 26 622 51 q 483 0 536 0 l 272 0 q 227 19 246 0 q 208 64 208 38 l 208 101 q 227 147 208 128 q 272 165 246 165 l 483 165 q 501 173 494 165 q 508 190 508 181 l 508 361 q 501 379 508 372 q 483 388 493 388 l 271 386 q 222 410 242 386 q 208 461 204 432 l 246 674 q 244 685 249 681 q 232 690 239 690 l 119 690 q 75 709 93 690 q 57 754 57 728 l 57 792 q 75 838 57 819 q 119 856 93 856 l 261 856 q 282 874 279 856 l 283 886 q 306 923 288 908 q 346 938 324 938 l 385 938 q 433 915 414 938 q 449 872 449 896 q 465 856 449 856 l 610 856 q 655 838 636 856 q 674 792 674 819 l 674 754 q 655 709 674 728 q 610 690 636 690 l 435 690 q 414 674 417 690 l 396 569 q 399 557 394 563 q 410 551 404 551 l 483 551 q 618 496 563 551 q 674 361 674 440 l 674 190 z "},"ぢ":{"ha":758,"x_min":57,"x_max":703,"o":"m 703 786 q 693 763 703 772 q 671 754 683 754 l 632 754 q 610 763 619 754 q 601 786 601 772 l 601 906 q 610 928 601 919 q 632 938 619 938 l 671 938 q 693 928 683 938 q 703 906 703 919 l 703 786 m 575 786 q 566 763 575 772 q 543 754 557 754 l 506 754 q 483 763 492 754 q 474 786 474 772 l 474 906 q 483 928 474 919 q 506 938 492 938 l 543 938 q 566 928 557 938 q 575 906 575 919 l 575 786 m 674 190 q 648 94 674 138 q 579 26 622 51 q 483 0 536 0 l 272 0 q 227 19 246 0 q 208 64 208 38 l 208 101 q 227 147 208 128 q 272 165 246 165 l 483 165 q 501 173 494 165 q 508 190 508 181 l 508 361 q 501 379 508 372 q 483 388 493 388 l 271 386 q 222 410 242 386 q 208 461 204 432 l 246 674 q 244 685 249 681 q 232 690 239 690 l 119 690 q 75 709 93 690 q 57 754 57 728 l 57 792 q 75 838 57 819 q 119 856 93 856 l 261 856 q 282 874 278 856 l 283 886 q 306 923 288 908 q 346 938 324 938 l 385 938 q 433 915 414 938 q 449 872 449 896 l 449 786 q 465 745 449 763 q 506 728 482 728 l 543 728 q 560 731 553 728 q 575 738 568 733 q 601 738 589 746 q 632 728 617 728 l 650 728 q 659 722 657 728 q 658 713 661 717 q 610 690 639 690 l 435 690 q 414 674 417 690 l 396 569 q 399 557 394 563 q 410 551 404 551 l 483 551 q 618 496 563 551 q 674 361 674 440 l 674 190 z "},"つ":{"ha":731,"x_min":57,"x_max":674,"o":"m 674 183 q 649 92 674 133 q 582 25 624 50 q 489 0 540 0 l 263 0 q 217 19 236 0 q 199 64 199 38 l 199 101 q 217 147 199 128 q 263 165 236 165 l 489 165 q 508 183 508 165 l 508 672 q 489 690 508 690 l 119 690 q 75 709 93 690 q 57 754 57 728 l 57 792 q 75 838 57 819 q 119 856 93 856 l 489 856 q 582 831 540 856 q 649 765 624 806 q 674 672 674 724 l 674 183 z "},"っ":{"ha":749,"x_min":93,"x_max":731,"o":"m 731 190 q 705 94 731 138 q 636 26 679 51 q 540 0 593 0 l 306 0 q 260 19 279 0 q 240 65 240 39 l 240 104 q 260 151 240 132 q 306 169 279 169 l 540 169 q 560 190 560 169 l 560 438 q 540 457 560 457 l 158 457 q 113 476 132 457 q 93 522 93 496 l 93 563 q 113 609 93 590 q 158 628 132 628 l 540 628 q 636 602 593 628 q 705 533 679 576 q 731 438 731 490 l 731 190 z "},"づ":{"ha":731,"x_min":57,"x_max":674,"o":"m 674 786 q 665 763 674 772 q 642 754 656 754 l 604 754 q 581 763 590 754 q 572 786 572 772 l 572 906 q 581 928 572 919 q 604 938 590 938 l 642 938 q 665 928 656 938 q 674 906 674 919 l 674 786 m 546 786 q 537 763 546 772 q 515 754 528 754 l 476 754 q 454 763 464 754 q 444 786 444 772 l 444 906 q 454 928 444 919 q 476 938 464 938 l 515 938 q 537 928 528 938 q 546 906 546 919 l 546 786 m 674 183 q 649 92 674 133 q 582 25 624 50 q 489 0 540 0 l 263 0 q 217 19 236 0 q 199 64 199 38 l 199 101 q 217 147 199 128 q 263 165 236 165 l 489 165 q 508 183 508 165 l 508 672 q 489 690 508 690 l 119 690 q 75 709 93 690 q 57 754 57 728 l 57 792 q 75 838 57 819 q 119 856 93 856 l 401 856 q 419 838 419 856 l 419 786 q 436 745 419 763 q 476 728 453 728 l 515 728 q 546 738 532 728 q 572 738 560 746 q 587 731 579 733 q 604 728 594 728 l 647 729 q 668 714 665 729 q 674 672 674 696 l 674 183 z "},"て":{"ha":731,"x_min":57,"x_max":674,"o":"m 674 836 l 674 761 q 650 711 674 731 l 364 475 q 311 361 311 431 l 311 190 q 319 173 311 181 q 336 165 326 165 l 572 165 q 617 147 599 165 q 635 101 635 128 l 635 64 q 617 19 635 38 q 572 0 599 0 l 336 0 q 241 26 285 0 q 172 94 197 51 q 146 190 146 138 l 146 361 q 176 494 146 431 q 260 601 206 557 l 406 722 q 407 730 408 725 q 400 735 406 735 l 119 735 q 75 753 93 735 q 57 799 57 772 l 57 836 q 75 882 57 864 q 119 900 93 900 l 610 900 q 656 882 635 900 q 674 836 674 861 z "},"で":{"ha":731,"x_min":57,"x_max":674,"o":"m 674 836 l 674 761 q 650 711 674 731 l 364 475 q 311 361 311 431 l 311 190 q 319 173 311 181 q 336 165 326 165 l 572 165 q 617 147 599 165 q 635 101 635 128 l 635 64 q 617 19 635 38 q 572 0 599 0 l 336 0 q 241 26 285 0 q 172 94 197 51 q 146 190 146 138 l 146 361 q 176 494 146 431 q 260 601 206 557 l 406 722 q 407 730 408 725 q 400 735 406 735 l 119 735 q 75 753 93 735 q 57 799 57 772 l 57 836 q 75 882 57 864 q 119 900 93 900 l 610 900 q 656 882 635 900 q 674 836 674 861 m 674 383 q 665 360 674 369 q 642 351 656 351 l 604 351 q 581 360 590 351 q 572 383 572 369 l 572 504 q 581 526 572 517 q 604 535 590 535 l 642 535 q 665 526 656 535 q 674 504 674 517 l 674 383 m 546 383 q 537 360 546 369 q 515 351 528 351 l 476 351 q 454 360 464 351 q 444 383 444 369 l 444 504 q 454 526 444 517 q 476 535 464 535 l 515 535 q 537 526 528 535 q 546 504 546 517 l 546 383 z "},"と":{"ha":728,"x_min":56,"x_max":672,"o":"m 672 64 q 654 19 672 38 q 610 0 636 0 l 246 0 q 151 26 194 0 q 81 94 107 51 q 56 190 56 138 l 56 369 q 92 503 56 440 q 188 603 128 567 l 204 613 q 211 639 218 622 l 101 844 q 104 907 85 879 q 158 938 122 938 l 201 938 q 257 904 239 938 l 353 724 q 376 717 360 708 l 492 788 q 508 815 508 797 l 508 836 q 526 882 508 864 q 571 900 544 900 l 610 900 q 654 881 636 900 q 672 836 672 863 l 672 786 q 653 715 672 749 q 601 661 635 681 l 274 463 q 235 423 249 449 q 221 369 221 397 l 221 190 q 228 173 221 181 q 246 165 236 165 l 610 165 q 654 147 636 165 q 672 101 672 128 l 672 64 z "},"ど":{"ha":731,"x_min":57,"x_max":674,"o":"m 674 64 q 655 19 674 38 q 610 0 636 0 l 247 0 q 151 26 194 0 q 83 94 108 51 q 57 190 57 138 l 57 369 q 92 503 57 440 q 189 603 128 567 l 206 613 q 213 639 219 622 l 103 844 q 104 907 86 876 q 158 938 122 938 l 201 938 q 258 904 240 938 l 353 724 q 376 717 363 710 l 493 788 q 508 815 508 796 l 508 836 q 526 882 508 861 q 572 900 547 900 l 610 900 q 655 881 636 900 q 674 836 674 863 l 674 786 q 654 715 674 749 q 603 661 635 681 l 274 463 q 235 423 250 449 q 221 369 221 397 l 221 190 q 229 173 221 181 q 247 165 238 165 l 610 165 q 655 147 636 165 q 674 101 674 128 l 674 64 m 674 397 q 665 374 674 383 q 642 365 656 365 l 604 365 q 581 374 590 365 q 572 397 572 383 l 572 518 q 581 540 572 531 q 604 550 590 550 l 642 550 q 665 540 656 550 q 674 518 674 531 l 674 397 m 546 397 q 537 374 546 383 q 515 365 528 365 l 476 365 q 453 374 463 365 q 444 397 444 383 l 444 518 q 453 540 444 531 q 476 550 463 550 l 515 550 q 537 540 528 550 q 546 518 546 531 l 546 397 z "},"な":{"ha":831,"x_min":56,"x_max":775,"o":"m 426 754 q 408 710 426 728 q 364 692 390 692 l 328 692 q 307 674 310 692 l 279 546 q 258 510 275 524 q 217 496 240 496 l 178 496 q 129 519 149 496 q 117 572 110 543 l 138 674 q 135 686 140 681 q 124 692 131 692 l 118 692 q 74 710 92 692 q 56 754 56 728 l 56 793 q 74 838 56 819 q 118 856 92 856 l 158 856 q 181 874 175 856 l 183 889 q 206 925 189 911 q 246 939 224 939 l 285 939 q 333 915 317 939 q 347 874 350 894 q 364 856 347 856 q 408 838 390 856 q 426 793 426 819 l 426 754 m 775 650 q 757 605 775 624 q 713 586 739 586 l 674 586 q 629 605 647 586 q 611 650 611 624 l 611 674 q 593 692 611 692 l 532 692 q 487 710 506 692 q 468 754 468 728 l 468 793 q 487 838 468 819 q 532 856 506 856 l 621 856 q 731 811 686 856 q 775 701 775 767 l 775 650 m 686 340 q 668 295 686 314 q 624 276 650 276 l 601 276 q 583 258 583 276 l 583 190 q 558 94 583 138 q 489 26 532 51 q 393 0 446 0 l 336 0 q 240 26 283 0 q 172 94 197 51 q 146 190 146 138 l 146 251 q 172 347 146 304 q 240 416 197 390 q 336 442 283 442 l 400 442 q 418 460 418 442 l 418 563 q 437 608 418 589 q 482 626 456 626 l 519 626 q 565 608 547 626 q 583 563 583 589 l 583 460 q 601 442 583 442 l 624 442 q 668 424 650 442 q 686 378 686 406 l 686 340 m 418 190 l 418 258 q 400 276 418 276 l 336 276 q 319 269 326 276 q 311 251 311 263 l 311 190 q 319 173 311 181 q 336 165 326 165 l 393 165 q 411 173 404 165 q 418 190 418 181 z "},"に":{"ha":786,"x_min":56,"x_max":731,"o":"m 731 608 q 713 564 731 582 q 667 546 694 546 l 629 546 q 584 564 603 546 q 565 608 565 582 l 565 711 q 558 729 565 722 q 540 736 551 736 l 336 736 q 291 755 310 736 q 272 800 272 774 l 272 838 q 291 883 272 864 q 336 901 310 901 l 540 901 q 636 876 593 901 q 705 807 679 850 q 731 711 731 764 l 731 608 m 221 64 q 203 19 221 38 q 157 0 185 0 l 119 0 q 74 19 93 0 q 56 64 56 38 l 56 838 q 74 882 56 864 q 119 900 93 900 l 157 900 q 203 882 185 900 q 221 838 221 864 l 221 64 m 731 64 q 713 19 731 38 q 667 0 694 0 l 463 0 q 367 26 411 0 q 298 94 324 51 q 272 190 272 138 l 272 283 q 291 328 272 310 q 336 347 310 347 l 374 347 q 419 328 400 347 q 438 283 438 310 l 438 190 q 445 173 438 181 q 463 165 453 165 l 667 165 q 713 147 694 165 q 731 101 731 128 l 731 64 z "},"ぬ":{"ha":894,"x_min":57,"x_max":879,"o":"m 879 340 q 842 282 879 299 q 826 258 826 275 l 826 154 q 806 77 826 113 q 750 21 785 42 q 672 0 715 0 l 618 0 q 563 10 586 0 q 529 10 546 17 q 474 0 506 0 l 211 0 q 133 21 168 0 q 78 77 99 42 q 57 154 57 113 l 57 701 q 102 811 57 767 q 211 856 147 856 l 242 856 q 255 862 250 856 q 260 875 260 868 q 278 920 260 901 q 324 939 297 939 l 361 939 q 407 920 389 939 q 425 875 425 901 q 431 862 425 868 q 443 856 436 856 l 446 856 q 458 862 453 856 q 464 875 464 868 q 482 920 464 901 q 526 939 500 939 l 565 939 q 610 920 592 939 q 628 875 628 901 q 633 862 628 868 q 646 856 639 856 l 672 856 q 781 811 736 856 q 826 701 826 767 l 826 460 q 842 436 826 443 q 879 378 879 419 l 879 340 m 661 458 l 661 675 q 644 692 661 692 q 633 687 639 692 q 628 675 628 682 l 628 458 q 644 442 628 442 q 661 458 661 442 m 464 674 q 446 692 464 692 l 443 692 q 425 674 425 692 l 425 261 q 407 216 425 235 q 361 197 389 197 l 324 197 q 278 216 297 197 q 260 261 260 235 l 260 674 q 242 692 260 692 l 239 692 q 221 674 221 692 l 221 183 q 239 165 221 165 l 446 165 q 464 183 464 165 l 464 674 m 661 182 l 661 260 q 644 276 661 276 q 628 260 628 276 l 628 182 q 644 165 628 165 q 661 182 661 165 z "},"ね":{"ha":926,"x_min":57,"x_max":869,"o":"m 869 340 q 832 282 869 299 q 817 258 817 275 l 817 154 q 796 77 817 113 q 740 21 775 42 q 663 0 706 0 l 582 0 q 505 21 540 0 q 449 77 469 42 q 428 154 428 113 l 428 288 q 449 365 428 331 q 505 421 469 400 q 582 442 540 442 l 633 442 q 651 460 651 442 l 651 674 q 633 692 651 692 l 557 692 q 525 678 539 692 l 336 486 q 324 456 324 474 l 324 64 q 306 19 324 38 q 260 0 288 0 l 222 0 q 177 19 196 0 q 158 64 158 38 l 158 147 q 153 158 158 154 q 143 160 149 163 q 121 156 131 156 q 85 165 100 156 q 57 218 57 185 l 57 257 q 96 315 57 299 l 142 335 q 158 360 158 342 l 158 674 q 140 692 158 692 l 121 692 q 76 710 94 692 q 57 754 57 728 l 57 793 q 76 838 57 819 q 121 856 94 856 l 140 856 q 153 862 149 856 q 158 875 158 868 q 177 920 158 901 q 222 939 196 939 l 260 939 q 306 920 288 939 q 324 875 324 901 l 324 726 q 328 719 324 721 q 336 721 333 718 l 444 832 q 504 856 471 856 l 735 856 q 792 832 768 856 q 817 774 817 808 l 817 460 q 832 436 817 443 q 869 378 869 419 l 869 340 m 651 183 l 651 258 q 633 276 651 276 l 611 276 q 593 258 593 276 l 593 183 q 611 165 593 165 l 633 165 q 651 183 651 165 z "},"の":{"ha":778,"x_min":56,"x_max":722,"o":"m 722 64 q 703 19 722 38 q 658 0 685 0 l 621 0 q 576 19 594 0 q 557 64 557 38 l 557 718 q 539 736 557 736 l 489 736 q 471 718 471 736 l 471 64 q 453 19 471 38 q 408 0 435 0 l 246 0 q 151 26 194 0 q 81 94 107 51 q 56 190 56 138 l 56 746 q 101 856 56 811 q 211 901 147 901 l 568 901 q 646 881 611 901 q 701 824 681 860 q 722 746 722 789 l 722 64 m 307 718 q 289 736 307 736 l 239 736 q 221 718 221 736 l 221 190 q 228 173 221 181 q 246 165 236 165 l 289 165 q 307 183 307 165 l 307 718 z "},"は":{"ha":838,"x_min":56,"x_max":781,"o":"m 781 340 q 763 295 781 314 q 718 276 744 276 l 696 276 q 678 258 678 276 l 678 190 q 652 94 678 138 q 583 26 626 51 q 488 0 540 0 l 463 0 q 367 26 411 0 q 298 94 324 51 q 272 190 272 138 l 272 251 q 298 347 272 304 q 367 416 324 390 q 463 442 411 442 l 494 442 q 513 460 513 442 l 513 674 q 494 692 513 692 l 336 692 q 291 710 310 692 q 272 754 272 728 l 272 793 q 291 838 272 819 q 336 856 310 856 l 494 856 q 508 862 503 856 q 513 875 513 868 q 531 920 513 901 q 576 939 550 939 l 615 939 q 660 920 642 939 q 678 875 678 901 q 683 862 678 868 q 696 856 689 856 l 718 856 q 763 838 744 856 q 781 793 781 819 l 781 754 q 763 710 781 728 q 718 692 744 692 l 696 692 q 678 674 678 692 l 678 460 q 696 442 678 442 l 718 442 q 763 424 744 442 q 781 378 781 406 l 781 340 m 221 64 q 203 19 221 38 q 157 0 185 0 l 119 0 q 74 19 93 0 q 56 64 56 38 l 56 875 q 74 920 56 901 q 119 939 93 939 l 157 939 q 203 920 185 939 q 221 875 221 901 l 221 64 m 513 190 l 513 258 q 494 276 513 276 l 463 276 q 445 269 453 276 q 438 251 438 263 l 438 190 q 445 173 438 181 q 463 165 453 165 l 488 165 q 506 173 499 165 q 513 190 513 181 z "},"ば":{"ha":931,"x_min":56,"x_max":932,"o":"m 781 340 q 763 295 781 314 q 717 276 744 276 l 696 276 q 678 258 678 276 l 678 190 q 652 94 678 138 q 583 26 626 51 q 488 0 540 0 l 463 0 q 367 26 410 0 q 298 94 324 51 q 272 190 272 138 l 272 251 q 298 347 272 304 q 367 416 324 390 q 463 442 410 442 l 494 442 q 513 460 513 442 l 513 674 q 494 692 513 692 l 336 692 q 291 710 310 692 q 272 754 272 728 l 272 793 q 291 838 272 819 q 336 856 310 856 l 494 856 q 508 862 503 856 q 513 875 513 868 q 531 920 513 901 q 576 939 550 939 l 614 939 q 659 921 640 939 q 678 876 678 903 l 678 786 q 694 746 678 763 q 735 729 711 729 l 758 729 q 767 724 764 729 q 765 713 769 718 q 717 692 744 692 l 696 692 q 678 674 678 692 l 678 460 q 696 442 678 442 l 717 442 q 763 424 744 442 q 781 378 781 406 l 781 340 m 221 64 q 202 19 221 38 q 157 0 183 0 l 119 0 q 74 19 93 0 q 56 64 56 38 l 56 875 q 74 920 56 901 q 119 939 93 939 l 157 939 q 202 920 183 939 q 221 875 221 901 l 221 64 m 932 786 q 922 763 932 772 q 900 754 913 754 l 861 754 q 840 763 849 754 q 831 786 831 772 l 831 907 q 840 928 831 919 q 861 938 849 938 l 900 938 q 922 928 913 938 q 932 907 932 919 l 932 786 m 804 786 q 795 763 804 772 q 772 754 786 754 l 735 754 q 712 763 721 754 q 703 786 703 772 l 703 907 q 712 928 703 919 q 735 938 721 938 l 772 938 q 795 928 786 938 q 804 907 804 919 l 804 786 m 513 190 l 513 258 q 494 276 513 276 l 463 276 q 445 269 453 276 q 438 251 438 263 l 438 190 q 445 173 438 181 q 463 165 453 165 l 488 165 q 506 173 499 165 q 513 190 513 181 z "},"ぱ":{"ha":950,"x_min":56,"x_max":951,"o":"m 781 340 q 763 295 781 314 q 718 276 744 276 l 696 276 q 678 258 678 276 l 678 190 q 652 94 678 138 q 583 26 626 51 q 488 0 540 0 l 463 0 q 367 26 411 0 q 298 94 324 51 q 272 190 272 138 l 272 251 q 298 347 272 304 q 367 416 324 390 q 463 442 411 442 l 494 442 q 513 460 513 442 l 513 674 q 494 692 513 692 l 336 692 q 291 710 310 692 q 272 754 272 728 l 272 793 q 291 838 272 819 q 336 856 310 856 l 494 856 q 508 862 503 856 q 513 875 513 868 q 531 920 513 901 q 576 939 550 939 l 614 939 q 660 920 642 939 q 678 875 678 901 l 678 860 q 681 856 678 856 q 683 853 683 856 q 678 814 678 836 q 690 754 678 782 q 724 706 703 726 q 726 697 729 701 q 718 692 724 692 l 696 692 q 678 674 678 692 l 678 460 q 696 442 678 442 l 718 442 q 763 424 744 442 q 781 378 781 406 l 781 340 m 221 64 q 203 19 221 38 q 157 0 185 0 l 119 0 q 74 19 93 0 q 56 64 56 38 l 56 875 q 74 920 56 901 q 119 939 93 939 l 157 939 q 203 920 185 939 q 221 875 221 901 l 221 64 m 951 814 q 915 726 951 763 q 828 689 879 689 q 740 726 776 689 q 703 814 703 763 q 740 901 703 865 q 828 938 776 938 q 915 901 879 938 q 951 814 951 865 m 850 814 q 828 836 850 836 q 811 830 818 836 q 804 814 804 824 q 811 797 804 804 q 828 790 818 790 q 844 797 838 790 q 850 814 850 804 m 513 190 l 513 258 q 494 276 513 276 l 463 276 q 445 269 453 276 q 438 251 438 263 l 438 190 q 445 173 438 181 q 463 165 453 165 l 488 165 q 506 173 499 165 q 513 190 513 181 z "},"ひ":{"ha":749,"x_min":57,"x_max":692,"o":"m 692 799 q 674 754 692 775 q 628 736 656 736 l 624 736 q 615 731 618 736 q 613 719 611 725 l 669 561 q 692 440 692 504 l 692 190 q 666 94 692 138 q 597 26 640 51 q 501 0 554 0 l 250 0 q 154 26 197 0 q 85 94 111 51 q 60 190 60 138 l 60 440 q 81 561 60 503 l 139 719 q 138 731 142 725 q 126 736 133 736 l 121 736 q 76 754 93 736 q 57 799 57 774 l 57 838 q 76 883 57 864 q 121 901 94 901 l 290 901 q 342 874 324 901 q 350 815 361 847 l 236 504 q 228 474 231 490 q 225 440 225 457 l 225 190 q 233 173 225 181 q 250 165 240 165 l 501 165 q 519 173 513 165 q 526 190 526 181 l 526 440 q 515 504 526 474 l 401 815 q 408 874 390 846 q 461 901 429 901 l 628 901 q 673 883 654 901 q 692 838 692 864 l 692 799 z "},"び":{"ha":768,"x_min":57,"x_max":742,"o":"m 742 786 q 733 763 742 772 q 710 754 724 754 l 672 754 q 649 763 658 754 q 640 786 640 772 l 640 907 q 649 928 640 919 q 672 938 658 938 l 710 938 q 733 928 724 938 q 742 907 742 919 l 742 786 m 614 786 q 605 763 614 772 q 583 754 596 754 l 544 754 q 522 763 532 754 q 513 786 513 772 l 513 907 q 522 928 513 919 q 544 938 532 938 l 583 938 q 605 928 596 938 q 614 907 614 919 l 614 786 m 690 190 q 665 94 690 138 q 596 26 639 51 q 500 0 553 0 l 249 0 q 153 26 197 0 q 84 94 110 51 q 58 190 58 138 l 58 440 q 65 502 58 472 q 81 561 71 532 l 138 719 q 137 731 140 725 q 126 736 133 736 l 121 736 q 75 754 93 736 q 57 799 57 775 l 57 838 q 76 883 57 864 q 121 901 94 901 l 289 901 q 342 874 321 901 q 349 815 360 846 l 235 504 q 224 440 224 474 l 224 190 q 231 173 224 181 q 249 165 239 165 l 500 165 q 519 173 511 165 q 526 190 526 181 l 526 440 q 514 504 526 475 l 401 815 q 408 874 388 846 q 460 901 426 901 l 469 901 q 488 883 488 901 l 488 786 q 505 746 488 763 q 544 729 522 729 l 590 729 q 613 715 608 732 l 669 561 q 690 440 690 503 l 690 190 z "},"ぴ":{"ha":749,"x_min":54,"x_max":790,"o":"m 790 814 q 754 726 790 763 q 665 689 718 689 q 578 726 614 689 q 542 814 542 763 q 578 901 542 865 q 665 938 614 938 q 754 901 718 938 q 790 814 790 865 m 689 190 q 663 94 689 138 q 594 26 638 51 q 499 0 551 0 l 247 0 q 151 26 194 0 q 83 94 108 51 q 57 190 57 138 l 57 440 q 78 561 57 503 l 136 719 q 135 731 139 725 q 124 736 131 736 l 118 736 q 74 754 90 736 q 54 799 54 774 l 54 838 q 73 883 54 864 q 118 901 92 901 l 288 901 q 339 874 321 901 q 347 815 358 847 l 233 504 q 225 474 228 490 q 222 440 222 457 l 222 190 q 230 173 222 181 q 247 165 238 165 l 499 165 q 517 173 510 165 q 524 190 524 181 l 524 440 q 513 504 524 474 l 399 815 q 406 874 388 846 q 458 901 426 901 l 526 901 q 535 897 532 901 q 535 886 538 892 q 522 851 526 869 q 517 814 517 833 q 543 728 517 767 q 611 674 569 690 q 635 651 628 667 l 667 561 q 689 440 689 504 l 689 190 m 689 814 q 682 830 689 824 q 665 836 675 836 q 643 814 643 836 q 649 797 643 804 q 665 790 656 790 q 682 797 675 790 q 689 814 689 804 z "},"ふ":{"ha":907,"x_min":53,"x_max":854,"o":"m 626 190 q 601 94 626 138 q 532 26 575 51 q 436 0 489 0 l 119 0 q 71 22 90 0 q 57 72 53 43 l 94 356 q 117 394 99 379 q 158 410 135 410 l 196 410 q 244 388 225 410 q 258 338 263 367 l 238 182 q 241 171 236 176 q 253 165 246 165 l 436 165 q 455 173 447 165 q 463 190 463 181 l 463 383 q 436 410 463 410 l 281 410 q 235 428 254 410 q 217 472 217 446 l 217 522 q 278 646 217 600 l 279 646 q 285 651 279 646 q 313 672 292 656 q 381 722 335 689 q 401 754 397 736 q 399 767 404 761 q 388 774 394 774 l 265 774 q 220 792 239 774 q 201 836 201 810 l 201 875 q 220 919 201 901 q 265 938 239 938 l 506 938 q 551 919 532 938 q 569 875 569 901 l 569 771 q 545 671 569 718 q 479 592 521 624 l 471 585 q 467 577 467 582 q 474 571 468 572 q 583 506 539 558 q 626 383 626 453 l 626 190 m 851 72 q 836 22 854 42 q 788 0 817 0 l 750 0 q 708 16 726 0 q 688 54 690 32 l 649 338 q 664 388 644 368 q 711 410 682 410 l 750 410 q 792 394 774 410 q 813 356 810 379 l 851 72 z "},"ぶ":{"ha":908,"x_min":53,"x_max":856,"o":"m 828 786 q 818 763 828 772 q 796 754 808 754 l 757 754 q 735 763 744 754 q 726 786 726 772 l 726 907 q 735 928 726 919 q 757 938 744 938 l 796 938 q 818 928 808 938 q 828 907 828 919 l 828 786 m 700 786 q 691 763 700 772 q 668 754 682 754 l 631 754 q 608 763 617 754 q 599 786 599 772 l 599 907 q 608 928 599 919 q 631 938 617 938 l 668 938 q 691 928 682 938 q 700 907 700 919 l 700 786 m 628 190 q 602 94 628 138 q 533 26 576 51 q 438 0 490 0 l 119 0 q 72 22 92 0 q 57 72 53 42 l 96 356 q 117 394 99 379 q 158 410 135 410 l 197 410 q 244 388 225 410 q 260 338 264 368 l 239 182 q 242 171 238 176 q 254 165 247 165 l 438 165 q 456 173 449 165 q 463 190 463 181 l 463 383 q 438 410 463 410 l 281 410 q 235 428 254 410 q 217 472 217 446 l 217 522 q 233 591 217 558 q 279 646 250 624 q 285 651 279 646 q 313 672 292 656 q 381 722 335 689 q 403 754 396 733 q 401 767 406 761 q 389 774 396 774 l 267 774 q 222 792 240 774 q 203 836 203 810 l 203 875 q 222 919 203 901 q 267 938 240 938 l 507 938 q 551 919 533 938 q 571 875 569 901 l 571 771 q 547 671 571 718 q 481 592 522 624 l 471 585 q 468 577 467 582 q 475 571 469 572 q 584 506 540 558 q 628 383 628 453 l 628 190 m 851 72 q 836 22 856 42 q 789 0 818 0 l 751 0 q 709 16 728 0 q 688 54 690 32 l 649 338 q 664 388 646 368 q 713 410 683 410 l 750 410 q 792 394 774 410 q 813 356 810 379 l 851 72 z "},"ぷ":{"ha":908,"x_min":53,"x_max":856,"o":"m 840 814 q 804 726 840 763 q 717 689 768 689 q 628 726 665 689 q 592 814 592 763 q 628 901 592 865 q 717 938 665 938 q 804 901 768 938 q 840 814 840 865 m 628 190 q 602 94 628 138 q 533 26 576 51 q 438 0 490 0 l 119 0 q 72 22 92 0 q 57 72 53 42 l 96 356 q 117 394 99 379 q 158 410 135 410 l 197 410 q 244 388 225 410 q 260 338 264 368 l 239 182 q 242 171 238 176 q 254 165 247 165 l 438 165 q 456 173 449 165 q 463 190 463 181 l 463 385 q 456 403 463 396 q 438 410 449 410 l 281 410 q 235 428 254 410 q 217 472 217 446 l 217 522 q 279 646 217 599 l 381 722 q 403 754 396 733 q 401 767 406 761 q 389 774 396 774 l 267 774 q 222 792 240 774 q 203 836 203 810 l 203 875 q 222 919 203 901 q 267 938 240 938 l 507 938 q 552 919 533 938 q 571 875 571 901 l 571 771 q 547 671 571 718 q 481 592 522 624 l 471 585 q 469 577 468 582 q 475 571 469 572 q 584 506 540 558 q 628 385 628 454 l 628 190 m 739 814 q 717 836 739 836 q 700 830 707 836 q 693 814 693 824 q 700 797 693 804 q 717 790 707 790 q 733 797 726 790 q 739 814 739 804 m 851 72 q 836 22 856 42 q 789 0 818 0 l 751 0 q 709 16 728 0 q 688 54 690 32 l 649 338 q 664 388 646 368 q 713 410 683 410 l 750 410 q 792 394 774 410 q 813 356 810 379 l 851 72 z "},"へ":{"ha":749,"x_min":54,"x_max":701,"o":"m 693 81 q 682 25 701 50 q 632 0 661 0 l 592 0 q 554 13 571 0 q 531 46 538 26 l 351 692 q 330 724 346 711 q 294 736 314 736 l 238 736 q 219 718 219 736 l 219 360 q 201 315 219 333 q 156 296 182 296 l 118 296 q 73 315 92 296 q 54 360 54 333 l 54 838 q 73 883 54 864 q 118 901 92 901 l 294 901 q 430 856 369 901 q 510 736 490 810 l 693 81 z "},"べ":{"ha":749,"x_min":54,"x_max":701,"o":"m 694 786 q 685 763 694 772 q 664 754 676 754 l 625 754 q 603 763 613 754 q 593 786 593 772 l 593 907 q 603 928 593 919 q 625 938 613 938 l 664 938 q 685 928 676 938 q 694 907 694 919 l 694 786 m 568 786 q 559 763 568 772 q 536 754 550 754 l 499 754 q 476 763 485 754 q 467 786 467 772 l 467 907 q 476 928 467 919 q 499 938 485 938 l 536 938 q 559 928 550 938 q 568 907 568 919 l 568 786 m 693 81 q 682 25 701 50 q 632 0 661 0 l 592 0 q 554 13 571 0 q 531 46 538 26 l 351 692 q 330 724 346 711 q 294 736 314 736 l 238 736 q 219 718 219 736 l 219 360 q 201 315 219 333 q 156 296 182 296 l 118 296 q 73 315 92 296 q 54 360 54 333 l 54 838 q 73 883 54 864 q 118 901 92 901 l 294 901 q 365 890 331 901 q 426 857 399 878 q 442 828 442 846 l 442 786 q 457 747 442 764 q 494 729 472 731 q 517 711 513 726 l 693 81 z "},"ぺ":{"ha":749,"x_min":54,"x_max":701,"o":"m 694 814 q 658 726 694 763 q 571 689 622 689 q 483 726 519 689 q 446 814 446 763 q 483 901 446 865 q 571 938 519 938 q 658 901 622 938 q 694 814 694 865 m 693 81 q 682 25 701 50 q 632 0 661 0 l 592 0 q 554 13 571 0 q 531 46 538 26 l 351 692 q 330 724 346 711 q 293 736 314 736 l 238 736 q 219 718 219 736 l 219 360 q 201 315 219 333 q 156 296 182 296 l 118 296 q 73 315 92 296 q 54 360 54 333 l 54 838 q 73 883 54 864 q 118 901 92 901 l 293 901 q 355 892 325 901 q 411 868 385 883 q 424 840 426 857 q 422 828 422 835 q 421 814 421 821 q 447 730 421 767 q 513 675 472 693 q 533 651 529 668 l 693 81 m 593 814 q 571 836 593 836 q 554 830 561 836 q 547 814 547 824 q 554 797 547 804 q 571 790 561 790 q 587 797 581 790 q 593 814 593 804 z "},"ほ":{"ha":838,"x_min":56,"x_max":781,"o":"m 781 340 q 763 295 781 314 q 718 276 744 276 l 696 276 q 678 258 678 276 l 678 190 q 652 94 678 138 q 583 26 626 51 q 488 0 540 0 l 463 0 q 367 26 411 0 q 298 94 324 51 q 272 190 272 138 l 272 251 q 298 347 272 304 q 367 416 324 390 q 463 442 411 442 l 496 442 q 513 460 513 442 l 513 508 q 496 526 513 526 l 336 526 q 291 545 310 526 q 272 590 272 564 l 272 628 q 291 673 272 654 q 336 692 310 692 l 496 692 q 513 710 513 692 l 513 756 q 496 774 513 774 l 336 774 q 291 792 310 774 q 272 838 272 811 l 272 875 q 291 920 272 901 q 336 939 310 939 l 718 939 q 763 920 744 939 q 781 875 781 901 l 781 838 q 763 792 781 811 q 718 774 744 774 l 696 774 q 678 756 678 774 l 678 710 q 696 692 678 692 l 718 692 q 763 673 744 692 q 781 628 781 654 l 781 590 q 763 545 781 564 q 718 526 744 526 l 696 526 q 678 508 678 526 l 678 460 q 696 442 678 442 l 718 442 q 763 424 744 442 q 781 378 781 406 l 781 340 m 221 64 q 203 19 221 38 q 157 0 185 0 l 119 0 q 74 19 93 0 q 56 64 56 38 l 56 875 q 74 920 56 901 q 119 939 93 939 l 157 939 q 203 920 185 939 q 221 875 221 901 l 221 64 m 513 190 l 513 258 q 496 276 513 276 l 463 276 q 445 269 453 276 q 438 251 438 263 l 438 190 q 445 173 438 181 q 463 165 453 165 l 488 165 q 506 173 499 165 q 513 190 513 181 z "},"ぼ":{"ha":881,"x_min":56,"x_max":932,"o":"m 781 340 q 763 295 781 314 q 717 276 744 276 l 696 276 q 678 258 678 276 l 678 190 q 652 94 678 138 q 583 26 626 51 q 488 0 540 0 l 463 0 q 367 26 410 0 q 298 94 324 51 q 272 190 272 138 l 272 251 q 298 347 272 304 q 367 416 324 390 q 463 442 410 442 l 494 442 q 513 460 513 442 l 513 508 q 494 526 513 526 l 336 526 q 291 545 310 526 q 272 590 272 564 l 272 628 q 291 673 272 654 q 336 692 310 692 l 494 692 q 513 710 513 692 l 513 756 q 494 774 513 774 l 336 774 q 291 792 310 774 q 272 838 272 811 l 272 875 q 291 920 272 901 q 336 939 310 939 l 614 939 q 659 920 640 939 q 678 875 678 901 l 678 710 q 696 692 678 692 l 717 692 q 763 673 744 692 q 781 628 781 654 l 781 590 q 763 545 781 564 q 717 526 744 526 l 696 526 q 678 508 678 526 l 678 460 q 696 442 678 442 l 717 442 q 763 424 744 442 q 781 378 781 406 l 781 340 m 221 64 q 202 19 221 38 q 157 0 183 0 l 119 0 q 74 19 93 0 q 56 64 56 38 l 56 875 q 74 920 56 901 q 119 939 93 939 l 157 939 q 202 920 183 939 q 221 875 221 901 l 221 64 m 932 786 q 922 763 932 772 q 900 754 913 754 l 861 754 q 840 763 849 754 q 831 786 831 772 l 831 907 q 840 928 831 919 q 861 938 849 938 l 900 938 q 922 928 913 938 q 932 907 932 919 l 932 786 m 804 786 q 795 763 804 772 q 772 754 786 754 l 735 754 q 712 763 721 754 q 703 786 703 772 l 703 907 q 712 928 703 919 q 735 938 721 938 l 772 938 q 795 928 786 938 q 804 907 804 919 l 804 786 m 513 190 l 513 258 q 494 276 513 276 l 463 276 q 445 269 453 276 q 438 251 438 263 l 438 190 q 445 173 438 181 q 463 165 453 165 l 488 165 q 506 173 499 165 q 513 190 513 181 z "},"ぽ":{"ha":876,"x_min":57,"x_max":929,"o":"m 929 857 q 893 769 929 806 q 804 732 857 732 q 717 769 753 732 q 681 857 681 806 q 717 944 681 908 q 804 981 753 981 q 893 944 857 981 q 929 857 929 908 m 782 340 q 763 295 782 314 q 718 276 744 276 l 697 276 q 679 258 679 276 l 679 190 q 653 94 679 138 q 585 26 628 51 q 489 0 542 0 l 464 0 q 368 26 411 0 q 299 94 325 51 q 274 190 274 138 l 274 251 q 299 347 274 304 q 368 416 325 390 q 464 442 411 442 l 496 442 q 514 460 514 442 l 514 508 q 496 526 514 526 l 336 526 q 292 545 310 526 q 274 590 274 564 l 274 628 q 292 673 274 654 q 336 692 310 692 l 496 692 q 514 710 514 692 l 514 756 q 496 774 514 774 l 336 774 q 292 792 310 774 q 274 838 274 811 l 274 875 q 292 920 274 901 q 336 939 310 939 l 661 939 q 671 934 668 939 q 671 924 674 929 q 659 892 664 908 q 654 857 654 875 q 679 774 654 813 l 679 710 q 697 692 679 692 l 718 692 q 763 673 744 692 q 782 628 782 654 l 782 590 q 763 545 782 564 q 718 526 744 526 l 697 526 q 679 508 679 526 l 679 460 q 697 442 679 442 l 718 442 q 763 424 744 442 q 782 378 782 406 l 782 340 m 221 64 q 203 19 221 38 q 158 0 185 0 l 119 0 q 75 19 93 0 q 57 64 57 38 l 57 875 q 75 920 57 901 q 119 939 93 939 l 158 939 q 203 920 185 939 q 221 875 221 901 l 221 64 m 828 857 q 821 873 828 867 q 804 879 814 879 q 782 857 782 879 q 788 840 782 847 q 804 833 794 833 q 821 840 814 833 q 828 857 828 847 m 514 190 l 514 258 q 496 276 514 276 l 464 276 q 446 269 454 276 q 438 251 438 263 l 438 190 q 446 173 438 181 q 464 165 454 165 l 489 165 q 507 173 500 165 q 514 190 514 181 z "},"ま":{"ha":731,"x_min":57,"x_max":674,"o":"m 674 340 q 656 295 674 314 q 610 276 638 276 l 551 276 q 533 258 533 276 l 533 190 q 508 94 533 138 q 439 26 482 51 q 343 0 396 0 l 247 0 q 151 26 194 0 q 83 94 108 51 q 57 190 57 138 l 57 251 q 83 347 57 304 q 151 416 108 390 q 247 442 194 442 l 351 442 q 369 460 369 442 q 351 478 369 478 l 119 478 q 75 497 93 478 q 57 542 57 515 l 57 579 q 75 624 57 606 q 119 643 93 643 l 351 643 q 369 661 369 643 l 369 674 q 351 692 369 692 l 119 692 q 75 710 93 692 q 57 754 57 728 l 57 793 q 75 838 57 819 q 119 856 93 856 l 351 856 q 364 862 358 856 q 369 875 369 868 q 388 920 369 901 q 432 939 406 939 l 471 939 q 515 920 497 939 q 533 875 533 901 q 539 862 533 868 q 551 856 544 856 l 610 856 q 656 838 638 856 q 674 793 674 819 l 674 754 q 656 710 674 728 q 610 692 638 692 l 551 692 q 533 674 533 692 l 533 661 q 551 643 533 643 l 610 643 q 656 624 638 643 q 674 579 674 606 l 674 542 q 656 497 674 515 q 610 478 638 478 l 551 478 q 533 460 533 478 q 551 442 533 442 l 610 442 q 656 424 638 442 q 674 378 674 406 l 674 340 m 369 190 l 369 258 q 351 276 369 276 l 247 276 q 229 269 238 276 q 221 251 221 263 l 221 190 q 229 173 221 181 q 247 165 238 165 l 343 165 q 362 173 354 165 q 369 190 369 181 z "},"み":{"ha":807,"x_min":60,"x_max":747,"o":"m 747 431 q 728 386 747 404 q 683 368 710 368 l 681 368 q 663 350 663 368 l 663 64 q 644 19 663 38 q 600 0 626 0 l 561 0 q 517 19 535 0 q 499 64 499 38 l 499 350 q 481 368 499 368 l 464 368 q 446 350 446 368 l 446 64 q 428 19 446 38 q 383 0 410 0 l 250 0 q 155 26 199 0 q 85 94 111 51 q 60 190 60 138 l 60 342 q 85 438 60 394 q 155 508 111 482 q 250 533 199 533 l 264 533 q 282 550 282 533 l 282 718 q 264 736 282 736 l 161 736 q 117 754 135 736 q 99 799 99 772 l 99 838 q 117 883 99 864 q 161 901 135 901 l 383 901 q 428 883 410 901 q 446 838 446 864 l 446 550 q 464 533 446 533 l 481 533 q 499 550 499 533 l 499 838 q 517 882 499 864 q 561 900 535 900 l 600 900 q 644 882 626 900 q 663 838 663 864 l 663 550 q 681 533 663 533 l 683 533 q 728 515 710 533 q 747 469 747 496 l 747 431 m 282 183 l 282 350 q 264 368 282 368 l 250 368 q 225 342 225 368 l 225 190 q 233 173 225 181 q 250 165 240 165 l 264 165 q 282 183 282 165 z "},"む":{"ha":807,"x_min":58,"x_max":749,"o":"m 749 190 q 723 94 749 138 q 654 26 697 51 q 558 0 611 0 l 446 0 q 350 26 393 0 q 281 94 307 51 q 256 190 256 138 l 256 240 q 238 258 256 258 l 201 258 q 100 300 142 258 q 58 401 58 342 l 58 507 q 100 609 58 567 q 201 651 142 651 l 238 651 q 256 668 256 651 l 256 674 q 238 692 256 692 l 160 692 q 115 710 133 692 q 96 754 96 728 l 96 793 q 115 838 96 819 q 160 856 133 856 l 238 856 q 250 862 244 856 q 256 875 256 868 q 274 920 256 901 q 318 939 292 939 l 357 939 q 401 920 383 939 q 419 875 419 901 q 425 862 419 868 q 438 856 431 856 l 489 856 q 535 838 517 856 q 553 793 553 819 l 553 754 q 535 710 553 728 q 489 692 517 692 l 438 692 q 419 674 419 692 l 419 190 q 428 173 419 181 q 446 165 436 165 l 558 165 q 576 173 569 165 q 583 190 583 181 l 583 360 q 602 404 583 386 q 647 422 621 422 l 685 422 q 731 404 713 422 q 749 360 749 386 l 749 190 m 749 549 q 731 504 749 522 q 685 486 713 486 l 647 486 q 602 504 621 486 q 583 549 583 522 l 583 793 q 602 838 583 819 q 647 856 621 856 l 685 856 q 731 838 713 856 q 749 793 749 819 l 749 549 m 256 439 l 256 469 q 239 486 256 486 q 222 469 222 486 l 222 439 q 228 428 222 433 q 239 422 233 422 q 251 428 246 422 q 256 439 256 433 z "},"め":{"ha":883,"x_min":57,"x_max":826,"o":"m 826 64 q 808 19 826 38 q 763 0 790 0 l 725 0 q 680 19 699 0 q 661 64 661 38 l 661 675 q 644 692 661 692 q 629 675 629 692 l 629 154 q 608 77 629 113 q 552 21 588 42 q 474 0 517 0 l 211 0 q 133 21 168 0 q 78 77 99 42 q 57 154 57 113 l 57 701 q 102 811 57 767 q 211 856 147 856 l 242 856 q 255 862 250 856 q 260 875 260 868 q 278 920 260 901 q 324 939 297 939 l 363 939 q 407 920 389 939 q 425 875 425 901 q 431 862 425 868 q 443 856 436 856 l 446 856 q 458 862 453 856 q 464 875 464 868 q 482 920 464 901 q 526 939 500 939 l 565 939 q 610 920 592 939 q 629 875 629 901 q 634 862 629 868 q 646 856 639 856 l 672 856 q 781 811 736 856 q 826 701 826 767 l 826 64 m 464 183 l 464 674 q 446 692 464 692 l 443 692 q 425 674 425 692 l 425 261 q 407 216 425 235 q 363 197 389 197 l 324 197 q 278 216 297 197 q 260 261 260 235 l 260 674 q 242 692 260 692 l 240 692 q 222 674 222 692 l 222 183 q 240 165 222 165 l 446 165 q 464 183 464 165 z "},"も":{"ha":731,"x_min":57,"x_max":674,"o":"m 674 183 q 649 92 674 133 q 583 25 624 50 q 490 0 542 0 l 344 0 q 252 25 294 0 q 185 92 210 50 q 160 183 160 133 l 160 406 q 143 424 160 424 l 119 424 q 75 442 93 424 q 57 488 57 461 l 57 525 q 75 571 57 553 q 119 589 93 589 l 143 589 q 160 607 160 589 l 160 672 q 143 690 160 690 l 119 690 q 75 709 93 690 q 57 754 57 728 l 57 792 q 75 837 57 818 q 119 856 93 856 l 143 856 q 160 874 160 856 l 160 875 q 178 920 160 901 q 224 939 197 939 l 263 939 q 307 920 289 939 q 325 875 325 901 l 325 874 q 343 856 325 856 l 432 856 q 476 837 458 856 q 494 792 494 818 l 494 754 q 476 709 494 728 q 432 690 458 690 l 343 690 q 325 672 325 690 l 325 607 q 343 589 325 589 l 432 589 q 476 571 458 589 q 494 525 494 553 l 494 488 q 476 442 494 461 q 432 424 458 424 l 343 424 q 325 406 325 424 l 325 183 q 344 165 325 165 l 490 165 q 508 183 508 165 l 508 358 q 527 403 508 385 q 572 422 546 422 l 610 422 q 656 403 638 422 q 674 358 674 385 l 674 183 z "},"や":{"ha":807,"x_min":56,"x_max":751,"o":"m 751 539 q 726 443 751 486 q 657 374 700 400 q 561 349 614 349 l 501 349 q 456 367 475 349 q 438 413 438 386 l 438 450 q 456 495 438 476 q 501 514 475 514 l 561 514 q 579 522 572 514 q 586 539 586 529 l 586 665 q 579 683 586 676 q 561 690 572 690 l 556 690 q 538 674 538 690 l 538 633 q 519 588 538 607 q 475 569 501 569 l 436 569 q 392 588 410 569 q 374 633 374 607 l 374 674 q 356 690 374 690 l 346 690 q 329 674 329 690 l 406 71 q 390 21 410 43 q 343 0 372 0 l 304 0 q 263 16 281 0 q 242 56 244 32 l 164 674 q 143 690 161 690 l 119 690 q 74 709 93 690 q 56 754 56 728 l 56 793 q 74 838 56 819 q 119 856 93 856 l 122 856 q 139 874 139 856 q 154 917 136 897 q 201 939 174 939 l 240 939 q 282 923 264 939 q 303 883 300 907 l 304 874 q 325 856 307 856 l 356 856 q 368 862 363 856 q 374 875 374 868 q 392 920 374 901 q 436 939 410 939 l 475 939 q 519 920 501 939 q 538 875 538 901 q 543 862 538 868 q 556 856 549 856 l 561 856 q 657 830 614 856 q 726 761 700 804 q 751 665 751 718 l 751 539 z "},"ゃ":{"ha":829,"x_min":57,"x_max":771,"o":"m 771 301 q 744 203 771 247 q 674 131 718 158 q 575 104 629 104 l 514 104 q 468 124 488 104 q 449 169 449 143 l 449 210 q 468 256 449 238 q 514 275 488 275 l 575 275 q 594 283 586 275 q 601 301 601 290 l 601 432 q 594 451 601 443 q 575 458 586 458 l 571 458 q 551 440 551 458 l 551 399 q 533 353 551 372 q 486 333 514 333 l 447 333 q 401 353 421 333 q 382 399 382 372 l 382 440 q 363 458 382 458 l 357 458 q 344 453 350 458 q 340 440 339 447 l 389 74 q 372 22 392 43 q 324 0 353 0 l 283 0 q 240 17 258 0 q 218 57 222 33 l 169 440 q 149 458 167 458 l 124 458 q 77 478 97 458 q 57 524 57 497 l 57 563 q 77 610 57 590 q 124 629 97 629 l 126 629 q 143 646 143 629 q 160 692 143 674 q 208 714 179 714 l 249 714 q 292 697 272 714 q 313 657 311 681 l 314 647 q 335 629 317 629 l 363 629 q 382 649 382 629 q 401 695 382 676 q 447 714 421 714 l 486 714 q 533 695 514 714 q 551 649 551 676 q 571 629 551 629 l 575 629 q 674 602 629 629 q 744 531 718 575 q 771 432 771 486 l 771 301 z "},"ゆ":{"ha":817,"x_min":56,"x_max":761,"o":"m 761 357 q 735 261 761 304 q 667 192 710 218 q 571 167 624 167 l 511 167 q 488 150 494 167 l 451 43 q 428 12 446 24 q 392 0 411 0 l 351 0 q 300 26 318 0 q 292 83 281 53 l 314 150 q 303 171 319 165 q 269 193 282 176 q 256 232 256 210 l 256 268 q 274 313 256 294 q 318 332 292 332 l 357 332 q 381 349 376 332 q 389 403 389 376 l 389 629 q 384 636 389 635 q 376 633 379 638 l 225 308 q 221 289 221 300 l 221 183 q 202 138 221 157 q 157 119 183 119 l 118 119 q 74 138 92 119 q 56 183 56 157 l 56 836 q 74 882 56 864 q 118 900 92 900 l 157 900 q 202 882 183 900 q 221 836 221 864 l 221 721 q 226 714 221 715 q 233 717 231 713 q 372 825 283 797 q 389 849 389 829 l 389 875 q 408 920 389 901 q 453 939 426 939 l 490 939 q 535 920 517 939 q 554 875 554 901 l 554 854 q 572 836 554 836 q 667 810 625 836 q 735 742 710 785 q 761 646 761 699 l 761 357 m 596 357 l 596 646 q 572 672 596 669 q 554 654 554 672 l 554 403 q 550 349 554 376 q 553 338 549 343 q 565 332 558 332 l 571 332 q 589 340 582 332 q 596 357 596 347 z "},"ゅ":{"ha":833,"x_min":57,"x_max":778,"o":"m 778 336 q 751 238 778 282 q 680 167 725 193 q 581 140 635 140 l 519 140 q 494 122 501 140 l 469 44 q 446 13 464 25 q 407 0 428 0 l 365 0 q 313 28 332 0 q 304 86 293 54 l 315 124 q 304 144 321 140 q 269 167 283 150 q 256 207 256 185 l 256 244 q 275 291 256 272 q 321 310 294 310 l 361 310 q 385 328 379 310 q 393 385 393 356 l 393 404 q 383 429 393 419 q 358 439 374 439 q 325 432 343 439 l 261 404 q 226 353 226 390 l 226 151 q 208 106 226 125 q 161 86 189 86 l 122 86 q 76 106 96 86 q 57 151 57 125 l 57 610 q 76 656 57 638 q 122 675 96 675 l 161 675 q 208 656 189 675 q 226 610 226 638 l 226 599 q 238 577 226 585 q 261 575 249 569 l 325 603 q 358 608 340 608 q 383 619 374 608 q 393 643 393 629 q 413 688 394 669 q 458 707 432 707 l 499 707 q 545 688 526 707 q 564 640 564 668 l 564 628 q 582 608 564 608 q 681 582 636 608 q 751 511 725 556 q 778 413 778 467 l 778 336 m 607 336 l 607 413 q 600 431 607 424 q 583 439 593 438 q 564 421 564 439 l 564 385 q 560 328 564 357 q 563 316 558 322 q 575 310 568 310 l 581 310 q 599 318 592 310 q 607 336 607 326 z "},"よ":{"ha":731,"x_min":57,"x_max":674,"o":"m 674 340 q 656 295 674 314 q 610 276 638 276 l 513 276 q 494 258 494 276 l 494 190 q 469 94 494 138 q 400 26 443 51 q 304 0 357 0 l 247 0 q 151 26 194 0 q 83 94 108 51 q 57 190 57 138 l 57 251 q 83 347 57 304 q 151 416 108 390 q 247 442 194 442 l 313 442 q 329 460 329 442 l 329 875 q 348 920 329 901 q 393 939 367 939 l 432 939 q 476 920 458 939 q 494 875 494 901 q 500 862 494 868 q 513 856 506 856 l 610 856 q 656 838 638 856 q 674 793 674 819 l 674 754 q 656 710 674 728 q 610 692 638 692 l 513 692 q 494 674 494 692 l 494 460 q 513 442 494 442 l 610 442 q 656 424 638 442 q 674 378 674 406 l 674 340 m 329 190 l 329 258 q 313 276 329 276 l 247 276 q 229 269 238 276 q 221 251 221 263 l 221 190 q 229 173 221 181 q 247 165 238 165 l 304 165 q 322 173 315 165 q 329 190 329 181 z "},"ょ":{"ha":749,"x_min":117,"x_max":731,"o":"m 731 303 q 711 257 731 276 q 664 238 692 238 l 564 238 q 546 219 546 238 l 546 196 q 519 97 546 142 q 447 26 492 53 q 349 0 403 0 l 314 0 q 215 26 260 0 q 144 97 171 53 q 117 196 117 142 l 117 211 q 144 310 117 265 q 215 381 171 354 q 314 408 260 408 l 357 408 q 375 426 375 408 l 375 649 q 394 695 375 676 q 440 714 414 714 l 479 714 q 526 695 507 714 q 546 649 546 676 q 564 629 546 629 l 664 629 q 711 610 692 629 q 731 563 731 590 l 731 524 q 711 478 731 497 q 664 458 692 458 l 564 458 q 546 440 546 458 l 546 426 q 564 408 546 408 l 664 408 q 711 389 692 408 q 731 342 731 369 l 731 303 m 375 196 l 375 219 q 357 238 375 238 l 314 238 q 288 211 288 238 l 288 196 q 295 178 288 186 q 314 169 303 169 l 349 169 q 367 178 360 169 q 375 196 375 186 z "},"ら":{"ha":694,"x_min":54,"x_max":638,"o":"m 610 779 q 583 728 610 747 q 546 715 567 715 q 536 716 540 715 q 526 718 532 717 l 353 774 q 321 797 333 781 q 308 835 308 814 l 308 875 q 333 926 308 906 q 390 936 358 946 l 565 881 q 597 858 585 875 q 610 819 610 840 l 610 779 m 638 190 q 612 94 638 138 q 543 26 586 51 q 447 0 500 0 l 122 0 q 77 19 96 0 q 58 64 58 38 l 58 101 q 77 147 58 128 q 122 165 96 165 l 447 165 q 465 173 458 165 q 472 190 472 181 l 472 342 q 447 368 472 368 l 121 368 q 72 390 92 368 q 58 442 54 413 l 119 804 q 142 842 124 828 q 182 857 160 857 l 221 857 q 269 835 251 857 q 283 783 288 814 l 244 550 q 248 539 243 544 q 260 533 253 533 l 447 533 q 543 508 500 533 q 612 438 586 482 q 638 342 638 394 l 638 190 z "},"り":{"ha":672,"x_min":56,"x_max":617,"o":"m 617 440 q 564 256 617 340 l 426 31 q 372 0 408 0 l 328 0 q 272 32 290 0 q 274 96 254 65 l 424 342 q 451 440 451 386 l 451 838 q 470 883 451 864 q 515 901 489 901 l 553 901 q 598 883 579 901 q 617 838 617 864 l 617 440 m 303 410 q 265 351 303 371 l 144 300 q 119 296 132 296 q 85 306 99 296 q 56 358 56 326 l 56 838 q 74 883 56 864 q 119 901 93 901 l 157 901 q 203 883 185 901 q 221 838 221 864 l 221 531 q 238 515 221 515 q 257 513 247 515 q 275 504 267 511 q 303 451 303 488 l 303 410 z "},"る":{"ha":683,"x_min":47,"x_max":626,"o":"m 626 190 q 601 94 626 138 q 532 26 575 51 q 436 0 489 0 l 211 0 q 133 21 168 0 q 78 77 99 42 q 57 154 57 113 l 57 217 q 78 294 57 260 q 133 350 99 329 q 211 371 168 371 l 274 371 q 351 350 317 371 q 407 294 386 329 q 428 217 428 260 l 428 181 q 435 168 428 172 q 449 168 442 164 q 461 190 461 175 l 461 383 q 454 401 461 394 q 436 408 447 408 l 121 408 q 64 443 82 408 q 69 510 47 478 l 228 721 q 229 731 232 726 q 221 736 226 736 l 149 736 q 104 754 122 736 q 86 799 86 772 l 86 838 q 104 882 86 864 q 149 900 122 900 l 442 900 q 499 865 482 900 q 493 799 517 832 l 335 588 q 333 578 331 583 q 342 574 336 574 l 436 574 q 532 548 489 574 q 601 479 575 522 q 626 383 626 436 l 626 190 m 263 183 l 263 188 q 244 206 263 206 l 240 206 q 222 188 222 206 l 222 183 q 240 165 222 165 l 244 165 q 263 183 263 165 z "},"れ":{"ha":892,"x_min":57,"x_max":835,"o":"m 835 115 q 796 57 835 74 l 676 6 q 651 0 665 0 q 617 10 631 0 q 588 64 588 31 l 588 674 q 569 692 588 692 l 556 692 q 525 678 539 692 l 336 486 q 324 456 324 474 l 324 64 q 305 19 324 38 q 260 0 286 0 l 222 0 q 177 19 196 0 q 158 64 158 38 l 158 147 q 153 158 158 154 q 142 160 149 163 q 119 156 132 156 q 85 165 99 156 q 57 218 57 185 l 57 257 q 96 315 57 299 l 142 335 q 158 360 158 342 l 158 674 q 140 692 158 692 l 119 692 q 75 710 93 692 q 57 754 57 728 l 57 793 q 75 838 57 819 q 119 856 93 856 l 140 856 q 153 862 149 856 q 158 875 158 868 q 177 920 158 901 q 222 939 196 939 l 260 939 q 305 920 286 939 q 324 875 324 901 l 324 726 q 328 719 324 721 q 336 721 333 718 l 444 832 q 503 856 468 856 l 671 856 q 728 832 704 856 q 753 774 753 808 l 753 236 q 769 219 753 219 q 807 210 792 219 q 835 156 835 189 l 835 115 z "},"ろ":{"ha":679,"x_min":44,"x_max":624,"o":"m 624 190 q 598 94 624 138 q 529 26 572 51 q 433 0 486 0 l 146 0 q 101 19 119 0 q 83 64 83 38 l 83 101 q 101 147 83 128 q 146 165 119 165 l 433 165 q 452 173 444 165 q 460 190 460 181 l 460 383 q 452 401 460 394 q 433 408 444 408 l 118 408 q 61 443 79 408 q 67 510 44 478 l 226 721 q 227 731 229 726 q 218 736 225 736 l 146 736 q 101 754 119 736 q 83 799 83 772 l 83 838 q 101 882 83 864 q 146 900 119 900 l 439 900 q 496 865 479 900 q 490 799 514 832 l 332 588 q 331 578 329 583 q 339 574 333 574 l 433 574 q 529 548 486 574 q 598 479 572 522 q 624 383 624 436 l 624 190 z "},"わ":{"ha":871,"x_min":56,"x_max":815,"o":"m 815 190 q 790 94 815 138 q 721 26 764 51 q 625 0 678 0 l 457 0 q 412 19 431 0 q 393 64 393 38 l 393 101 q 412 147 393 128 q 457 165 431 165 l 625 165 q 643 173 636 165 q 650 190 650 181 l 650 665 q 625 692 650 689 l 554 692 q 524 678 538 692 l 335 486 q 322 456 322 474 l 322 64 q 304 19 322 38 q 258 0 286 0 l 221 0 q 176 19 194 0 q 157 64 157 38 l 157 147 q 152 158 157 154 q 140 160 147 163 q 118 156 131 156 q 83 165 99 156 q 56 218 56 185 l 56 257 q 94 315 56 299 l 140 335 q 157 360 157 342 l 157 674 q 139 692 157 692 l 118 692 q 74 710 92 692 q 56 754 56 728 l 56 793 q 74 838 56 819 q 118 856 92 856 l 139 856 q 152 862 147 856 q 157 875 157 868 q 176 920 157 901 q 221 939 194 939 l 258 939 q 304 920 286 939 q 322 875 322 901 l 322 726 q 327 719 322 721 q 335 721 332 718 l 443 832 q 503 856 467 856 l 625 856 q 721 830 678 856 q 790 761 764 804 q 815 665 815 718 l 815 190 z "},"ゎ":{"ha":850,"x_min":57,"x_max":792,"o":"m 792 196 q 765 97 792 142 q 694 26 739 53 q 596 0 650 0 l 472 0 q 426 19 446 0 q 407 65 407 39 l 407 104 q 426 151 407 132 q 472 169 446 169 l 596 169 q 615 178 607 169 q 622 196 622 186 l 622 432 q 615 451 622 443 q 596 458 607 458 l 574 458 q 542 444 554 458 l 346 246 q 333 214 333 233 l 333 65 q 315 19 333 39 q 268 0 296 0 l 228 0 q 182 19 201 0 q 163 65 163 39 l 163 153 q 158 163 163 160 q 146 164 153 167 q 124 160 136 160 q 86 171 104 160 q 57 226 57 192 l 57 265 q 68 301 57 285 q 97 325 79 318 l 146 346 q 163 371 163 353 l 163 440 q 144 458 163 458 l 124 458 q 76 478 96 458 q 57 524 57 497 l 57 563 q 76 610 57 590 q 124 629 96 629 l 144 629 q 163 649 163 629 q 182 695 163 676 q 228 714 201 714 l 268 714 q 315 695 296 714 q 333 649 333 676 l 333 494 q 338 488 333 489 q 346 489 343 486 l 458 603 q 519 629 482 629 l 596 628 q 694 601 650 628 q 765 531 739 575 q 792 432 792 486 l 792 196 z "},"ゐ":{"ha":894,"x_min":56,"x_max":839,"o":"m 839 168 q 816 84 839 122 q 755 23 793 46 q 671 0 717 0 l 636 0 q 552 23 590 0 q 491 84 514 46 q 468 168 468 122 l 468 303 q 491 387 468 349 q 552 447 514 425 q 636 469 590 469 l 656 469 q 674 488 674 469 l 674 556 q 656 572 674 572 l 449 572 q 431 556 431 572 l 431 64 q 412 19 431 38 q 367 0 393 0 l 246 0 q 151 26 194 0 q 81 94 107 51 q 56 190 56 138 l 56 583 q 76 661 56 626 q 132 717 97 696 q 210 738 167 738 l 247 738 q 265 756 265 738 q 247 774 265 774 l 182 774 q 137 792 156 774 q 118 836 118 810 l 118 875 q 137 920 118 901 q 182 939 156 939 l 367 939 q 412 920 393 939 q 431 875 431 901 l 431 756 q 449 738 431 738 l 685 738 q 763 717 728 738 q 818 661 797 696 q 839 583 839 626 l 839 168 m 265 183 l 265 556 q 247 572 265 572 l 239 572 q 221 556 221 572 l 221 190 q 228 173 221 181 q 246 165 236 165 q 265 183 265 165 m 674 183 l 674 288 q 656 306 674 306 l 650 306 q 633 288 633 306 l 633 183 q 650 165 633 165 l 656 165 q 674 183 674 165 z "},"ゑ":{"ha":749,"x_min":57,"x_max":692,"o":"m 692 64 q 674 19 692 38 q 629 0 656 0 l 590 0 q 545 19 564 0 q 526 64 526 38 l 526 65 q 503 88 524 88 l 493 88 q 469 65 472 88 l 469 64 q 451 19 469 38 q 406 0 432 0 l 368 0 q 323 19 342 0 q 304 64 304 38 q 297 82 304 75 q 279 89 290 89 l 247 89 q 230 82 238 89 q 222 64 222 75 q 203 19 222 38 q 158 0 185 0 l 121 0 q 76 19 94 0 q 57 64 57 38 q 75 140 57 104 q 121 204 93 175 l 185 272 q 189 285 189 278 q 182 296 189 292 q 133 351 151 317 q 115 424 115 385 q 133 494 115 463 q 176 547 150 526 q 179 569 189 557 q 176 576 178 572 q 171 583 174 581 q 182 651 156 622 l 246 722 q 247 731 249 726 q 240 736 246 736 l 225 736 q 181 754 199 736 q 163 799 163 772 l 163 838 q 181 882 163 864 q 225 900 199 900 l 486 900 q 522 890 506 900 q 544 863 538 881 q 533 794 560 826 l 469 724 q 467 715 465 719 q 475 708 469 710 q 588 644 543 697 q 633 521 633 592 l 633 456 q 608 360 633 404 q 539 291 582 317 q 443 265 496 265 l 422 265 q 393 253 404 265 l 378 238 q 379 225 371 231 q 394 225 388 219 q 433 244 413 236 q 474 253 454 253 l 522 253 q 609 226 571 253 q 669 156 647 199 q 692 64 692 113 m 468 456 l 468 521 q 461 539 468 532 q 443 546 454 546 l 385 546 q 378 541 381 546 q 381 533 376 536 q 424 447 415 499 q 444 431 426 431 q 468 456 468 433 m 304 424 q 295 444 304 436 q 274 453 286 453 q 252 444 261 453 q 243 424 243 436 q 252 402 243 411 q 274 393 261 393 q 295 402 286 393 q 304 424 304 411 z "},"を":{"ha":681,"x_min":56,"x_max":625,"o":"m 625 64 q 606 19 625 38 q 561 0 588 0 l 246 0 q 150 26 193 0 q 81 94 107 51 q 56 190 56 138 l 56 268 q 81 364 56 321 q 150 433 107 407 q 246 458 193 458 l 351 458 q 368 475 368 458 q 351 492 368 492 l 201 492 q 151 515 171 492 q 139 568 132 539 l 161 674 q 158 686 163 681 q 147 692 154 692 l 119 692 q 74 710 93 692 q 56 754 56 728 l 56 793 q 74 838 56 819 q 119 856 93 856 l 181 856 q 203 874 197 856 l 206 889 q 228 925 210 911 q 268 939 246 939 l 307 939 q 356 915 336 939 q 369 874 372 894 q 386 856 369 856 l 468 856 q 513 838 494 856 q 531 793 531 819 l 531 754 q 513 710 531 728 q 468 692 494 692 l 350 692 q 329 674 332 692 q 343 657 326 657 l 379 657 q 457 636 422 657 q 513 581 492 615 q 533 503 533 546 l 533 476 q 551 458 533 458 l 561 458 q 606 440 588 458 q 625 396 625 422 l 625 357 q 606 313 625 331 q 561 294 588 294 l 551 294 q 533 276 533 294 q 513 236 531 253 q 469 219 494 219 l 432 219 q 390 236 407 219 q 369 276 372 253 q 350 294 367 294 l 246 294 q 228 287 236 294 q 221 268 221 279 l 221 190 q 228 173 221 181 q 246 165 236 165 l 561 165 q 606 147 588 165 q 625 101 625 128 l 625 64 z "},"ん":{"ha":749,"x_min":54,"x_max":692,"o":"m 692 171 q 669 85 692 124 q 607 23 646 46 q 521 0 568 0 l 489 0 q 403 23 442 0 q 340 85 364 46 q 317 171 317 124 l 317 350 q 299 368 317 368 l 296 368 q 275 350 278 368 l 222 53 q 201 15 218 31 q 160 0 183 0 l 121 0 q 72 22 92 0 q 58 75 54 44 l 201 886 q 224 924 206 910 q 264 939 242 939 l 303 939 q 351 915 332 939 q 365 864 369 893 l 310 550 q 313 539 308 544 q 325 533 318 533 l 346 533 q 442 493 403 533 q 482 396 482 453 l 482 171 q 489 165 482 165 l 521 165 q 526 171 526 165 l 526 469 q 545 515 526 496 q 590 533 564 533 l 628 533 q 674 515 656 533 q 692 469 692 496 l 692 171 z "},"ゔ":{"ha":874,"x_min":57,"x_max":806,"o":"m 806 786 q 797 763 806 772 q 774 754 788 754 l 736 754 q 713 763 722 754 q 704 786 704 772 l 704 907 q 713 930 704 921 q 736 939 722 939 l 774 939 q 797 930 788 939 q 806 907 806 921 l 806 786 m 678 786 q 669 763 678 772 q 646 754 660 754 l 608 754 q 585 763 594 754 q 576 786 576 772 l 576 907 q 585 930 576 921 q 608 939 594 939 l 646 939 q 669 930 660 939 q 678 907 678 921 l 678 786 m 556 814 q 535 768 556 785 q 492 751 518 751 l 246 774 q 204 794 221 776 q 188 836 188 811 l 188 875 q 208 922 188 901 q 231 935 219 931 q 257 938 243 940 l 499 917 q 539 896 522 914 q 556 853 556 878 l 556 814 m 675 528 l 675 449 q 653 334 674 390 q 596 233 632 278 l 425 24 q 376 0 408 0 l 328 0 q 271 36 286 0 q 278 103 253 72 l 468 336 q 510 451 510 389 l 510 528 q 503 546 510 539 q 485 553 496 553 l 247 553 q 230 546 238 553 q 222 528 222 539 l 222 489 q 204 444 222 463 q 158 426 186 426 l 121 426 q 76 444 94 426 q 57 489 57 463 l 57 528 q 83 624 57 581 q 152 692 108 667 q 247 718 196 718 l 485 718 q 581 692 538 718 q 649 624 624 667 q 675 528 675 581 z "},"ア":{"ha":731,"x_min":57,"x_max":674,"o":"m 674 635 q 647 532 674 581 q 572 456 619 483 l 407 356 q 390 329 390 346 q 333 176 379 246 l 233 28 q 181 0 217 0 l 135 0 q 79 33 97 0 q 82 99 61 67 l 196 267 l 196 268 q 228 372 228 315 l 228 619 q 246 664 228 646 q 290 682 264 682 l 329 682 q 374 664 356 682 q 392 619 392 646 l 392 557 q 397 549 392 551 q 408 549 403 546 l 488 597 q 508 635 508 608 l 508 717 q 490 736 508 736 l 119 736 q 75 754 93 736 q 57 799 57 772 l 57 838 q 75 883 57 864 q 119 901 93 901 l 490 901 q 583 876 542 901 q 649 810 624 851 q 674 717 674 768 l 674 635 z "},"ァ":{"ha":599,"x_min":57,"x_max":543,"o":"m 543 476 q 520 390 543 431 q 458 326 497 350 l 353 263 q 335 236 339 256 q 293 132 324 179 l 224 28 q 171 0 203 0 l 125 0 q 68 33 86 0 q 62 67 61 49 q 72 99 63 85 l 156 224 q 175 286 175 254 l 175 433 q 193 478 175 460 q 238 496 211 496 l 276 496 q 332 463 313 496 q 354 457 340 447 l 374 468 q 378 476 378 471 l 378 508 q 360 526 378 526 l 119 526 q 75 545 93 526 q 57 590 57 564 l 57 628 q 75 673 57 654 q 119 692 93 692 l 388 692 q 465 670 431 692 q 522 614 500 649 q 543 536 543 579 l 543 476 z "},"イ":{"ha":731,"x_min":57,"x_max":674,"o":"m 674 828 q 649 776 674 797 l 463 632 q 447 603 447 621 l 447 64 q 429 19 447 38 q 385 0 411 0 l 346 0 q 301 19 319 0 q 283 64 283 38 l 283 475 q 278 483 283 481 q 268 482 272 485 l 158 397 q 119 383 143 383 q 92 390 108 383 q 57 447 57 408 l 57 496 q 81 546 57 526 l 571 925 q 638 932 603 950 q 674 875 674 917 l 674 828 z "},"ィ":{"ha":592,"x_min":57,"x_max":535,"o":"m 535 603 q 508 553 535 571 l 393 467 q 378 438 378 456 l 378 64 q 360 19 378 38 q 315 0 342 0 l 276 0 q 231 19 250 0 q 213 64 213 38 l 213 315 q 208 323 213 321 q 199 322 203 325 l 158 292 q 119 279 142 279 q 92 286 106 279 q 57 343 57 304 l 57 390 q 82 442 57 421 l 433 701 q 500 707 465 724 q 535 650 535 689 l 535 603 z "},"ウ":{"ha":731,"x_min":57,"x_max":674,"o":"m 674 454 q 594 233 674 329 l 425 24 q 375 0 406 0 l 326 0 q 269 36 285 0 q 278 103 251 74 l 467 336 q 498 392 488 361 q 508 454 508 424 l 508 674 q 490 692 508 692 l 239 692 q 221 674 221 692 l 221 560 q 203 515 221 533 q 158 497 185 497 l 119 497 q 75 515 93 497 q 57 560 57 533 l 57 793 q 75 838 57 819 q 119 856 93 856 l 264 856 q 277 862 272 856 q 282 875 282 868 q 301 920 282 901 q 346 939 319 939 l 385 939 q 429 920 411 939 q 447 875 447 901 q 453 862 447 868 q 465 856 458 856 l 610 856 q 656 838 638 856 q 674 793 674 819 l 674 454 z "},"ゥ":{"ha":606,"x_min":57,"x_max":549,"o":"m 549 346 q 486 171 549 249 l 367 24 q 317 0 347 0 l 268 0 q 211 36 226 0 q 218 103 193 72 l 358 275 q 383 346 383 307 l 383 476 q 365 494 383 494 l 240 494 q 222 476 222 494 l 222 422 q 203 378 222 396 q 158 360 185 360 l 119 360 q 75 378 93 360 q 57 422 57 396 l 57 596 q 75 641 57 622 q 119 660 93 660 l 201 660 q 225 675 218 660 q 283 713 242 713 l 322 713 q 379 675 363 713 q 404 660 388 660 l 485 660 q 531 641 513 660 q 549 596 549 622 l 549 346 z "},"エ":{"ha":731,"x_min":57,"x_max":674,"o":"m 674 64 q 656 19 674 38 q 610 0 638 0 l 119 0 q 75 19 93 0 q 57 64 57 38 l 57 101 q 75 147 57 128 q 119 165 93 165 l 265 165 q 282 183 282 165 l 282 718 q 265 736 282 736 l 119 736 q 75 754 93 736 q 57 799 57 772 l 57 838 q 75 882 57 864 q 119 900 93 900 l 610 900 q 656 882 638 900 q 674 838 674 864 l 674 799 q 656 754 674 772 q 610 736 638 736 l 465 736 q 447 718 447 736 l 447 183 q 465 165 447 165 l 610 165 q 656 147 638 165 q 674 101 674 128 l 674 64 z "},"ェ":{"ha":592,"x_min":57,"x_max":535,"o":"m 535 64 q 516 19 535 38 q 471 0 497 0 l 119 0 q 75 19 93 0 q 57 64 57 38 l 57 101 q 75 147 57 128 q 119 165 93 165 l 194 165 q 213 183 213 165 l 213 508 q 194 526 213 526 l 119 526 q 75 545 93 526 q 57 590 57 564 l 57 628 q 75 673 57 654 q 119 692 93 692 l 471 692 q 516 673 497 692 q 535 628 535 654 l 535 590 q 516 545 535 564 q 471 526 497 526 l 396 526 q 378 508 378 526 l 378 183 q 396 165 378 165 l 471 165 q 516 147 497 165 q 535 101 535 128 l 535 64 z "},"オ":{"ha":731,"x_min":57,"x_max":674,"o":"m 674 754 q 656 710 674 728 q 610 692 638 692 l 586 692 q 568 674 568 692 l 568 64 q 550 19 568 38 q 506 0 532 0 l 467 0 q 422 19 440 0 q 404 64 404 38 l 404 674 q 386 692 404 692 l 367 692 q 349 674 349 692 l 349 357 q 325 228 349 290 q 256 118 301 167 l 167 21 q 119 0 149 0 q 97 4 108 0 q 57 64 57 19 l 57 119 q 74 163 57 146 l 135 229 q 185 357 185 283 l 185 674 q 167 692 185 692 l 119 692 q 75 710 93 692 q 57 754 57 728 l 57 793 q 75 838 57 819 q 119 856 93 856 l 386 856 q 399 862 393 856 q 404 875 404 868 q 422 920 404 901 q 467 939 440 939 l 506 939 q 550 920 532 939 q 568 875 568 901 q 574 862 568 868 q 586 856 579 856 l 610 856 q 656 838 638 856 q 674 793 674 819 l 674 754 z "},"ォ":{"ha":596,"x_min":57,"x_max":539,"o":"m 539 558 q 524 517 539 535 q 485 496 508 499 q 468 475 468 492 l 468 64 q 449 19 468 38 q 404 0 431 0 l 367 0 q 322 19 340 0 q 303 64 303 38 l 303 482 q 290 494 303 494 q 279 482 279 494 l 279 250 q 206 63 279 143 l 167 21 q 97 4 139 -12 q 68 28 79 11 q 57 64 57 44 l 57 119 q 74 163 57 146 l 85 174 q 114 250 114 207 l 114 475 q 97 499 114 492 q 68 522 79 506 q 57 558 57 538 l 57 596 q 76 641 57 622 q 121 660 94 660 l 285 660 q 308 675 301 660 q 331 703 315 692 q 367 714 347 714 l 404 714 q 463 676 446 714 q 486 658 469 661 q 524 638 508 656 q 539 596 539 619 l 539 558 z "},"カ":{"ha":714,"x_min":58,"x_max":656,"o":"m 656 183 q 631 92 656 133 q 565 25 606 50 q 472 0 524 0 l 347 0 q 303 19 321 0 q 285 64 285 38 l 285 101 q 303 147 285 128 q 347 165 321 165 l 472 165 q 485 171 479 165 q 492 183 492 176 l 492 674 q 474 692 492 692 l 368 692 q 347 674 350 692 l 238 53 q 216 15 233 31 q 175 0 199 0 l 136 0 q 88 22 107 0 q 74 74 69 47 l 179 674 q 177 686 182 681 q 165 692 172 692 l 121 692 q 76 710 94 692 q 58 754 58 728 l 58 793 q 76 838 58 819 q 121 856 94 856 l 194 856 q 215 874 213 856 l 217 886 q 239 924 221 910 q 279 939 257 939 l 318 939 q 367 915 350 939 q 382 874 382 900 q 399 856 382 856 l 593 856 q 638 838 619 856 q 656 793 656 819 l 656 183 z "},"ヵ":{"ha":582,"x_min":56,"x_max":525,"o":"m 525 156 q 504 77 525 113 q 449 21 483 42 q 371 0 414 0 l 332 0 q 287 19 306 0 q 268 64 268 38 l 268 101 q 287 147 268 128 q 332 165 306 165 l 343 165 q 361 183 361 165 l 361 476 q 343 494 361 494 l 321 494 q 300 476 303 494 l 225 53 q 203 15 221 31 q 163 0 186 0 l 124 0 q 75 22 94 0 q 61 75 57 47 l 132 476 q 129 489 133 483 q 118 494 125 494 q 74 514 92 496 q 56 558 56 532 l 56 596 q 74 641 56 622 q 119 660 93 660 l 144 660 q 169 675 163 660 q 228 713 186 713 l 265 713 q 314 690 296 713 q 324 675 322 682 q 349 660 331 660 l 463 660 q 507 641 489 660 q 525 596 525 622 l 525 156 z "},"ガ":{"ha":714,"x_min":58,"x_max":656,"o":"m 656 786 q 647 763 656 772 q 624 754 638 754 l 586 754 q 563 763 572 754 q 554 786 554 772 l 554 907 q 563 930 554 921 q 586 939 572 939 l 624 939 q 647 930 638 939 q 656 907 656 921 l 656 786 m 529 786 q 520 763 529 772 q 497 754 511 754 l 460 754 q 437 763 446 754 q 428 786 428 772 l 428 907 q 437 930 428 921 q 460 939 446 939 l 497 939 q 520 930 511 939 q 529 907 529 921 l 529 786 m 656 183 q 631 92 656 133 q 565 25 606 50 q 472 0 524 0 l 347 0 q 302 19 321 0 q 283 64 283 38 l 283 101 q 302 147 283 128 q 347 165 321 165 l 472 165 q 485 171 479 165 q 492 183 492 176 l 492 674 q 474 692 492 692 l 368 692 q 347 674 350 692 l 238 53 q 216 15 233 31 q 175 0 199 0 l 136 0 q 88 22 107 0 q 74 74 69 47 l 179 674 q 177 686 182 681 q 165 692 172 692 l 121 692 q 76 710 94 692 q 58 754 58 728 l 58 793 q 76 838 58 819 q 121 856 94 856 l 194 856 q 215 874 213 856 l 218 886 q 239 924 221 910 q 279 939 257 939 l 318 939 q 367 915 350 939 q 382 867 385 897 q 390 856 379 856 q 401 844 401 856 l 401 786 q 419 746 401 763 q 460 729 436 729 l 497 729 q 529 739 513 729 q 554 739 542 749 q 586 729 571 729 l 624 729 q 640 732 632 729 q 656 719 656 735 l 656 183 z "},"キ":{"ha":731,"x_min":57,"x_max":674,"o":"m 674 489 q 656 444 674 463 q 610 425 638 425 l 493 425 q 483 419 488 425 q 479 407 478 414 l 538 74 q 524 22 542 44 q 475 0 504 0 l 436 0 q 396 15 414 0 q 374 53 378 31 l 311 407 q 290 425 308 425 l 119 425 q 75 444 93 425 q 57 489 57 463 l 57 526 q 75 572 57 554 q 119 590 93 590 l 261 590 q 276 608 279 590 l 264 674 q 243 692 261 692 l 119 692 q 75 710 93 692 q 57 754 57 728 l 57 793 q 75 838 57 819 q 119 856 93 856 l 214 856 q 226 861 221 856 q 229 874 231 867 q 244 915 229 897 q 293 939 264 939 l 332 939 q 373 924 356 939 q 394 886 390 910 l 396 874 q 418 856 401 856 l 610 856 q 656 838 638 856 q 674 793 674 819 l 674 754 q 656 710 674 728 q 610 692 638 692 l 447 692 q 435 686 440 692 q 432 674 431 681 l 443 608 q 464 590 447 590 l 610 590 q 656 572 638 590 q 674 526 674 554 l 674 489 z "},"ギ":{"ha":758,"x_min":56,"x_max":703,"o":"m 703 786 q 694 763 703 772 q 671 754 685 754 l 633 754 q 610 763 619 754 q 601 786 601 772 l 601 907 q 610 930 601 921 q 633 939 619 939 l 671 939 q 694 930 685 939 q 703 907 703 921 l 703 786 m 575 786 q 566 763 575 772 q 544 754 557 754 l 506 754 q 483 763 493 754 q 474 786 474 772 l 474 907 q 483 930 474 921 q 506 939 493 939 l 544 939 q 566 930 557 939 q 575 907 575 921 l 575 786 m 674 489 q 655 444 674 463 q 610 425 636 425 l 493 425 q 478 407 475 425 l 538 74 q 524 22 542 47 q 475 0 504 0 l 436 0 q 396 15 414 0 q 374 53 378 31 l 311 407 q 290 425 307 425 l 119 425 q 74 444 93 425 q 56 489 56 463 l 56 526 q 74 572 56 554 q 119 590 93 590 l 261 590 q 273 596 268 590 q 275 608 278 601 l 264 674 q 243 692 261 692 l 119 692 q 74 710 93 692 q 56 754 56 728 l 56 793 q 74 838 56 819 q 119 856 93 856 l 213 856 q 229 874 229 856 q 244 915 229 897 q 293 939 261 939 l 332 939 q 373 924 356 939 q 394 886 390 910 l 396 874 q 417 856 399 856 l 431 856 q 449 838 449 856 l 449 786 q 466 746 449 763 q 506 729 483 729 l 544 729 q 575 739 561 729 q 601 739 589 747 q 616 732 608 735 q 633 729 624 729 l 650 729 q 660 724 657 729 q 658 714 663 718 q 610 692 639 692 l 446 692 q 435 686 440 692 q 432 674 431 681 l 443 608 q 464 590 446 590 l 610 590 q 655 572 636 590 q 674 526 674 554 l 674 489 z "},"ク":{"ha":731,"x_min":56,"x_max":676,"o":"m 669 826 l 553 168 q 515 83 544 121 q 444 22 486 44 q 353 0 401 0 l 308 0 q 263 18 282 0 q 244 63 244 36 l 244 101 q 263 147 244 128 q 308 165 282 165 l 353 165 q 377 175 365 165 q 390 196 389 185 l 483 718 q 468 736 486 736 l 296 736 q 275 718 278 736 l 224 475 q 201 439 218 453 q 161 425 185 425 l 122 425 q 74 449 90 425 q 60 501 56 469 l 133 850 q 156 886 139 872 q 196 900 174 900 l 607 900 q 656 878 638 900 q 669 826 676 856 z "},"グ":{"ha":807,"x_min":51,"x_max":794,"o":"m 794 786 q 785 764 794 774 q 763 754 776 754 l 725 754 q 702 764 711 754 q 693 786 693 774 l 693 907 q 702 930 693 921 q 725 939 711 939 l 763 939 q 785 930 776 939 q 794 907 794 921 l 794 786 m 669 786 q 660 764 669 774 q 638 754 651 754 l 599 754 q 577 764 586 754 q 568 786 568 774 l 568 907 q 577 930 568 921 q 599 939 586 939 l 638 939 q 660 930 651 939 q 669 907 669 921 l 669 786 m 647 713 l 550 168 q 513 83 542 121 q 441 22 483 44 q 350 0 399 0 l 306 0 q 261 19 279 0 q 243 64 243 38 l 243 101 q 261 147 243 128 q 306 165 279 165 l 350 165 q 374 175 363 165 q 388 197 386 185 l 481 718 q 478 731 482 725 q 467 736 474 736 l 294 736 q 272 718 278 736 l 221 475 q 199 439 217 453 q 160 425 182 425 l 121 425 q 71 449 90 425 q 58 501 51 469 l 132 850 q 153 886 136 872 q 193 900 171 900 l 522 900 q 540 883 540 900 l 540 786 q 558 746 540 763 q 597 729 575 729 l 633 729 q 647 713 650 729 z "},"ケ":{"ha":731,"x_min":54,"x_max":672,"o":"m 672 754 q 654 710 672 728 q 610 692 636 692 l 582 692 q 564 674 564 692 l 564 372 q 506 176 564 264 l 406 28 q 353 0 389 0 l 307 0 q 251 33 269 0 q 254 99 233 67 l 368 268 q 400 372 400 315 l 400 674 q 382 692 400 692 l 278 692 q 257 674 260 692 l 222 478 q 201 440 218 456 q 160 425 183 425 l 121 425 q 72 447 92 425 q 58 499 54 468 l 126 886 q 149 924 131 910 q 189 939 167 939 l 228 939 q 276 915 257 939 q 292 874 292 897 q 296 861 290 867 q 307 856 301 856 l 610 856 q 654 838 636 856 q 672 793 672 819 l 672 754 z "},"ヶ":{"ha":600,"x_min":53,"x_max":543,"o":"m 543 560 q 527 518 543 536 q 488 497 511 500 q 471 478 471 494 l 471 288 q 424 133 471 204 l 353 28 q 300 0 335 0 l 254 0 q 199 33 217 0 q 201 99 181 67 l 286 225 q 306 288 306 253 l 306 479 q 288 497 306 497 l 264 497 q 242 479 247 497 l 221 361 q 200 324 218 339 q 158 308 182 308 l 121 308 q 72 331 90 308 q 58 383 53 356 l 107 661 q 129 698 111 683 q 169 713 147 713 l 208 713 q 257 690 238 713 q 262 684 260 688 q 265 678 264 681 q 290 661 272 661 l 481 661 q 525 643 507 661 q 543 599 543 625 l 543 560 z "},"ゲ":{"ha":731,"x_min":54,"x_max":672,"o":"m 672 786 q 663 763 672 772 q 640 754 654 754 l 603 754 q 580 763 589 754 q 571 786 571 772 l 571 907 q 580 930 571 921 q 603 939 589 939 l 640 939 q 663 930 654 939 q 672 907 672 921 l 672 786 m 546 786 q 536 763 546 772 q 514 754 526 754 l 475 754 q 453 763 463 754 q 444 786 444 772 l 444 907 q 453 930 444 921 q 475 939 463 939 l 514 939 q 536 930 526 939 q 546 907 546 921 l 546 786 m 663 719 q 610 692 644 692 l 582 692 q 565 674 565 692 l 565 372 q 506 176 565 267 l 406 28 q 353 0 388 0 l 307 0 q 251 33 269 0 q 254 99 233 67 l 368 268 q 400 372 400 315 l 400 674 q 382 692 400 692 l 278 692 q 257 674 260 692 l 222 478 q 201 440 218 456 q 160 425 183 425 l 121 425 q 72 447 92 425 q 58 499 54 468 l 126 886 q 149 924 131 910 q 189 939 167 939 l 228 939 q 276 915 257 939 q 292 874 292 897 q 308 856 292 856 l 400 856 q 418 838 418 856 l 418 786 q 435 746 418 763 q 475 729 453 729 l 514 729 q 544 739 531 729 q 571 739 558 749 q 585 732 578 735 q 603 729 593 729 l 640 729 q 654 731 650 729 q 663 728 660 732 q 663 719 665 724 z "},"コ":{"ha":646,"x_min":57,"x_max":589,"o":"m 589 183 q 564 92 589 133 q 498 25 539 50 q 406 0 457 0 l 119 0 q 75 19 93 0 q 57 64 57 38 l 57 101 q 75 147 57 128 q 119 165 93 165 l 406 165 q 424 183 424 165 l 424 717 q 406 736 424 736 l 119 736 q 75 754 93 736 q 57 799 57 772 l 57 838 q 75 883 57 864 q 119 901 93 901 l 406 901 q 498 876 457 901 q 564 810 539 851 q 589 717 589 768 l 589 183 z "},"ゴ":{"ha":749,"x_min":97,"x_max":732,"o":"m 732 786 q 722 763 732 772 q 700 754 713 754 l 661 754 q 640 763 649 754 q 631 786 631 772 l 631 907 q 640 930 631 921 q 661 939 649 939 l 700 939 q 722 930 713 939 q 732 907 732 921 l 732 786 m 604 786 q 595 763 604 772 q 572 754 586 754 l 535 754 q 512 763 521 754 q 503 786 503 772 l 503 907 q 512 930 503 921 q 535 939 521 939 l 572 939 q 595 930 586 939 q 604 907 604 921 l 604 786 m 631 183 q 606 92 631 133 q 539 25 581 50 q 446 0 497 0 l 161 0 q 116 19 135 0 q 97 64 97 38 l 97 101 q 116 147 97 128 q 161 165 135 165 l 446 165 q 465 183 465 165 l 465 717 q 446 736 465 736 l 161 736 q 116 754 135 736 q 97 799 97 772 l 97 838 q 116 883 97 864 q 161 900 135 901 l 460 900 q 472 894 467 900 q 478 881 478 888 l 478 786 q 494 746 478 763 q 535 729 511 729 l 572 729 q 611 744 596 729 q 622 744 618 749 q 629 731 629 740 q 631 724 631 728 q 631 717 631 719 l 631 183 z "},"サ":{"ha":731,"x_min":57,"x_max":674,"o":"m 674 754 q 656 710 674 728 q 610 692 638 692 l 604 692 q 586 674 586 692 l 586 372 q 528 176 586 264 l 428 28 q 375 0 411 0 l 329 0 q 274 33 292 0 q 276 99 256 67 l 319 163 l 390 268 q 422 372 422 315 l 422 674 q 404 692 422 692 l 326 692 q 308 674 308 692 l 308 363 q 290 317 308 336 q 244 299 272 299 l 207 299 q 162 317 181 299 q 143 363 143 336 l 143 674 q 125 692 143 692 l 119 692 q 75 710 93 692 q 57 754 57 728 l 57 793 q 75 838 57 819 q 119 856 93 856 l 125 856 q 138 862 133 856 q 143 875 143 868 q 162 920 143 901 q 207 939 181 939 l 244 939 q 290 920 272 939 q 308 875 308 901 q 313 862 308 868 q 326 856 318 856 l 404 856 q 417 862 411 856 q 422 875 422 868 q 440 920 422 901 q 485 939 458 939 l 524 939 q 568 920 550 939 q 586 875 586 901 q 592 862 586 868 q 604 856 597 856 l 610 856 q 656 838 638 856 q 674 793 674 819 l 674 754 z "},"ザ":{"ha":749,"x_min":56,"x_max":739,"o":"m 739 786 q 730 763 739 772 q 707 754 721 754 l 669 754 q 647 763 656 754 q 638 786 638 772 l 638 907 q 647 930 638 921 q 669 939 656 939 l 707 939 q 730 930 721 939 q 739 907 739 921 l 739 786 m 613 786 q 603 763 613 772 q 581 754 594 754 l 543 754 q 520 763 529 754 q 511 786 511 772 l 511 907 q 535 938 511 931 l 538 938 q 543 939 539 939 l 581 939 q 603 930 594 939 q 613 907 613 921 l 613 786 m 657 713 q 610 692 639 692 l 604 692 q 586 674 586 692 l 586 372 q 526 176 586 267 l 428 28 q 375 0 411 0 l 329 0 q 274 33 292 0 q 276 99 256 67 l 321 165 l 390 268 q 421 372 421 313 l 421 674 q 403 692 421 692 l 326 692 q 308 674 308 692 l 308 363 q 290 317 308 336 q 244 299 271 299 l 207 299 q 162 317 181 299 q 143 363 143 336 l 143 674 q 125 692 143 692 l 119 692 q 74 710 93 692 q 56 754 56 728 l 56 793 q 74 838 56 819 q 119 856 93 856 l 125 856 q 138 862 133 856 q 143 875 143 868 q 162 920 143 901 q 207 939 181 939 l 244 939 q 290 920 271 939 q 308 875 308 901 q 313 862 308 868 q 326 856 318 856 l 403 856 q 416 862 411 856 q 421 875 421 868 q 437 917 421 899 q 475 938 453 935 q 486 935 482 939 q 488 924 490 931 q 485 915 486 919 q 485 907 485 911 l 485 786 q 502 746 485 763 q 543 729 519 729 l 581 729 q 613 739 596 729 q 639 739 625 749 q 653 732 647 733 q 660 724 658 731 q 657 713 661 718 z "},"シ":{"ha":692,"x_min":56,"x_max":636,"o":"m 401 799 q 383 754 401 772 q 338 736 365 736 l 119 736 q 74 754 93 736 q 56 799 56 772 l 56 838 q 74 883 56 864 q 119 901 93 901 l 338 901 q 383 883 365 901 q 401 838 401 864 l 401 799 m 636 183 q 611 92 636 133 q 544 25 586 50 q 451 0 503 0 l 119 0 q 74 19 93 0 q 56 64 56 38 l 56 101 q 74 147 56 128 q 119 165 93 165 l 451 165 q 471 183 471 165 l 471 688 q 489 733 471 714 q 533 751 507 751 l 572 751 q 617 733 599 751 q 636 688 636 714 l 636 183 m 401 549 q 383 504 401 522 q 338 486 365 486 l 119 486 q 74 504 93 486 q 56 549 56 522 l 56 588 q 74 632 56 614 q 119 650 93 650 l 338 650 q 383 632 365 650 q 401 588 401 614 l 401 549 z "},"ジ":{"ha":731,"x_min":53,"x_max":696,"o":"m 696 786 q 687 763 696 772 q 664 754 678 754 l 626 754 q 603 763 613 754 q 594 786 594 772 l 594 907 q 603 930 594 921 q 626 939 613 939 l 664 939 q 687 930 678 939 q 696 907 696 921 l 696 786 m 569 786 q 560 763 569 772 q 538 754 550 754 l 499 754 q 477 763 486 754 q 468 786 468 772 l 468 907 q 477 930 468 921 q 499 939 486 939 l 538 939 q 560 930 550 939 q 569 907 569 921 l 569 786 m 399 799 q 380 754 399 772 q 335 736 361 736 l 117 736 q 72 754 90 736 q 53 799 53 772 l 53 838 q 72 882 53 864 q 117 900 90 900 l 335 900 q 380 882 361 900 q 399 838 399 864 l 399 799 m 632 183 q 607 92 632 133 q 541 25 582 50 q 449 0 500 0 l 117 0 q 72 19 90 0 q 53 64 53 38 l 53 101 q 72 147 53 128 q 117 165 90 165 l 449 165 q 462 171 456 165 q 468 183 468 176 l 468 675 q 486 719 468 701 q 531 738 504 738 l 569 738 q 614 719 596 738 q 632 675 632 701 l 632 183 m 399 549 q 380 503 399 522 q 335 485 361 485 l 117 485 q 72 503 90 485 q 53 549 53 522 l 53 588 q 72 632 53 614 q 117 650 90 650 l 335 650 q 380 632 361 650 q 399 588 399 614 l 399 549 z "},"ス":{"ha":731,"x_min":46,"x_max":685,"o":"m 674 638 q 608 464 674 538 l 488 326 q 488 300 475 314 l 658 106 q 669 38 685 74 q 611 0 651 0 l 560 0 q 513 21 532 0 l 376 175 q 353 175 365 188 l 217 21 q 169 0 200 0 l 119 0 q 85 10 101 0 q 61 38 68 19 q 71 106 46 74 l 485 572 q 508 638 508 600 l 508 710 q 501 728 508 721 q 483 736 494 736 l 119 736 q 74 754 93 736 q 56 799 56 772 l 56 838 q 74 882 56 864 q 119 900 93 900 l 483 900 q 579 874 536 900 q 648 806 622 849 q 674 710 674 763 l 674 638 z "},"ズ":{"ha":749,"x_min":46,"x_max":775,"o":"m 775 786 q 766 763 775 772 q 743 754 757 754 l 706 754 q 683 763 692 754 q 674 786 674 772 l 674 907 q 683 930 674 921 q 706 939 692 939 l 743 939 q 766 930 757 939 q 775 907 775 921 l 775 786 m 649 786 q 639 763 649 772 q 617 754 629 754 l 578 754 q 556 763 565 754 q 546 786 546 772 l 546 907 q 556 930 546 921 q 578 939 565 939 l 617 939 q 639 930 629 939 q 649 907 649 921 l 649 786 m 674 638 q 608 464 674 538 l 488 326 q 488 300 475 314 l 658 106 q 668 38 686 74 q 611 0 653 0 l 560 0 q 513 21 533 0 l 376 175 q 353 175 365 188 l 217 21 q 169 0 199 0 l 119 0 q 85 10 101 0 q 61 38 68 19 q 71 106 46 74 l 485 572 q 508 638 508 600 l 508 710 q 501 728 508 721 q 483 736 494 736 l 119 736 q 74 754 93 736 q 56 799 56 772 l 56 838 q 74 882 56 864 q 119 900 93 900 l 503 900 q 521 879 521 897 l 521 786 q 538 746 521 763 q 578 729 556 729 l 617 729 q 656 744 640 729 q 665 746 660 751 q 672 733 669 742 q 673 722 672 728 q 674 710 674 717 l 674 638 z "},"セ":{"ha":731,"x_min":57,"x_max":679,"o":"m 672 778 l 590 435 q 568 400 585 414 q 529 386 551 386 l 489 386 q 440 411 458 386 q 428 465 421 435 l 478 674 q 475 686 479 681 q 464 692 471 692 l 326 692 q 308 674 308 692 l 308 183 q 328 165 308 165 l 572 165 q 618 147 600 165 q 636 101 636 128 l 636 64 q 618 19 636 38 q 572 0 600 0 l 328 0 q 235 25 276 0 q 168 92 193 50 q 143 183 143 133 l 143 674 q 125 692 143 692 l 119 692 q 75 710 93 692 q 57 754 57 728 l 57 793 q 75 838 57 819 q 119 856 93 856 l 125 856 q 138 862 133 856 q 143 875 143 868 q 162 920 143 901 q 207 939 181 939 l 244 939 q 290 920 271 939 q 308 875 308 901 q 313 862 308 868 q 326 856 318 856 l 610 856 q 660 832 640 856 q 672 778 679 808 z "},"ゼ":{"ha":731,"x_min":57,"x_max":674,"o":"m 674 786 q 664 763 674 772 q 642 754 654 754 l 603 754 q 581 763 590 754 q 572 786 572 772 l 572 907 q 581 930 572 921 q 603 939 590 939 l 642 939 q 664 930 654 939 q 674 907 674 921 l 674 786 m 546 786 q 537 763 546 772 q 514 754 528 754 l 476 754 q 453 763 463 754 q 444 786 444 772 l 444 907 q 453 930 444 921 q 476 939 463 939 l 514 939 q 537 930 528 939 q 546 907 546 921 l 546 786 m 636 64 q 618 19 636 38 q 574 0 600 0 l 328 0 q 235 25 278 0 q 168 92 193 50 q 143 183 143 133 l 143 674 q 125 690 143 690 l 121 690 q 76 709 94 690 q 57 754 57 728 l 57 793 q 76 838 57 819 q 121 856 94 856 l 125 856 q 138 862 133 856 q 143 875 143 868 q 162 920 143 901 q 207 939 181 939 l 244 939 q 290 920 272 939 q 308 875 308 901 q 314 862 308 868 q 326 856 319 856 l 401 856 q 419 838 419 856 l 419 786 q 436 746 419 763 q 476 729 453 729 l 514 729 q 546 739 532 729 q 572 739 560 747 q 603 729 583 729 l 644 729 q 657 714 660 729 l 590 435 q 568 400 585 414 q 529 386 551 386 l 490 386 q 440 411 461 386 q 428 465 421 435 l 478 674 q 476 685 481 681 q 464 690 471 690 l 326 690 q 308 674 308 690 l 308 183 q 328 165 308 165 l 574 165 q 618 147 600 165 q 636 101 636 128 l 636 64 z "},"ソ":{"ha":714,"x_min":56,"x_max":660,"o":"m 306 463 q 293 410 313 433 q 243 386 272 386 l 204 386 q 165 401 182 386 q 143 438 147 415 l 61 824 q 74 878 56 853 q 124 900 93 900 l 163 900 q 202 886 185 900 q 225 850 219 872 l 306 463 m 653 782 l 544 168 q 506 83 536 121 q 434 22 476 44 q 343 0 392 0 l 256 0 q 211 18 229 0 q 193 63 193 36 l 193 101 q 211 147 193 128 q 256 165 229 165 l 343 165 q 368 175 356 165 q 382 196 381 185 l 489 804 q 511 841 493 826 q 551 856 529 856 l 590 856 q 639 833 619 856 q 653 782 660 811 z "},"ゾ":{"ha":779,"x_min":83,"x_max":831,"o":"m 831 786 q 821 764 831 774 q 799 754 811 754 l 760 754 q 738 764 747 754 q 728 786 728 774 l 728 907 q 738 930 728 921 q 760 939 747 939 l 799 939 q 821 930 811 939 q 831 907 831 921 l 831 786 m 704 786 q 695 764 704 774 q 672 754 686 754 l 635 754 q 612 764 621 754 q 603 786 603 774 l 603 907 q 612 930 603 921 q 635 939 621 939 l 672 939 q 695 930 686 939 q 704 907 704 921 l 704 786 m 335 464 q 321 410 339 432 q 272 388 303 388 l 233 388 q 194 401 211 388 q 171 438 176 415 l 90 824 q 103 878 83 854 q 151 900 122 900 l 190 900 q 231 886 214 900 q 253 850 249 872 l 335 464 m 669 711 l 572 168 q 535 83 564 121 q 463 22 506 44 q 372 0 421 0 l 285 0 q 240 19 258 0 q 221 64 221 38 l 221 101 q 240 147 221 128 q 285 165 258 165 l 372 165 q 397 175 385 165 q 410 197 408 185 l 518 804 q 557 851 525 840 q 570 850 564 854 q 576 839 576 846 l 576 786 q 593 746 576 763 q 633 729 610 729 l 654 729 q 669 711 672 729 z "},"タ":{"ha":731,"x_min":56,"x_max":676,"o":"m 669 826 l 553 168 q 515 83 544 121 q 444 22 486 44 q 353 0 401 0 l 265 0 q 220 18 239 0 q 201 63 201 36 l 201 101 q 220 147 201 128 q 265 165 239 165 l 353 165 q 377 175 365 165 q 390 196 389 185 l 428 407 q 413 425 431 425 l 122 425 q 74 449 90 425 q 60 501 56 469 l 133 850 q 156 886 139 872 q 196 900 174 900 l 607 900 q 656 878 638 900 q 669 826 676 856 m 483 718 q 468 736 486 736 l 296 736 q 275 718 278 736 l 251 607 q 265 590 249 590 l 443 590 q 464 607 460 590 l 483 718 z "},"ダ":{"ha":731,"x_min":53,"x_max":786,"o":"m 786 786 q 776 764 786 774 q 754 754 767 754 l 715 754 q 694 764 703 754 q 685 786 685 774 l 685 907 q 694 930 685 921 q 715 939 703 939 l 754 939 q 776 930 767 939 q 786 907 786 921 l 786 786 m 658 786 q 649 764 658 774 q 626 754 640 754 l 589 754 q 566 764 575 754 q 557 786 557 774 l 557 907 q 566 930 557 921 q 589 939 575 939 l 626 939 q 649 930 640 939 q 658 907 658 921 l 658 786 m 647 717 l 550 168 q 513 83 542 121 q 441 22 483 44 q 350 0 399 0 l 263 0 q 217 19 236 0 q 199 64 199 38 l 199 101 q 217 147 199 128 q 263 165 236 165 l 350 165 q 374 175 361 165 q 388 197 386 185 l 425 407 q 410 425 428 425 l 119 425 q 71 449 88 425 q 57 501 53 469 l 131 850 q 153 886 136 872 q 193 900 171 900 l 514 900 q 532 883 532 900 l 532 788 q 549 747 532 764 q 589 729 565 731 l 635 729 q 644 726 640 731 q 647 717 649 722 m 481 718 q 465 736 483 736 l 293 736 q 272 718 275 736 l 249 607 q 251 596 247 601 q 263 590 256 590 l 439 590 q 461 607 457 590 l 481 718 z "},"チ":{"ha":731,"x_min":57,"x_max":674,"o":"m 674 549 q 656 504 674 522 q 610 486 638 486 l 483 486 q 465 468 465 486 l 465 372 q 407 176 465 264 l 307 28 q 254 0 290 0 l 208 0 q 153 33 171 0 q 156 99 135 67 l 269 268 q 301 372 301 315 l 301 468 q 283 486 301 486 l 119 486 q 75 504 93 486 q 57 549 57 522 l 57 588 q 75 632 57 614 q 119 650 93 650 l 283 650 q 301 668 301 650 l 301 689 q 296 701 301 696 q 283 706 290 707 l 125 692 l 119 692 q 76 708 96 692 q 57 756 57 725 l 57 793 q 74 836 57 818 q 114 857 90 854 l 604 900 q 653 885 633 903 q 674 838 674 867 l 674 799 q 657 757 674 775 q 615 736 640 739 l 483 724 q 471 717 476 724 q 465 704 465 711 l 465 668 q 483 650 465 650 l 610 650 q 656 632 638 650 q 674 588 674 614 l 674 549 z "},"ヂ":{"ha":731,"x_min":57,"x_max":719,"o":"m 674 549 q 656 504 674 522 q 610 486 638 486 l 483 486 q 465 468 465 486 l 465 372 q 407 176 465 264 l 307 28 q 254 0 289 0 l 208 0 q 153 33 171 0 q 156 99 135 67 l 269 268 q 301 372 301 315 l 301 468 q 283 486 301 486 l 119 486 q 75 504 93 486 q 57 549 57 522 l 57 588 q 75 632 57 614 q 119 650 93 650 l 283 650 q 301 668 301 650 l 301 689 q 296 701 301 696 q 283 706 290 707 l 125 692 l 119 692 q 76 708 96 692 q 57 756 57 725 l 57 793 q 74 836 57 818 q 114 857 90 854 l 604 900 q 653 885 633 903 q 674 838 674 867 l 674 799 q 657 757 674 775 q 615 736 640 739 l 483 724 q 471 717 476 724 q 465 704 465 711 l 465 668 q 483 650 465 650 l 610 650 q 656 632 638 650 q 674 588 674 614 l 674 549 m 719 308 q 710 285 719 294 q 688 276 701 276 l 650 276 q 627 285 636 276 q 618 308 618 294 l 618 428 q 627 451 618 442 q 650 460 636 460 l 688 460 q 710 451 701 460 q 719 428 719 442 l 719 308 m 593 308 q 584 285 593 294 q 561 276 575 276 l 524 276 q 501 285 510 276 q 492 308 492 294 l 492 428 q 501 451 492 442 q 524 460 510 460 l 561 460 q 584 451 575 460 q 593 428 593 442 l 593 308 z "},"ツ":{"ha":774,"x_min":54,"x_max":721,"o":"m 463 496 q 447 446 467 468 q 400 425 429 425 l 361 425 q 319 441 338 425 q 299 481 301 457 l 258 831 q 274 879 254 857 q 321 900 293 900 l 360 900 q 402 884 383 900 q 422 844 421 868 l 463 496 m 263 496 q 247 446 267 469 q 200 425 229 425 l 161 425 q 119 441 138 425 q 99 481 101 457 l 58 831 q 74 879 54 857 q 121 900 93 900 l 160 900 q 202 884 183 900 q 222 844 221 868 l 263 496 m 714 782 l 606 168 q 568 83 597 121 q 497 22 539 44 q 406 0 454 0 l 318 0 q 273 18 292 0 q 254 63 254 36 l 254 101 q 273 147 254 128 q 318 165 292 165 l 406 165 q 429 175 417 165 q 443 196 442 185 l 551 804 q 573 841 556 826 q 614 856 590 856 l 651 856 q 700 833 682 856 q 714 782 721 811 z "},"ッ":{"ha":693,"x_min":96,"x_max":681,"o":"m 450 372 q 431 328 450 346 q 386 310 413 310 l 347 310 q 303 328 321 310 q 285 372 285 346 l 285 650 q 303 694 285 676 q 347 713 321 713 l 386 713 q 431 694 413 713 q 450 650 450 676 l 450 372 m 263 372 q 244 328 263 346 q 199 310 225 310 l 160 310 q 115 328 133 310 q 96 372 96 346 l 96 650 q 115 694 96 676 q 160 713 133 713 l 199 713 q 244 694 225 713 q 263 650 263 676 l 263 372 m 675 579 l 597 139 q 540 40 588 79 q 431 0 492 0 l 361 0 q 316 19 335 0 q 297 64 297 38 l 297 101 q 316 147 297 128 q 361 165 335 165 l 428 165 q 433 167 432 165 q 435 169 435 168 q 436 171 435 169 l 513 601 q 534 640 517 625 q 575 654 551 654 l 613 654 q 661 632 643 654 q 675 579 681 607 z "},"ヅ":{"ha":807,"x_min":51,"x_max":860,"o":"m 860 786 q 851 764 860 774 q 829 754 842 754 l 790 754 q 768 764 778 754 q 758 786 758 774 l 758 907 q 768 930 758 921 q 790 939 778 939 l 829 939 q 851 930 842 939 q 860 907 860 921 l 860 786 m 735 786 q 726 764 735 774 q 703 754 717 754 l 665 754 q 642 764 651 754 q 633 786 633 774 l 633 907 q 642 930 633 921 q 665 939 651 939 l 703 939 q 726 930 717 939 q 735 907 735 921 l 735 786 m 460 496 q 444 446 464 468 q 397 425 426 425 l 358 425 q 317 441 335 425 q 296 481 299 457 l 256 831 q 258 857 254 844 q 271 879 263 869 q 318 900 290 900 l 357 900 q 399 884 381 900 q 419 844 418 868 l 460 496 m 260 496 q 244 446 264 468 q 197 425 226 425 l 158 425 q 117 441 135 425 q 96 481 99 457 l 56 831 q 71 879 51 857 q 118 900 90 900 l 157 900 q 199 884 181 900 q 219 844 218 868 l 260 496 m 700 711 l 603 168 q 565 83 594 121 q 494 22 536 44 q 403 0 451 0 l 315 0 q 270 19 289 0 q 251 64 251 38 l 251 101 q 270 147 251 128 q 315 165 289 165 l 403 165 q 426 175 414 165 q 440 197 439 185 l 549 804 q 588 851 556 840 q 601 850 594 854 q 607 839 607 846 l 607 786 q 624 746 607 763 q 664 729 640 729 l 685 729 q 700 711 703 729 z "}}}
